{"glyphs":{"0":{"ha":833,"x_min":67,"x_max":767,"o":"m 417 -12 q 156 117 246 -12 q 67 490 67 247 q 156 865 67 738 q 417 992 246 992 q 678 865 589 992 q 767 492 767 738 q 677 117 767 247 q 417 -12 588 -12 m 417 107 q 574 200 522 107 q 625 492 625 293 q 574 781 625 690 q 417 872 524 872 q 260 781 311 872 q 208 492 208 689 q 260 200 208 293 q 417 107 311 107 z "},"1":{"ha":833,"x_min":153,"x_max":736,"o":"m 163 0 l 163 121 l 385 121 l 385 813 l 211 704 l 153 811 l 426 979 l 528 979 l 528 121 l 736 121 l 736 0 l 163 0 z "},"2":{"ha":833,"x_min":81,"x_max":754,"o":"m 118 0 l 118 107 l 444 457 q 542 590 513 531 q 572 711 572 650 q 386 869 572 869 q 132 763 244 869 l 81 872 q 222 959 136 926 q 401 992 308 992 q 634 922 553 992 q 715 724 715 853 q 673 553 715 636 q 540 375 631 469 l 299 121 l 754 121 l 754 0 l 118 0 z "},"3":{"ha":833,"x_min":65,"x_max":742,"o":"m 401 -12 q 214 17 303 -12 q 65 101 125 47 l 115 213 q 250 135 181 160 q 397 110 319 110 q 549 153 497 110 q 601 276 601 196 q 549 396 601 357 q 399 435 497 435 l 247 435 l 247 556 l 385 556 q 523 600 472 556 q 574 722 574 644 q 526 831 574 793 q 392 869 479 869 q 132 763 243 869 l 82 872 q 224 960 139 929 q 403 992 310 992 q 632 924 550 992 q 714 738 714 857 q 673 596 714 657 q 560 507 632 535 q 694 422 647 485 q 742 267 742 358 q 651 63 742 138 q 401 -12 560 -12 z "},"4":{"ha":833,"x_min":65,"x_max":792,"o":"m 506 0 l 506 199 l 65 199 l 65 306 l 531 979 l 649 979 l 649 319 l 792 319 l 792 199 l 649 199 l 649 0 l 506 0 m 506 319 l 506 754 l 208 319 l 506 319 z "},"5":{"ha":833,"x_min":103,"x_max":774,"o":"m 432 -12 q 249 17 338 -12 q 103 101 161 47 l 151 213 q 429 110 279 110 q 579 162 525 110 q 633 299 633 214 q 582 442 633 386 q 439 497 531 497 q 232 390 310 497 l 132 390 l 132 979 l 715 979 l 715 858 l 272 858 l 272 549 q 469 617 350 617 q 631 578 563 617 q 736 469 699 539 q 774 306 774 399 q 732 140 774 211 q 614 28 690 68 q 432 -12 538 -12 z "},"6":{"ha":833,"x_min":81,"x_max":768,"o":"m 451 -12 q 177 114 274 -12 q 81 468 81 240 q 189 856 81 719 q 489 992 297 992 q 640 962 564 992 q 768 878 717 932 l 718 769 q 608 844 668 819 q 486 869 547 869 q 288 776 357 869 q 219 496 219 682 l 219 440 q 316 573 247 525 q 475 621 385 621 q 627 581 561 621 q 731 470 693 540 q 768 310 768 400 q 728 142 768 215 q 616 28 688 69 q 451 -12 544 -12 m 443 104 q 581 160 528 104 q 633 304 633 215 q 581 449 633 393 q 443 504 528 504 q 306 449 358 504 q 253 304 253 393 q 306 160 253 215 q 443 104 358 104 z "},"7":{"ha":833,"x_min":86,"x_max":749,"o":"m 139 0 l 588 858 l 86 858 l 86 979 l 749 979 l 749 872 l 297 0 l 139 0 z "},"8":{"ha":833,"x_min":61,"x_max":772,"o":"m 417 -12 q 155 60 249 -12 q 61 261 61 132 q 109 415 61 351 q 235 501 157 478 q 125 591 165 531 q 85 731 85 651 q 175 922 85 853 q 417 992 265 992 q 660 922 569 992 q 750 731 750 853 q 709 590 750 651 q 599 501 668 529 q 725 415 678 478 q 772 261 772 351 q 678 60 772 132 q 417 -12 585 -12 m 417 553 q 562 597 510 553 q 614 717 614 640 q 562 835 614 792 q 417 878 510 878 q 272 835 324 878 q 221 717 221 792 q 272 597 221 640 q 417 553 324 553 m 417 101 q 638 271 638 101 q 417 439 638 439 q 252 397 308 439 q 196 271 196 356 q 417 101 196 101 z "},"9":{"ha":833,"x_min":65,"x_max":753,"o":"m 346 -12 q 194 18 269 -12 q 65 101 118 49 l 115 211 q 226 135 167 161 q 347 110 286 110 q 547 203 478 110 q 615 483 615 297 l 615 540 q 519 407 588 456 q 358 358 450 358 q 207 399 274 358 q 103 509 140 439 q 65 669 65 579 q 106 837 65 764 q 217 951 146 910 q 382 992 289 992 q 656 865 560 992 q 753 511 753 739 q 645 124 753 260 q 346 -12 538 -12 m 392 476 q 529 531 476 476 q 582 675 582 586 q 529 820 582 764 q 392 876 476 876 q 254 820 307 876 q 201 675 201 764 q 254 531 201 586 q 392 476 307 476 z "},"A":{"ha":1022,"x_min":15,"x_max":1008,"o":"m 15 0 l 451 979 l 571 979 l 1008 0 l 861 0 l 758 239 l 263 239 l 161 0 l 15 0 m 510 819 l 314 356 l 710 356 l 513 819 l 510 819 z "},"Á":{"ha":1022,"x_min":15,"x_max":1008,"o":"m 15 0 l 451 979 l 571 979 l 1008 0 l 861 0 l 758 239 l 263 239 l 161 0 l 15 0 m 510 819 l 314 356 l 710 356 l 513 819 l 510 819 m 461 1063 l 625 1303 l 776 1303 l 564 1063 l 461 1063 z "},"Ă":{"ha":1022,"x_min":15,"x_max":1008,"o":"m 15 0 l 451 979 l 571 979 l 1008 0 l 861 0 l 758 239 l 263 239 l 161 0 l 15 0 m 510 819 l 314 356 l 710 356 l 513 819 l 510 819 m 513 1056 q 344 1119 411 1056 q 269 1290 278 1182 l 353 1301 q 401 1185 360 1226 q 513 1144 443 1144 q 624 1185 582 1144 q 672 1301 667 1226 l 756 1290 q 681 1119 747 1182 q 513 1056 615 1056 z "},"Ắ":{"ha":1022,"x_min":15,"x_max":1008,"o":"m 15 0 l 451 979 l 571 979 l 1008 0 l 861 0 l 758 239 l 263 239 l 161 0 l 15 0 m 510 819 l 314 356 l 710 356 l 513 819 l 510 819 m 458 1222 l 569 1414 l 710 1414 l 550 1222 l 458 1222 m 513 1056 q 355 1112 415 1056 q 286 1267 294 1168 l 360 1274 q 408 1175 369 1211 q 513 1139 446 1139 q 617 1175 579 1139 q 665 1274 656 1211 l 739 1267 q 670 1112 731 1168 q 513 1056 610 1056 z "},"Ặ":{"ha":1022,"x_min":15,"x_max":1008,"o":"m 15 0 l 451 979 l 571 979 l 1008 0 l 861 0 l 758 239 l 263 239 l 161 0 l 15 0 m 510 819 l 314 356 l 710 356 l 513 819 l 510 819 m 439 -271 l 439 -131 l 586 -131 l 586 -271 l 439 -271 m 513 1056 q 344 1119 411 1056 q 269 1290 278 1182 l 353 1301 q 401 1185 360 1226 q 513 1144 443 1144 q 624 1185 582 1144 q 672 1301 667 1226 l 756 1290 q 681 1119 747 1182 q 513 1056 615 1056 z "},"Ằ":{"ha":1022,"x_min":15,"x_max":1008,"o":"m 15 0 l 451 979 l 571 979 l 1008 0 l 861 0 l 758 239 l 263 239 l 161 0 l 15 0 m 510 819 l 314 356 l 710 356 l 513 819 l 510 819 m 475 1222 l 315 1414 l 456 1414 l 567 1222 l 475 1222 m 513 1056 q 355 1112 415 1056 q 286 1267 294 1168 l 360 1274 q 408 1175 369 1211 q 513 1139 446 1139 q 617 1175 579 1139 q 665 1274 656 1211 l 739 1267 q 670 1112 731 1168 q 513 1056 610 1056 z "},"Ẳ":{"ha":1022,"x_min":15,"x_max":1008,"o":"m 15 0 l 451 979 l 571 979 l 1008 0 l 861 0 l 758 239 l 263 239 l 161 0 l 15 0 m 510 819 l 314 356 l 710 356 l 513 819 l 510 819 m 472 1222 q 484 1265 472 1250 q 510 1291 496 1281 q 537 1311 525 1301 q 549 1336 549 1321 q 493 1361 549 1361 q 453 1358 474 1361 q 410 1344 433 1354 l 390 1403 q 518 1428 442 1428 q 613 1408 579 1428 q 646 1356 646 1389 q 632 1313 646 1329 q 600 1286 618 1297 q 568 1260 582 1275 q 554 1222 554 1246 l 472 1222 m 513 1056 q 355 1112 415 1056 q 286 1267 294 1168 l 360 1274 q 408 1175 369 1211 q 513 1139 446 1139 q 617 1175 579 1139 q 665 1274 656 1211 l 739 1267 q 670 1113 731 1169 q 513 1056 610 1056 z "},"Ẵ":{"ha":1022,"x_min":15,"x_max":1008,"o":"m 15 0 l 451 979 l 571 979 l 1008 0 l 861 0 l 758 239 l 263 239 l 161 0 l 15 0 m 510 819 l 314 356 l 710 356 l 513 819 l 510 819 m 354 1278 l 285 1282 q 327 1390 289 1354 q 422 1426 365 1426 q 471 1417 447 1426 q 526 1389 494 1408 q 569 1366 553 1372 q 600 1360 586 1360 q 671 1429 658 1360 l 740 1425 q 699 1316 736 1353 q 604 1279 661 1279 q 553 1290 578 1279 q 497 1319 529 1300 q 456 1340 472 1333 q 426 1347 440 1347 q 378 1331 394 1347 q 354 1278 363 1314 m 513 1056 q 366 1097 426 1056 q 286 1211 306 1139 l 360 1229 q 513 1139 393 1139 q 612 1163 574 1139 q 665 1229 650 1186 l 739 1211 q 660 1097 721 1139 q 513 1056 600 1056 z "},"Ǎ":{"ha":1022,"x_min":15,"x_max":1008,"o":"m 15 0 l 451 979 l 571 979 l 1008 0 l 861 0 l 758 239 l 263 239 l 161 0 l 15 0 m 510 819 l 314 356 l 710 356 l 513 819 l 510 819 m 450 1063 l 279 1303 l 381 1303 l 513 1147 l 644 1303 l 746 1303 l 575 1063 l 450 1063 z "},"Â":{"ha":1022,"x_min":15,"x_max":1008,"o":"m 15 0 l 451 979 l 571 979 l 1008 0 l 861 0 l 758 239 l 263 239 l 161 0 l 15 0 m 510 819 l 314 356 l 710 356 l 513 819 l 510 819 m 279 1063 l 450 1303 l 575 1303 l 746 1063 l 644 1063 l 513 1218 l 381 1063 l 279 1063 z "},"Ấ":{"ha":1022,"x_min":15,"x_max":1008,"o":"m 15 0 l 451 979 l 571 979 l 1008 0 l 861 0 l 758 239 l 263 239 l 161 0 l 15 0 m 510 819 l 314 356 l 710 356 l 513 819 l 510 819 m 653 1208 l 771 1417 l 896 1417 l 738 1208 l 653 1208 m 296 1063 l 449 1288 l 576 1288 l 729 1063 l 636 1063 l 513 1206 l 389 1063 l 296 1063 z "},"Ậ":{"ha":1022,"x_min":15,"x_max":1008,"o":"m 15 0 l 451 979 l 571 979 l 1008 0 l 861 0 l 758 239 l 263 239 l 161 0 l 15 0 m 510 819 l 314 356 l 710 356 l 513 819 l 510 819 m 439 -271 l 439 -131 l 586 -131 l 586 -271 l 439 -271 m 279 1063 l 450 1303 l 575 1303 l 746 1063 l 644 1063 l 513 1218 l 381 1063 l 279 1063 z "},"Ầ":{"ha":1022,"x_min":15,"x_max":1008,"o":"m 15 0 l 451 979 l 571 979 l 1008 0 l 861 0 l 758 239 l 263 239 l 161 0 l 15 0 m 510 819 l 314 356 l 710 356 l 513 819 l 510 819 m 707 1208 l 550 1417 l 675 1417 l 793 1208 l 707 1208 m 296 1063 l 449 1288 l 576 1288 l 729 1063 l 636 1063 l 513 1206 l 389 1063 l 296 1063 z "},"Ẩ":{"ha":1022,"x_min":15,"x_max":1008,"o":"m 15 0 l 451 979 l 571 979 l 1008 0 l 861 0 l 758 239 l 263 239 l 161 0 l 15 0 m 510 819 l 314 356 l 710 356 l 513 819 l 510 819 m 660 1208 q 671 1253 660 1236 q 697 1282 682 1271 q 724 1304 713 1293 q 736 1331 736 1315 q 681 1356 736 1356 q 640 1352 661 1356 q 597 1339 619 1349 l 578 1397 q 635 1416 604 1410 q 706 1422 665 1422 q 800 1403 767 1422 q 833 1351 833 1383 q 819 1308 833 1325 q 788 1277 806 1290 q 756 1249 769 1264 q 742 1208 742 1233 l 660 1208 m 296 1063 l 449 1288 l 576 1288 l 729 1063 l 636 1063 l 513 1206 l 389 1063 l 296 1063 z "},"Ẫ":{"ha":1022,"x_min":15,"x_max":1008,"o":"m 15 0 l 451 979 l 571 979 l 1008 0 l 861 0 l 758 239 l 263 239 l 161 0 l 15 0 m 510 819 l 314 356 l 710 356 l 513 819 l 510 819 m 354 1281 l 285 1283 q 327 1393 289 1357 q 422 1429 365 1429 q 471 1419 447 1429 q 526 1390 494 1410 q 569 1368 553 1375 q 600 1361 586 1361 q 671 1431 658 1361 l 740 1426 q 699 1318 736 1354 q 604 1282 661 1282 q 553 1292 578 1282 q 497 1321 529 1301 q 456 1342 472 1336 q 426 1349 440 1349 q 378 1333 394 1349 q 354 1281 363 1317 m 296 1063 l 449 1247 l 576 1247 l 729 1063 l 640 1063 l 513 1172 l 388 1063 l 296 1063 z "},"Ȁ":{"ha":1022,"x_min":15,"x_max":1008,"o":"m 15 0 l 451 979 l 571 979 l 1008 0 l 861 0 l 758 239 l 263 239 l 161 0 l 15 0 m 510 819 l 314 356 l 710 356 l 513 819 l 510 819 m 567 1063 l 397 1303 l 529 1303 l 647 1063 l 567 1063 m 379 1063 l 200 1303 l 332 1303 l 458 1063 l 379 1063 z "},"Ä":{"ha":1022,"x_min":15,"x_max":1008,"o":"m 15 0 l 451 979 l 571 979 l 1008 0 l 861 0 l 758 239 l 263 239 l 161 0 l 15 0 m 510 819 l 314 356 l 710 356 l 513 819 l 510 819 m 568 1110 l 568 1247 l 707 1247 l 707 1110 l 568 1110 m 318 1110 l 318 1247 l 457 1247 l 457 1110 l 318 1110 z "},"Ȧ":{"ha":1022,"x_min":15,"x_max":1008,"o":"m 15 0 l 451 979 l 571 979 l 1008 0 l 861 0 l 758 239 l 263 239 l 161 0 l 15 0 m 510 819 l 314 356 l 710 356 l 513 819 l 510 819 m 440 1113 l 440 1253 l 585 1253 l 585 1113 l 440 1113 z "},"Ạ":{"ha":1022,"x_min":15,"x_max":1008,"o":"m 15 0 l 451 979 l 571 979 l 1008 0 l 861 0 l 758 239 l 263 239 l 161 0 l 15 0 m 510 819 l 314 356 l 710 356 l 513 819 l 510 819 m 439 -271 l 439 -131 l 586 -131 l 586 -271 l 439 -271 z "},"À":{"ha":1022,"x_min":15,"x_max":1008,"o":"m 15 0 l 451 979 l 571 979 l 1008 0 l 861 0 l 758 239 l 263 239 l 161 0 l 15 0 m 510 819 l 314 356 l 710 356 l 513 819 l 510 819 m 461 1063 l 249 1303 l 400 1303 l 564 1063 l 461 1063 z "},"Ả":{"ha":1022,"x_min":15,"x_max":1008,"o":"m 15 0 l 451 979 l 571 979 l 1008 0 l 861 0 l 758 239 l 263 239 l 161 0 l 15 0 m 510 819 l 314 356 l 710 356 l 513 819 l 510 819 m 467 1063 l 467 1086 q 480 1129 467 1113 q 509 1158 493 1146 q 538 1181 525 1169 q 550 1207 550 1192 q 490 1236 550 1236 q 404 1218 447 1236 l 382 1283 q 521 1311 438 1311 q 624 1288 586 1311 q 661 1225 661 1265 q 645 1177 661 1194 q 609 1147 629 1160 q 574 1119 589 1133 q 558 1078 558 1104 l 558 1063 l 467 1063 z "},"Ȃ":{"ha":1022,"x_min":15,"x_max":1008,"o":"m 15 0 l 451 979 l 571 979 l 1008 0 l 861 0 l 758 239 l 263 239 l 161 0 l 15 0 m 510 819 l 314 356 l 710 356 l 513 819 l 510 819 m 353 1056 l 269 1067 q 344 1238 278 1175 q 513 1301 411 1301 q 681 1238 615 1301 q 756 1067 747 1175 l 672 1056 q 624 1172 667 1131 q 513 1214 582 1214 q 401 1172 443 1214 q 353 1056 360 1131 z "},"Ā":{"ha":1022,"x_min":15,"x_max":1008,"o":"m 15 0 l 451 979 l 571 979 l 1008 0 l 861 0 l 758 239 l 263 239 l 161 0 l 15 0 m 510 819 l 314 356 l 710 356 l 513 819 l 510 819 m 281 1126 l 281 1214 l 746 1214 l 746 1126 l 281 1126 z "},"Ą":{"ha":1022,"x_min":15,"x_max":1056,"o":"m 15 0 l 451 979 l 571 979 l 1008 0 l 861 0 l 758 239 l 263 239 l 161 0 l 15 0 m 510 819 l 314 356 l 710 356 l 513 819 l 510 819 m 942 -269 q 829 -231 871 -269 q 788 -129 788 -193 q 824 -24 788 -72 q 925 54 861 25 l 969 0 q 909 -44 936 -14 q 882 -114 882 -74 q 904 -170 882 -151 q 961 -189 926 -189 q 1035 -172 994 -189 l 1056 -246 q 942 -269 1008 -269 z "},"Å":{"ha":1022,"x_min":15,"x_max":1008,"o":"m 15 0 l 451 979 l 571 979 l 1008 0 l 861 0 l 758 239 l 263 239 l 161 0 l 15 0 m 510 819 l 314 356 l 710 356 l 513 819 l 510 819 m 513 1050 q 392 1099 440 1050 q 343 1217 343 1147 q 392 1333 343 1286 q 513 1381 440 1381 q 633 1333 585 1381 q 682 1217 682 1286 q 633 1099 682 1147 q 513 1050 585 1050 m 513 1119 q 581 1147 554 1119 q 608 1217 608 1175 q 581 1284 608 1257 q 513 1311 554 1311 q 444 1284 471 1311 q 417 1217 417 1257 q 444 1147 417 1175 q 513 1119 471 1119 z "},"Ǻ":{"ha":1022,"x_min":15,"x_max":1008,"o":"m 15 0 l 451 979 l 571 979 l 1008 0 l 861 0 l 758 239 l 263 239 l 161 0 l 15 0 m 510 819 l 314 356 l 710 356 l 513 819 l 510 819 m 513 1050 q 396 1097 443 1050 q 349 1211 349 1144 q 396 1325 349 1279 q 513 1371 443 1371 q 603 1346 563 1371 l 697 1433 l 821 1433 l 656 1292 q 676 1211 676 1256 q 629 1097 676 1144 q 513 1050 582 1050 m 513 1115 q 581 1142 554 1115 q 608 1211 608 1169 q 581 1279 608 1251 q 513 1307 554 1307 q 444 1279 471 1307 q 417 1211 417 1251 q 444 1142 417 1169 q 513 1115 471 1115 z "},"Ã":{"ha":1022,"x_min":15,"x_max":1008,"o":"m 15 0 l 451 979 l 571 979 l 1008 0 l 861 0 l 758 239 l 263 239 l 161 0 l 15 0 m 510 819 l 314 356 l 710 356 l 513 819 l 510 819 m 288 1081 l 214 1085 q 269 1229 222 1179 q 389 1279 317 1279 q 456 1266 422 1279 q 532 1226 489 1253 q 599 1190 576 1199 q 640 1181 622 1181 q 738 1285 719 1181 l 811 1279 q 756 1135 804 1186 q 638 1085 708 1085 q 569 1099 604 1085 q 490 1140 533 1114 q 428 1175 451 1165 q 385 1185 404 1185 q 288 1081 307 1185 z "},"Æ":{"ha":1369,"x_min":-35,"x_max":1299,"o":"m -35 0 l 567 979 l 1299 979 l 1299 863 l 722 863 l 789 556 l 1271 556 l 1271 439 l 814 439 l 883 117 l 1299 117 l 1299 0 l 778 0 l 728 239 l 261 239 l 118 0 l -35 0 m 601 815 l 329 356 l 703 356 l 604 815 l 601 815 z "},"Ǽ":{"ha":1369,"x_min":-35,"x_max":1299,"o":"m -35 0 l 567 979 l 1299 979 l 1299 863 l 722 863 l 789 556 l 1271 556 l 1271 439 l 814 439 l 883 117 l 1299 117 l 1299 0 l 778 0 l 728 239 l 261 239 l 118 0 l -35 0 m 601 815 l 329 356 l 703 356 l 604 815 l 601 815 m 625 1063 l 789 1303 l 940 1303 l 728 1063 l 625 1063 z "},"B":{"ha":947,"x_min":114,"x_max":867,"o":"m 114 0 l 114 979 l 522 979 q 759 912 675 979 q 843 724 843 844 q 801 588 843 644 q 688 504 760 531 q 819 422 772 482 q 867 271 867 363 q 780 70 867 140 q 539 0 693 0 l 114 0 m 253 551 l 500 551 q 703 710 703 551 q 500 868 703 868 l 253 868 l 253 551 m 253 111 l 522 111 q 726 276 726 111 q 522 440 726 440 l 253 440 l 253 111 z "},"Ɓ":{"ha":1135,"x_min":0,"x_max":1056,"o":"m 303 0 l 303 874 l 263 874 q 154 839 189 874 q 119 729 119 804 l 119 667 l 0 667 l 0 736 q 274 979 0 979 l 711 979 q 948 912 864 979 q 1032 724 1032 844 q 990 588 1032 644 q 876 504 949 531 q 1008 422 961 482 q 1056 271 1056 363 q 969 70 1056 140 q 726 0 882 0 l 303 0 m 442 551 l 688 551 q 892 710 892 551 q 688 868 892 868 l 442 868 l 442 551 m 442 111 l 711 111 q 915 276 915 111 q 711 440 915 440 l 442 440 l 442 111 z "},"C":{"ha":939,"x_min":81,"x_max":885,"o":"m 553 -12 q 299 49 404 -12 q 137 223 193 110 q 81 490 81 336 q 137 757 81 644 q 299 931 193 869 q 553 992 404 992 q 740 960 653 992 q 885 871 826 929 l 835 756 q 703 838 771 813 q 557 864 636 864 q 315 767 399 864 q 232 490 232 669 q 315 213 232 311 q 557 115 399 115 q 703 141 636 115 q 835 224 771 167 l 885 108 q 740 19 826 51 q 553 -12 653 -12 z "},"Ć":{"ha":939,"x_min":81,"x_max":885,"o":"m 553 -12 q 299 49 404 -12 q 137 223 193 110 q 81 490 81 336 q 137 757 81 644 q 299 931 193 869 q 553 992 404 992 q 740 960 653 992 q 885 871 826 929 l 835 756 q 703 838 771 813 q 557 864 636 864 q 315 767 399 864 q 232 490 232 669 q 315 213 232 311 q 557 115 399 115 q 703 141 636 115 q 835 224 771 167 l 885 108 q 740 19 826 51 q 553 -12 653 -12 m 489 1063 l 653 1303 l 804 1303 l 592 1063 l 489 1063 z "},"Č":{"ha":939,"x_min":81,"x_max":885,"o":"m 553 -12 q 299 49 404 -12 q 137 223 193 110 q 81 490 81 336 q 137 757 81 644 q 299 931 193 869 q 553 992 404 992 q 740 960 653 992 q 885 871 826 929 l 835 756 q 703 838 771 813 q 557 864 636 864 q 315 767 399 864 q 232 490 232 669 q 315 213 232 311 q 557 115 399 115 q 703 141 636 115 q 835 224 771 167 l 885 108 q 740 19 826 51 q 553 -12 653 -12 m 478 1063 l 307 1303 l 408 1303 l 540 1147 l 672 1303 l 774 1303 l 603 1063 l 478 1063 z "},"Ç":{"ha":939,"x_min":81,"x_max":885,"o":"m 553 -12 q 299 49 404 -12 q 137 223 193 110 q 81 490 81 336 q 137 757 81 644 q 299 931 193 869 q 553 992 404 992 q 740 960 653 992 q 885 871 826 929 l 835 756 q 703 838 771 813 q 557 864 636 864 q 315 767 399 864 q 232 490 232 669 q 315 213 232 311 q 557 115 399 115 q 703 141 636 115 q 835 224 771 167 l 885 108 q 740 19 826 51 q 553 -12 653 -12 m 542 -269 q 469 -262 504 -269 q 410 -240 433 -254 l 431 -172 q 480 -189 457 -183 q 533 -194 503 -194 q 592 -183 571 -194 q 613 -149 613 -171 q 560 -112 613 -112 q 532 -115 546 -112 q 499 -122 518 -117 l 474 -100 l 493 28 l 574 28 l 560 -57 q 581 -56 571 -56 q 668 -81 635 -56 q 701 -153 701 -107 q 657 -237 701 -204 q 542 -269 613 -269 z "},"Ḉ":{"ha":939,"x_min":81,"x_max":885,"o":"m 553 -12 q 299 49 404 -12 q 137 223 193 110 q 81 490 81 336 q 137 757 81 644 q 299 931 193 869 q 553 992 404 992 q 740 960 653 992 q 885 871 826 929 l 835 756 q 703 838 771 813 q 557 864 636 864 q 315 767 399 864 q 232 490 232 669 q 315 213 232 311 q 557 115 399 115 q 703 141 636 115 q 835 224 771 167 l 885 108 q 740 19 826 51 q 553 -12 653 -12 m 542 -269 q 469 -262 504 -269 q 410 -240 433 -254 l 431 -172 q 480 -189 457 -183 q 533 -194 503 -194 q 592 -183 571 -194 q 613 -149 613 -171 q 560 -112 613 -112 q 532 -115 546 -112 q 499 -122 518 -117 l 474 -100 l 493 28 l 574 28 l 560 -57 q 581 -56 571 -56 q 668 -81 635 -56 q 701 -153 701 -107 q 657 -237 701 -204 q 542 -269 613 -269 m 489 1063 l 653 1303 l 804 1303 l 592 1063 l 489 1063 z "},"Ĉ":{"ha":939,"x_min":81,"x_max":885,"o":"m 553 -12 q 299 49 404 -12 q 137 223 193 110 q 81 490 81 336 q 137 757 81 644 q 299 931 193 869 q 553 992 404 992 q 740 960 653 992 q 885 871 826 929 l 835 756 q 703 838 771 813 q 557 864 636 864 q 315 767 399 864 q 232 490 232 669 q 315 213 232 311 q 557 115 399 115 q 703 141 636 115 q 835 224 771 167 l 885 108 q 740 19 826 51 q 553 -12 653 -12 m 307 1063 l 478 1303 l 603 1303 l 774 1063 l 672 1063 l 540 1218 l 408 1063 l 307 1063 z "},"Ċ":{"ha":939,"x_min":81,"x_max":885,"o":"m 553 -12 q 299 49 404 -12 q 137 223 193 110 q 81 490 81 336 q 137 757 81 644 q 299 931 193 869 q 553 992 404 992 q 740 960 653 992 q 885 871 826 929 l 835 756 q 703 838 771 813 q 557 864 636 864 q 315 767 399 864 q 232 490 232 669 q 315 213 232 311 q 557 115 399 115 q 703 141 636 115 q 835 224 771 167 l 885 108 q 740 19 826 51 q 553 -12 653 -12 m 468 1113 l 468 1253 l 613 1253 l 613 1113 l 468 1113 z "},"D":{"ha":1043,"x_min":114,"x_max":964,"o":"m 114 0 l 114 979 l 460 979 q 833 853 701 979 q 964 490 964 726 q 833 127 964 254 q 460 0 701 0 l 114 0 m 258 121 l 451 121 q 814 490 814 121 q 451 858 814 858 l 258 858 l 258 121 z "},"Ǆ":{"ha":1851,"x_min":114,"x_max":1821,"o":"m 114 0 l 114 979 l 460 979 q 833 853 701 979 q 964 490 964 726 q 833 127 964 254 q 460 0 701 0 l 114 0 m 258 121 l 451 121 q 814 490 814 121 q 451 858 814 858 l 258 858 l 258 121 z "},"Ð":{"ha":1043,"x_min":-7,"x_max":964,"o":"m 114 0 l 114 979 l 460 979 q 833 853 701 979 q 964 490 964 726 q 833 127 964 254 q 460 0 701 0 l 114 0 m 258 121 l 451 121 q 814 490 814 121 q 451 858 814 858 l 258 858 l 258 121 m -7 443 l -7 550 l 526 550 l 526 443 l -7 443 z "},"Ď":{"ha":1043,"x_min":114,"x_max":964,"o":"m 114 0 l 114 979 l 460 979 q 833 853 701 979 q 964 490 964 726 q 833 127 964 254 q 460 0 701 0 l 114 0 m 258 121 l 451 121 q 814 490 814 121 q 451 858 814 858 l 258 858 l 258 121 m 457 1063 l 286 1303 l 388 1303 l 519 1147 l 651 1303 l 753 1303 l 582 1063 l 457 1063 z "},"Đ":{"ha":1043,"x_min":-7,"x_max":964,"o":"m 114 0 l 114 979 l 460 979 q 833 853 701 979 q 964 490 964 726 q 833 127 964 254 q 460 0 701 0 l 114 0 m 258 121 l 451 121 q 814 490 814 121 q 451 858 814 858 l 258 858 l 258 121 m -7 443 l -7 550 l 526 550 l 526 443 l -7 443 z "},"Ḍ":{"ha":1043,"x_min":114,"x_max":964,"o":"m 114 0 l 114 979 l 460 979 q 833 853 701 979 q 964 490 964 726 q 833 127 964 254 q 460 0 701 0 l 114 0 m 258 121 l 451 121 q 814 490 814 121 q 451 858 814 858 l 258 858 l 258 121 m 446 -271 l 446 -131 l 593 -131 l 593 -271 l 446 -271 z "},"Ɗ":{"ha":1232,"x_min":0,"x_max":1153,"o":"m 303 0 l 303 874 l 263 874 q 154 839 189 874 q 119 729 119 804 l 119 667 l 0 667 l 0 736 q 265 979 0 979 l 649 979 q 1022 853 890 979 q 1153 490 1153 726 q 1022 127 1153 254 q 649 0 890 0 l 303 0 m 446 121 l 639 121 q 1003 490 1003 121 q 639 858 1003 858 l 446 858 l 446 121 z "},"Ḏ":{"ha":1043,"x_min":114,"x_max":964,"o":"m 114 0 l 114 979 l 460 979 q 833 853 701 979 q 964 490 964 726 q 833 127 964 254 q 460 0 701 0 l 114 0 m 258 121 l 451 121 q 814 490 814 121 q 451 858 814 858 l 258 858 l 258 121 m 308 -222 l 308 -133 l 732 -133 l 732 -222 l 308 -222 z "},"ǅ":{"ha":1694,"x_min":114,"x_max":1654,"o":"m 114 0 l 114 979 l 460 979 q 833 853 701 979 q 964 490 964 726 q 833 127 964 254 q 460 0 701 0 l 114 0 m 258 121 l 451 121 q 814 490 814 121 q 451 858 814 858 l 258 858 l 258 121 z "},"E":{"ha":818,"x_min":114,"x_max":747,"o":"m 114 0 l 114 979 l 747 979 l 747 863 l 253 863 l 253 556 l 718 556 l 718 439 l 253 439 l 253 117 l 747 117 l 747 0 l 114 0 z "},"É":{"ha":818,"x_min":114,"x_max":747,"o":"m 114 0 l 114 979 l 747 979 l 747 863 l 253 863 l 253 556 l 718 556 l 718 439 l 253 439 l 253 117 l 747 117 l 747 0 l 114 0 m 401 1063 l 565 1303 l 717 1303 l 504 1063 l 401 1063 z "},"Ĕ":{"ha":818,"x_min":114,"x_max":747,"o":"m 114 0 l 114 979 l 747 979 l 747 863 l 253 863 l 253 556 l 718 556 l 718 439 l 253 439 l 253 117 l 747 117 l 747 0 l 114 0 m 453 1056 q 285 1119 351 1056 q 210 1290 218 1182 l 293 1301 q 342 1185 300 1226 q 453 1144 383 1144 q 565 1185 522 1144 q 613 1301 607 1226 l 696 1290 q 622 1119 688 1182 q 453 1056 556 1056 z "},"Ě":{"ha":818,"x_min":114,"x_max":747,"o":"m 114 0 l 114 979 l 747 979 l 747 863 l 253 863 l 253 556 l 718 556 l 718 439 l 253 439 l 253 117 l 747 117 l 747 0 l 114 0 m 390 1063 l 219 1303 l 321 1303 l 453 1147 l 585 1303 l 686 1303 l 515 1063 l 390 1063 z "},"Ȩ":{"ha":818,"x_min":114,"x_max":747,"o":"m 114 0 l 114 979 l 747 979 l 747 863 l 253 863 l 253 556 l 718 556 l 718 439 l 253 439 l 253 117 l 747 117 l 747 0 l 114 0 m 456 -269 q 383 -262 418 -269 q 324 -240 347 -254 l 344 -172 q 394 -189 371 -183 q 447 -194 417 -194 q 506 -183 485 -194 q 526 -149 526 -171 q 474 -112 526 -112 q 446 -115 460 -112 q 413 -122 432 -117 l 388 -100 l 407 28 l 488 28 l 474 -57 q 494 -56 485 -56 q 582 -81 549 -56 q 615 -153 615 -107 q 571 -237 615 -204 q 456 -269 526 -269 z "},"Ḝ":{"ha":818,"x_min":114,"x_max":747,"o":"m 114 0 l 114 979 l 747 979 l 747 863 l 253 863 l 253 556 l 718 556 l 718 439 l 253 439 l 253 117 l 747 117 l 747 0 l 114 0 m 456 -269 q 383 -262 418 -269 q 324 -240 347 -254 l 344 -172 q 394 -189 371 -183 q 447 -194 417 -194 q 506 -183 485 -194 q 526 -149 526 -171 q 474 -112 526 -112 q 446 -115 460 -112 q 413 -122 432 -117 l 388 -100 l 407 28 l 488 28 l 474 -57 q 494 -56 485 -56 q 582 -81 549 -56 q 615 -153 615 -107 q 571 -237 615 -204 q 456 -269 526 -269 m 453 1056 q 285 1119 351 1056 q 210 1290 218 1182 l 293 1301 q 342 1185 300 1226 q 453 1144 383 1144 q 565 1185 522 1144 q 613 1301 607 1226 l 696 1290 q 622 1119 688 1182 q 453 1056 556 1056 z "},"Ê":{"ha":818,"x_min":114,"x_max":747,"o":"m 114 0 l 114 979 l 747 979 l 747 863 l 253 863 l 253 556 l 718 556 l 718 439 l 253 439 l 253 117 l 747 117 l 747 0 l 114 0 m 219 1063 l 390 1303 l 515 1303 l 686 1063 l 585 1063 l 453 1218 l 321 1063 l 219 1063 z "},"Ế":{"ha":818,"x_min":114,"x_max":836,"o":"m 114 0 l 114 979 l 747 979 l 747 863 l 253 863 l 253 556 l 718 556 l 718 439 l 253 439 l 253 117 l 747 117 l 747 0 l 114 0 m 593 1208 l 711 1417 l 836 1417 l 678 1208 l 593 1208 m 236 1063 l 389 1288 l 517 1288 l 669 1063 l 576 1063 l 453 1206 l 329 1063 l 236 1063 z "},"Ệ":{"ha":818,"x_min":114,"x_max":747,"o":"m 114 0 l 114 979 l 747 979 l 747 863 l 253 863 l 253 556 l 718 556 l 718 439 l 253 439 l 253 117 l 747 117 l 747 0 l 114 0 m 379 -271 l 379 -131 l 526 -131 l 526 -271 l 379 -271 m 219 1063 l 390 1303 l 515 1303 l 686 1063 l 585 1063 l 453 1218 l 321 1063 l 219 1063 z "},"Ề":{"ha":818,"x_min":114,"x_max":747,"o":"m 114 0 l 114 979 l 747 979 l 747 863 l 253 863 l 253 556 l 718 556 l 718 439 l 253 439 l 253 117 l 747 117 l 747 0 l 114 0 m 647 1208 l 490 1417 l 615 1417 l 733 1208 l 647 1208 m 236 1063 l 389 1288 l 517 1288 l 669 1063 l 576 1063 l 453 1206 l 329 1063 l 236 1063 z "},"Ể":{"ha":818,"x_min":114,"x_max":774,"o":"m 114 0 l 114 979 l 747 979 l 747 863 l 253 863 l 253 556 l 718 556 l 718 439 l 253 439 l 253 117 l 747 117 l 747 0 l 114 0 m 600 1208 q 611 1253 600 1236 q 638 1282 622 1271 q 665 1304 653 1293 q 676 1331 676 1315 q 621 1356 676 1356 q 581 1352 601 1356 q 538 1339 560 1349 l 518 1397 q 575 1416 544 1410 q 646 1422 606 1422 q 740 1403 707 1422 q 774 1351 774 1383 q 760 1308 774 1325 q 728 1277 746 1290 q 696 1249 710 1264 q 682 1208 682 1233 l 600 1208 m 236 1063 l 389 1288 l 517 1288 l 669 1063 l 576 1063 l 453 1206 l 329 1063 l 236 1063 z "},"Ễ":{"ha":818,"x_min":114,"x_max":747,"o":"m 114 0 l 114 979 l 747 979 l 747 863 l 253 863 l 253 556 l 718 556 l 718 439 l 253 439 l 253 117 l 747 117 l 747 0 l 114 0 m 294 1281 l 225 1283 q 267 1393 229 1357 q 363 1429 306 1429 q 411 1419 388 1429 q 467 1390 435 1410 q 510 1368 493 1375 q 540 1361 526 1361 q 611 1431 599 1361 l 681 1426 q 639 1318 676 1354 q 544 1282 601 1282 q 494 1292 518 1282 q 438 1321 469 1301 q 397 1342 413 1336 q 367 1349 381 1349 q 319 1333 335 1349 q 294 1281 303 1317 m 236 1063 l 389 1247 l 517 1247 l 669 1063 l 581 1063 l 453 1172 l 328 1063 l 236 1063 z "},"Ȅ":{"ha":818,"x_min":114,"x_max":747,"o":"m 114 0 l 114 979 l 747 979 l 747 863 l 253 863 l 253 556 l 718 556 l 718 439 l 253 439 l 253 117 l 747 117 l 747 0 l 114 0 m 507 1063 l 338 1303 l 469 1303 l 588 1063 l 507 1063 m 319 1063 l 140 1303 l 272 1303 l 399 1063 l 319 1063 z "},"Ë":{"ha":818,"x_min":114,"x_max":747,"o":"m 114 0 l 114 979 l 747 979 l 747 863 l 253 863 l 253 556 l 718 556 l 718 439 l 253 439 l 253 117 l 747 117 l 747 0 l 114 0 m 508 1110 l 508 1247 l 647 1247 l 647 1110 l 508 1110 m 258 1110 l 258 1247 l 397 1247 l 397 1110 l 258 1110 z "},"Ė":{"ha":818,"x_min":114,"x_max":747,"o":"m 114 0 l 114 979 l 747 979 l 747 863 l 253 863 l 253 556 l 718 556 l 718 439 l 253 439 l 253 117 l 747 117 l 747 0 l 114 0 m 381 1113 l 381 1253 l 525 1253 l 525 1113 l 381 1113 z "},"Ẹ":{"ha":818,"x_min":114,"x_max":747,"o":"m 114 0 l 114 979 l 747 979 l 747 863 l 253 863 l 253 556 l 718 556 l 718 439 l 253 439 l 253 117 l 747 117 l 747 0 l 114 0 m 379 -271 l 379 -131 l 526 -131 l 526 -271 l 379 -271 z "},"È":{"ha":818,"x_min":114,"x_max":747,"o":"m 114 0 l 114 979 l 747 979 l 747 863 l 253 863 l 253 556 l 718 556 l 718 439 l 253 439 l 253 117 l 747 117 l 747 0 l 114 0 m 401 1063 l 189 1303 l 340 1303 l 504 1063 l 401 1063 z "},"Ẻ":{"ha":818,"x_min":114,"x_max":747,"o":"m 114 0 l 114 979 l 747 979 l 747 863 l 253 863 l 253 556 l 718 556 l 718 439 l 253 439 l 253 117 l 747 117 l 747 0 l 114 0 m 407 1063 l 407 1086 q 420 1129 407 1113 q 449 1158 433 1146 q 478 1181 465 1169 q 490 1207 490 1192 q 431 1236 490 1236 q 344 1218 388 1236 l 322 1283 q 461 1311 378 1311 q 564 1288 526 1311 q 601 1225 601 1265 q 585 1177 601 1194 q 549 1147 569 1160 q 514 1119 529 1133 q 499 1078 499 1104 l 499 1063 l 407 1063 z "},"Ȇ":{"ha":818,"x_min":114,"x_max":747,"o":"m 114 0 l 114 979 l 747 979 l 747 863 l 253 863 l 253 556 l 718 556 l 718 439 l 253 439 l 253 117 l 747 117 l 747 0 l 114 0 m 293 1056 l 210 1067 q 285 1238 218 1175 q 453 1301 351 1301 q 622 1238 556 1301 q 696 1067 688 1175 l 613 1056 q 565 1172 607 1131 q 453 1214 522 1214 q 342 1172 383 1214 q 293 1056 300 1131 z "},"Ē":{"ha":818,"x_min":114,"x_max":747,"o":"m 114 0 l 114 979 l 747 979 l 747 863 l 253 863 l 253 556 l 718 556 l 718 439 l 253 439 l 253 117 l 747 117 l 747 0 l 114 0 m 221 1126 l 221 1214 l 686 1214 l 686 1126 l 221 1126 z "},"Ḗ":{"ha":818,"x_min":114,"x_max":747,"o":"m 114 0 l 114 979 l 747 979 l 747 863 l 253 863 l 253 556 l 718 556 l 718 439 l 253 439 l 253 117 l 747 117 l 747 0 l 114 0 m 407 1232 l 518 1424 l 658 1424 l 499 1232 l 407 1232 m 242 1093 l 242 1181 l 665 1181 l 665 1093 l 242 1093 z "},"Ḕ":{"ha":818,"x_min":114,"x_max":747,"o":"m 114 0 l 114 979 l 747 979 l 747 863 l 253 863 l 253 556 l 718 556 l 718 439 l 253 439 l 253 117 l 747 117 l 747 0 l 114 0 m 407 1232 l 247 1424 l 388 1424 l 499 1232 l 407 1232 m 242 1093 l 242 1181 l 665 1181 l 665 1093 l 242 1093 z "},"Ę":{"ha":818,"x_min":114,"x_max":775,"o":"m 114 0 l 114 979 l 747 979 l 747 863 l 253 863 l 253 556 l 718 556 l 718 439 l 253 439 l 253 117 l 747 117 l 747 0 l 114 0 m 661 -269 q 549 -231 590 -269 q 507 -129 507 -193 q 544 -24 507 -72 q 644 54 581 25 l 689 0 q 628 -44 656 -14 q 601 -114 601 -74 q 624 -170 601 -151 q 681 -189 646 -189 q 754 -172 714 -189 l 775 -246 q 661 -269 728 -269 z "},"Ẽ":{"ha":818,"x_min":114,"x_max":751,"o":"m 114 0 l 114 979 l 747 979 l 747 863 l 253 863 l 253 556 l 718 556 l 718 439 l 253 439 l 253 117 l 747 117 l 747 0 l 114 0 m 228 1081 l 154 1085 q 210 1229 163 1179 q 329 1279 257 1279 q 396 1266 363 1279 q 472 1226 429 1253 q 540 1190 517 1199 q 581 1181 563 1181 q 678 1285 660 1181 l 751 1279 q 697 1135 744 1186 q 578 1085 649 1085 q 509 1099 544 1085 q 431 1140 474 1114 q 368 1175 392 1165 q 325 1185 344 1185 q 228 1081 247 1185 z "},"F":{"ha":769,"x_min":114,"x_max":736,"o":"m 114 0 l 114 979 l 736 979 l 736 863 l 258 863 l 258 550 l 707 550 l 707 433 l 258 433 l 258 0 l 114 0 z "},"G":{"ha":1015,"x_min":81,"x_max":908,"o":"m 572 -12 q 303 48 413 -12 q 137 221 193 108 q 81 489 81 333 q 138 756 81 643 q 303 931 194 869 q 563 992 411 992 q 756 961 667 992 q 904 874 844 931 l 853 761 q 717 841 786 817 q 563 865 647 865 q 315 767 400 865 q 231 489 231 669 q 317 208 231 304 q 578 113 404 113 q 788 147 683 113 l 788 410 l 549 410 l 549 518 l 908 518 l 908 57 q 753 7 846 26 q 572 -12 661 -12 z "},"Ğ":{"ha":1015,"x_min":81,"x_max":908,"o":"m 572 -12 q 303 48 413 -12 q 137 221 193 108 q 81 489 81 333 q 138 756 81 643 q 303 931 194 869 q 563 992 411 992 q 756 961 667 992 q 904 874 844 931 l 853 761 q 717 841 786 817 q 563 865 647 865 q 315 767 400 865 q 231 489 231 669 q 317 208 231 304 q 578 113 404 113 q 788 147 683 113 l 788 410 l 549 410 l 549 518 l 908 518 l 908 57 q 753 7 846 26 q 572 -12 661 -12 m 550 1056 q 382 1119 449 1056 q 307 1290 315 1182 l 390 1301 q 439 1185 397 1226 q 550 1144 481 1144 q 662 1185 619 1144 q 710 1301 704 1226 l 793 1290 q 719 1119 785 1182 q 550 1056 653 1056 z "},"Ǧ":{"ha":1015,"x_min":81,"x_max":908,"o":"m 572 -12 q 303 48 413 -12 q 137 221 193 108 q 81 489 81 333 q 138 756 81 643 q 303 931 194 869 q 563 992 411 992 q 756 961 667 992 q 904 874 844 931 l 853 761 q 717 841 786 817 q 563 865 647 865 q 315 767 400 865 q 231 489 231 669 q 317 208 231 304 q 578 113 404 113 q 788 147 683 113 l 788 410 l 549 410 l 549 518 l 908 518 l 908 57 q 753 7 846 26 q 572 -12 661 -12 m 488 1063 l 317 1303 l 418 1303 l 550 1147 l 682 1303 l 783 1303 l 613 1063 l 488 1063 z "},"Ĝ":{"ha":1015,"x_min":81,"x_max":908,"o":"m 572 -12 q 303 48 413 -12 q 137 221 193 108 q 81 489 81 333 q 138 756 81 643 q 303 931 194 869 q 563 992 411 992 q 756 961 667 992 q 904 874 844 931 l 853 761 q 717 841 786 817 q 563 865 647 865 q 315 767 400 865 q 231 489 231 669 q 317 208 231 304 q 578 113 404 113 q 788 147 683 113 l 788 410 l 549 410 l 549 518 l 908 518 l 908 57 q 753 7 846 26 q 572 -12 661 -12 m 317 1063 l 488 1303 l 613 1303 l 783 1063 l 682 1063 l 550 1218 l 418 1063 l 317 1063 z "},"Ģ":{"ha":1015,"x_min":81,"x_max":908,"o":"m 572 -12 q 303 48 413 -12 q 137 221 193 108 q 81 489 81 333 q 138 756 81 643 q 303 931 194 869 q 563 992 411 992 q 756 961 667 992 q 904 874 844 931 l 853 761 q 717 841 786 817 q 563 865 647 865 q 315 767 400 865 q 231 489 231 669 q 317 208 231 304 q 578 113 404 113 q 788 147 683 113 l 788 410 l 549 410 l 549 518 l 908 518 l 908 57 q 753 7 846 26 q 572 -12 661 -12 m 563 -379 l 506 -339 q 544 -286 532 -311 q 558 -233 556 -261 l 482 -233 l 482 -107 l 638 -107 l 638 -194 q 620 -295 638 -249 q 563 -379 603 -342 z "},"Ġ":{"ha":1015,"x_min":81,"x_max":908,"o":"m 572 -12 q 303 48 413 -12 q 137 221 193 108 q 81 489 81 333 q 138 756 81 643 q 303 931 194 869 q 563 992 411 992 q 756 961 667 992 q 904 874 844 931 l 853 761 q 717 841 786 817 q 563 865 647 865 q 315 767 400 865 q 231 489 231 669 q 317 208 231 304 q 578 113 404 113 q 788 147 683 113 l 788 410 l 549 410 l 549 518 l 908 518 l 908 57 q 753 7 846 26 q 572 -12 661 -12 m 478 1113 l 478 1253 l 622 1253 l 622 1113 l 478 1113 z "},"Ḡ":{"ha":1015,"x_min":81,"x_max":908,"o":"m 572 -12 q 303 48 413 -12 q 137 221 193 108 q 81 489 81 333 q 138 756 81 643 q 303 931 194 869 q 563 992 411 992 q 756 961 667 992 q 904 874 844 931 l 853 761 q 717 841 786 817 q 563 865 647 865 q 315 767 400 865 q 231 489 231 669 q 317 208 231 304 q 578 113 404 113 q 788 147 683 113 l 788 410 l 549 410 l 549 518 l 908 518 l 908 57 q 753 7 846 26 q 572 -12 661 -12 m 318 1126 l 318 1214 l 783 1214 l 783 1126 l 318 1126 z "},"H":{"ha":1065,"x_min":114,"x_max":950,"o":"m 114 0 l 114 979 l 258 979 l 258 557 l 807 557 l 807 979 l 950 979 l 950 0 l 807 0 l 807 436 l 258 436 l 258 0 l 114 0 z "},"Ħ":{"ha":1121,"x_min":19,"x_max":1100,"o":"m 142 0 l 142 717 l 19 717 l 19 824 l 142 824 l 142 979 l 286 979 l 286 824 l 835 824 l 835 979 l 978 979 l 978 824 l 1100 824 l 1100 717 l 978 717 l 978 0 l 835 0 l 835 426 l 286 426 l 286 0 l 142 0 m 286 547 l 835 547 l 835 717 l 286 717 l 286 547 z "},"Ḫ":{"ha":1065,"x_min":114,"x_max":950,"o":"m 114 0 l 114 979 l 258 979 l 258 557 l 807 557 l 807 979 l 950 979 l 950 0 l 807 0 l 807 436 l 258 436 l 258 0 l 114 0 m 533 -299 q 376 -242 436 -299 q 311 -89 317 -186 l 394 -81 q 436 -176 400 -142 q 533 -211 472 -211 q 631 -176 594 -211 q 672 -81 667 -142 l 756 -89 q 691 -242 751 -186 q 533 -299 631 -299 z "},"Ĥ":{"ha":1065,"x_min":114,"x_max":950,"o":"m 114 0 l 114 979 l 258 979 l 258 557 l 807 557 l 807 979 l 950 979 l 950 0 l 807 0 l 807 436 l 258 436 l 258 0 l 114 0 m 299 1063 l 469 1303 l 594 1303 l 765 1063 l 664 1063 l 532 1218 l 400 1063 l 299 1063 z "},"Ḥ":{"ha":1065,"x_min":114,"x_max":950,"o":"m 114 0 l 114 979 l 258 979 l 258 557 l 807 557 l 807 979 l 950 979 l 950 0 l 807 0 l 807 436 l 258 436 l 258 0 l 114 0 m 460 -271 l 460 -131 l 607 -131 l 607 -271 l 460 -271 z "},"I":{"ha":371,"x_min":114,"x_max":258,"o":"m 114 0 l 114 979 l 258 979 l 258 0 l 114 0 z "},"Ĳ":{"ha":842,"x_min":114,"x_max":726,"o":"m 114 0 l 114 979 l 258 979 l 258 0 l 114 0 m 368 -11 l 357 107 l 447 113 q 583 268 583 124 l 583 979 l 726 979 l 726 268 q 661 72 726 142 q 468 -6 596 3 l 368 -11 z "},"Í":{"ha":371,"x_min":114,"x_max":450,"o":"m 114 0 l 114 979 l 258 979 l 258 0 l 114 0 m 135 1063 l 299 1303 l 450 1303 l 238 1063 l 135 1063 z "},"Ĭ":{"ha":371,"x_min":-57,"x_max":429,"o":"m 114 0 l 114 979 l 258 979 l 258 0 l 114 0 m 186 1056 q 18 1119 85 1056 q -57 1290 -49 1182 l 26 1301 q 75 1185 33 1226 q 186 1144 117 1144 q 298 1185 256 1144 q 346 1301 340 1226 l 429 1290 q 355 1119 421 1182 q 186 1056 289 1056 z "},"Î":{"ha":371,"x_min":-47,"x_max":419,"o":"m 114 0 l 114 979 l 258 979 l 258 0 l 114 0 m -47 1063 l 124 1303 l 249 1303 l 419 1063 l 318 1063 l 186 1218 l 54 1063 l -47 1063 z "},"Ȉ":{"ha":371,"x_min":-126,"x_max":321,"o":"m 114 0 l 114 979 l 258 979 l 258 0 l 114 0 m 240 1063 l 71 1303 l 203 1303 l 321 1063 l 240 1063 m 53 1063 l -126 1303 l 6 1303 l 132 1063 l 53 1063 z "},"Ï":{"ha":371,"x_min":-8,"x_max":381,"o":"m 114 0 l 114 979 l 258 979 l 258 0 l 114 0 m 242 1110 l 242 1247 l 381 1247 l 381 1110 l 242 1110 m -8 1110 l -8 1247 l 131 1247 l 131 1110 l -8 1110 z "},"Ḯ":{"ha":371,"x_min":-8,"x_max":392,"o":"m 114 0 l 114 979 l 258 979 l 258 0 l 114 0 m 140 1232 l 251 1424 l 392 1424 l 232 1232 l 140 1232 m -8 1069 l -8 1181 l 131 1181 l 131 1069 l -8 1069 m 242 1069 l 242 1181 l 381 1181 l 381 1069 l 242 1069 z "},"İ":{"ha":371,"x_min":114,"x_max":258,"o":"m 114 0 l 114 979 l 258 979 l 258 0 l 114 0 m 114 1113 l 114 1253 l 258 1253 l 258 1113 l 114 1113 z "},"Ị":{"ha":371,"x_min":113,"x_max":260,"o":"m 114 0 l 114 979 l 258 979 l 258 0 l 114 0 m 113 -271 l 113 -131 l 260 -131 l 260 -271 l 113 -271 z "},"Ì":{"ha":371,"x_min":-78,"x_max":258,"o":"m 114 0 l 114 979 l 258 979 l 258 0 l 114 0 m 135 1063 l -78 1303 l 74 1303 l 238 1063 l 135 1063 z "},"Ỉ":{"ha":371,"x_min":56,"x_max":335,"o":"m 114 0 l 114 979 l 258 979 l 258 0 l 114 0 m 140 1063 l 140 1086 q 153 1129 140 1113 q 183 1158 167 1146 q 211 1181 199 1169 q 224 1207 224 1192 q 164 1236 224 1236 q 78 1218 121 1236 l 56 1283 q 194 1311 111 1311 q 297 1288 260 1311 q 335 1225 335 1265 q 319 1177 335 1194 q 283 1147 303 1160 q 247 1119 263 1133 q 232 1078 232 1104 l 232 1063 l 140 1063 z "},"Ȋ":{"ha":371,"x_min":-57,"x_max":429,"o":"m 114 0 l 114 979 l 258 979 l 258 0 l 114 0 m 26 1056 l -57 1067 q 18 1238 -49 1175 q 186 1301 85 1301 q 355 1238 289 1301 q 429 1067 421 1175 l 346 1056 q 298 1172 340 1131 q 186 1214 256 1214 q 75 1172 117 1214 q 26 1056 33 1131 z "},"Ī":{"ha":371,"x_min":-46,"x_max":419,"o":"m 114 0 l 114 979 l 258 979 l 258 0 l 114 0 m -46 1126 l -46 1214 l 419 1214 l 419 1126 l -46 1126 z "},"Į":{"ha":371,"x_min":49,"x_max":317,"o":"m 114 0 l 114 979 l 258 979 l 258 0 l 114 0 m 203 -269 q 90 -231 132 -269 q 49 -129 49 -193 q 85 -24 49 -72 q 186 54 122 25 l 231 0 q 170 -44 197 -14 q 143 -114 143 -74 q 165 -170 143 -151 q 222 -189 188 -189 q 296 -172 256 -189 l 317 -246 q 203 -269 269 -269 z "},"Ĩ":{"ha":371,"x_min":-112,"x_max":485,"o":"m 114 0 l 114 979 l 258 979 l 258 0 l 114 0 m -39 1081 l -112 1085 q -57 1229 -104 1179 q 63 1279 -10 1279 q 129 1266 96 1279 q 206 1226 163 1253 q 273 1190 250 1199 q 314 1181 296 1181 q 411 1285 393 1181 l 485 1279 q 430 1135 478 1186 q 311 1085 382 1085 q 242 1099 278 1085 q 164 1140 207 1114 q 101 1175 125 1165 q 58 1185 78 1185 q -39 1081 -19 1185 z "},"J":{"ha":469,"x_min":-14,"x_max":356,"o":"m -3 -11 l -14 107 l 76 113 q 213 268 213 124 l 213 979 l 356 979 l 356 268 q 290 72 356 142 q 97 -6 225 3 l -3 -11 z "},"Ĵ":{"ha":469,"x_min":-14,"x_max":515,"o":"m -3 -11 l -14 107 l 76 113 q 213 268 213 124 l 213 979 l 356 979 l 356 268 q 290 72 356 142 q 97 -6 225 3 l -3 -11 m 49 1063 l 219 1303 l 344 1303 l 515 1063 l 414 1063 l 282 1218 l 150 1063 l 49 1063 z "},"K":{"ha":893,"x_min":114,"x_max":921,"o":"m 114 0 l 114 979 l 258 979 l 258 539 l 261 539 l 715 979 l 893 979 l 399 506 l 921 0 l 740 0 l 261 457 l 258 457 l 258 0 l 114 0 z "},"Ķ":{"ha":893,"x_min":114,"x_max":921,"o":"m 114 0 l 114 979 l 258 979 l 258 539 l 261 539 l 715 979 l 893 979 l 399 506 l 921 0 l 740 0 l 261 457 l 258 457 l 258 0 l 114 0 m 451 -379 l 394 -339 q 433 -286 421 -311 q 447 -233 444 -261 l 371 -233 l 371 -107 l 526 -107 l 526 -194 q 509 -295 526 -249 q 451 -379 492 -342 z "},"L":{"ha":767,"x_min":114,"x_max":743,"o":"m 114 0 l 114 979 l 258 979 l 258 124 l 743 124 l 743 0 l 114 0 z "},"Ǉ":{"ha":1292,"x_min":114,"x_max":1178,"o":"m 114 0 l 114 979 l 258 979 l 258 124 l 743 124 l 743 0 l 114 0 m 819 -11 l 808 107 l 899 113 q 1035 268 1035 124 l 1035 979 l 1178 979 l 1178 268 q 1113 72 1178 142 q 919 -6 1047 3 l 819 -11 z "},"Ĺ":{"ha":767,"x_min":114,"x_max":743,"o":"m 114 0 l 114 979 l 258 979 l 258 124 l 743 124 l 743 0 l 114 0 m 135 1063 l 299 1303 l 450 1303 l 238 1063 l 135 1063 z "},"Ľ":{"ha":767,"x_min":114,"x_max":743,"o":"m 114 0 l 114 979 l 258 979 l 258 124 l 743 124 l 743 0 l 114 0 m 411 660 l 411 979 l 526 979 l 496 660 l 411 660 z "},"Ļ":{"ha":767,"x_min":114,"x_max":743,"o":"m 114 0 l 114 979 l 258 979 l 258 124 l 743 124 l 743 0 l 114 0 m 432 -379 l 375 -339 q 413 -286 401 -311 q 428 -233 425 -261 l 351 -233 l 351 -107 l 507 -107 l 507 -194 q 490 -295 507 -249 q 432 -379 472 -342 z "},"Ŀ":{"ha":767,"x_min":114,"x_max":743,"o":"m 114 0 l 114 979 l 258 979 l 258 124 l 743 124 l 743 0 l 114 0 m 490 468 l 490 617 l 657 617 l 657 468 l 490 468 z "},"Ḷ":{"ha":767,"x_min":114,"x_max":743,"o":"m 114 0 l 114 979 l 258 979 l 258 124 l 743 124 l 743 0 l 114 0 m 356 -271 l 356 -131 l 503 -131 l 503 -271 l 356 -271 z "},"ǈ":{"ha":1108,"x_min":114,"x_max":1022,"o":"m 114 0 l 114 979 l 258 979 l 258 124 l 743 124 l 743 0 l 114 0 m 858 835 l 858 981 l 1022 981 l 1022 835 l 858 835 m 700 -268 l 690 -162 l 751 -157 q 869 -15 869 -144 l 869 678 l 1010 678 l 1010 0 q 951 -191 1010 -128 q 760 -264 892 -254 l 700 -268 z "},"Ḻ":{"ha":767,"x_min":114,"x_max":743,"o":"m 114 0 l 114 979 l 258 979 l 258 124 l 743 124 l 743 0 l 114 0 m 218 -222 l 218 -133 l 642 -133 l 642 -222 l 218 -222 z "},"Ł":{"ha":767,"x_min":-42,"x_max":743,"o":"m 114 0 l 114 979 l 258 979 l 258 124 l 743 124 l 743 0 l 114 0 m 14 338 l -42 435 l 483 738 l 539 640 l 14 338 z "},"M":{"ha":1196,"x_min":117,"x_max":1079,"o":"m 117 0 l 117 979 l 238 979 l 600 303 l 961 979 l 1079 979 l 1079 0 l 950 0 l 950 718 l 643 150 l 556 150 l 247 715 l 247 0 l 117 0 z "},"Ṃ":{"ha":1196,"x_min":117,"x_max":1079,"o":"m 117 0 l 117 979 l 238 979 l 600 303 l 961 979 l 1079 979 l 1079 0 l 950 0 l 950 718 l 643 150 l 556 150 l 247 715 l 247 0 l 117 0 m 525 -271 l 525 -131 l 672 -131 l 672 -271 l 525 -271 z "},"N":{"ha":1032,"x_min":114,"x_max":918,"o":"m 114 0 l 114 979 l 224 979 l 785 239 l 785 979 l 918 979 l 918 0 l 811 0 l 247 743 l 247 0 l 114 0 z "},"Ǌ":{"ha":1503,"x_min":114,"x_max":1388,"o":"m 114 0 l 114 979 l 224 979 l 785 239 l 785 979 l 918 979 l 918 0 l 811 0 l 247 743 l 247 0 l 114 0 m 1029 -11 l 1018 107 l 1108 113 q 1244 268 1244 124 l 1244 979 l 1388 979 l 1388 268 q 1322 72 1388 142 q 1129 -6 1257 3 l 1029 -11 z "},"Ń":{"ha":1032,"x_min":114,"x_max":918,"o":"m 114 0 l 114 979 l 224 979 l 785 239 l 785 979 l 918 979 l 918 0 l 811 0 l 247 743 l 247 0 l 114 0 m 465 1063 l 629 1303 l 781 1303 l 568 1063 l 465 1063 z "},"Ň":{"ha":1032,"x_min":114,"x_max":918,"o":"m 114 0 l 114 979 l 224 979 l 785 239 l 785 979 l 918 979 l 918 0 l 811 0 l 247 743 l 247 0 l 114 0 m 454 1063 l 283 1303 l 385 1303 l 517 1147 l 649 1303 l 750 1303 l 579 1063 l 454 1063 z "},"Ņ":{"ha":1032,"x_min":114,"x_max":918,"o":"m 114 0 l 114 979 l 224 979 l 785 239 l 785 979 l 918 979 l 918 0 l 811 0 l 247 743 l 247 0 l 114 0 m 519 -379 l 463 -339 q 501 -286 489 -311 q 515 -233 513 -261 l 439 -233 l 439 -107 l 594 -107 l 594 -194 q 577 -295 594 -249 q 519 -379 560 -342 z "},"Ṅ":{"ha":1032,"x_min":114,"x_max":918,"o":"m 114 0 l 114 979 l 224 979 l 785 239 l 785 979 l 918 979 l 918 0 l 811 0 l 247 743 l 247 0 l 114 0 m 444 1113 l 444 1253 l 589 1253 l 589 1113 l 444 1113 z "},"Ṇ":{"ha":1032,"x_min":114,"x_max":918,"o":"m 114 0 l 114 979 l 224 979 l 785 239 l 785 979 l 918 979 l 918 0 l 811 0 l 247 743 l 247 0 l 114 0 m 443 -271 l 443 -131 l 590 -131 l 590 -271 l 443 -271 z "},"Ŋ":{"ha":1032,"x_min":114,"x_max":918,"o":"m 607 -268 l 599 -162 l 663 -157 q 785 -15 785 -144 l 785 33 l 247 743 l 247 0 l 114 0 l 114 979 l 224 979 l 785 239 l 785 979 l 918 979 l 918 0 q 858 -191 918 -128 q 668 -264 799 -254 l 607 -268 z "},"ǋ":{"ha":1375,"x_min":114,"x_max":1288,"o":"m 114 0 l 114 979 l 224 979 l 785 239 l 785 979 l 918 979 l 918 0 l 811 0 l 247 743 l 247 0 l 114 0 m 1124 835 l 1124 981 l 1288 981 l 1288 835 l 1124 835 m 965 -268 l 956 -162 l 1017 -157 q 1135 -15 1135 -144 l 1135 678 l 1275 678 l 1275 0 q 1216 -191 1275 -128 q 1025 -264 1157 -254 l 965 -268 z "},"Ṉ":{"ha":1032,"x_min":114,"x_max":918,"o":"m 114 0 l 114 979 l 224 979 l 785 239 l 785 979 l 918 979 l 918 0 l 811 0 l 247 743 l 247 0 l 114 0 m 306 -222 l 306 -133 l 729 -133 l 729 -222 l 306 -222 z "},"Ñ":{"ha":1032,"x_min":114,"x_max":918,"o":"m 114 0 l 114 979 l 224 979 l 785 239 l 785 979 l 918 979 l 918 0 l 811 0 l 247 743 l 247 0 l 114 0 m 292 1081 l 218 1085 q 274 1229 226 1179 q 393 1279 321 1279 q 460 1266 426 1279 q 536 1226 493 1253 q 603 1190 581 1199 q 644 1181 626 1181 q 742 1285 724 1181 l 815 1279 q 760 1135 808 1186 q 642 1085 713 1085 q 573 1099 608 1085 q 494 1140 538 1114 q 432 1175 456 1165 q 389 1185 408 1185 q 292 1081 311 1185 z "},"O":{"ha":1076,"x_min":81,"x_max":997,"o":"m 539 -12 q 296 49 399 -12 q 137 224 193 111 q 81 490 81 338 q 137 757 81 644 q 296 931 193 869 q 539 992 399 992 q 781 931 678 992 q 941 757 885 869 q 997 492 997 644 q 941 224 997 338 q 781 49 885 111 q 539 -12 678 -12 m 539 113 q 766 212 685 113 q 847 490 847 311 q 767 768 847 669 q 539 867 686 867 q 312 768 393 867 q 231 490 231 669 q 312 212 231 311 q 539 113 393 113 z "},"Ó":{"ha":1076,"x_min":81,"x_max":997,"o":"m 539 -12 q 296 49 399 -12 q 137 224 193 111 q 81 490 81 338 q 137 757 81 644 q 296 931 193 869 q 539 992 399 992 q 781 931 678 992 q 941 757 885 869 q 997 492 997 644 q 941 224 997 338 q 781 49 885 111 q 539 -12 678 -12 m 539 113 q 766 212 685 113 q 847 490 847 311 q 767 768 847 669 q 539 867 686 867 q 312 768 393 867 q 231 490 231 669 q 312 212 231 311 q 539 113 393 113 m 486 1063 l 650 1303 l 801 1303 l 589 1063 l 486 1063 z "},"Ŏ":{"ha":1076,"x_min":81,"x_max":997,"o":"m 539 -12 q 296 49 399 -12 q 137 224 193 111 q 81 490 81 338 q 137 757 81 644 q 296 931 193 869 q 539 992 399 992 q 781 931 678 992 q 941 757 885 869 q 997 492 997 644 q 941 224 997 338 q 781 49 885 111 q 539 -12 678 -12 m 539 113 q 766 212 685 113 q 847 490 847 311 q 767 768 847 669 q 539 867 686 867 q 312 768 393 867 q 231 490 231 669 q 312 212 231 311 q 539 113 393 113 m 538 1056 q 369 1119 436 1056 q 294 1290 303 1182 l 378 1301 q 426 1185 385 1226 q 538 1144 468 1144 q 649 1185 607 1144 q 697 1301 692 1226 l 781 1290 q 706 1119 772 1182 q 538 1056 640 1056 z "},"Ô":{"ha":1076,"x_min":81,"x_max":997,"o":"m 539 -12 q 296 49 399 -12 q 137 224 193 111 q 81 490 81 338 q 137 757 81 644 q 296 931 193 869 q 539 992 399 992 q 781 931 678 992 q 941 757 885 869 q 997 492 997 644 q 941 224 997 338 q 781 49 885 111 q 539 -12 678 -12 m 539 113 q 766 212 685 113 q 847 490 847 311 q 767 768 847 669 q 539 867 686 867 q 312 768 393 867 q 231 490 231 669 q 312 212 231 311 q 539 113 393 113 m 304 1063 l 475 1303 l 600 1303 l 771 1063 l 669 1063 l 538 1218 l 406 1063 l 304 1063 z "},"Ố":{"ha":1076,"x_min":81,"x_max":997,"o":"m 539 -12 q 296 49 399 -12 q 137 224 193 111 q 81 490 81 338 q 137 757 81 644 q 296 931 193 869 q 539 992 399 992 q 781 931 678 992 q 941 757 885 869 q 997 492 997 644 q 941 224 997 338 q 781 49 885 111 q 539 -12 678 -12 m 539 113 q 766 212 685 113 q 847 490 847 311 q 767 768 847 669 q 539 867 686 867 q 312 768 393 867 q 231 490 231 669 q 312 212 231 311 q 539 113 393 113 m 678 1208 l 796 1417 l 921 1417 l 763 1208 l 678 1208 m 321 1063 l 474 1288 l 601 1288 l 754 1063 l 661 1063 l 538 1206 l 414 1063 l 321 1063 z "},"Ộ":{"ha":1076,"x_min":81,"x_max":997,"o":"m 539 -12 q 296 49 399 -12 q 137 224 193 111 q 81 490 81 338 q 137 757 81 644 q 296 931 193 869 q 539 992 399 992 q 781 931 678 992 q 941 757 885 869 q 997 492 997 644 q 941 224 997 338 q 781 49 885 111 q 539 -12 678 -12 m 539 113 q 766 212 685 113 q 847 490 847 311 q 767 768 847 669 q 539 867 686 867 q 312 768 393 867 q 231 490 231 669 q 312 212 231 311 q 539 113 393 113 m 464 -271 l 464 -131 l 611 -131 l 611 -271 l 464 -271 m 304 1063 l 475 1303 l 600 1303 l 771 1063 l 669 1063 l 538 1218 l 406 1063 l 304 1063 z "},"Ồ":{"ha":1076,"x_min":81,"x_max":997,"o":"m 539 -12 q 296 49 399 -12 q 137 224 193 111 q 81 490 81 338 q 137 757 81 644 q 296 931 193 869 q 539 992 399 992 q 781 931 678 992 q 941 757 885 869 q 997 492 997 644 q 941 224 997 338 q 781 49 885 111 q 539 -12 678 -12 m 539 113 q 766 212 685 113 q 847 490 847 311 q 767 768 847 669 q 539 867 686 867 q 312 768 393 867 q 231 490 231 669 q 312 212 231 311 q 539 113 393 113 m 732 1208 l 575 1417 l 700 1417 l 818 1208 l 732 1208 m 321 1063 l 474 1288 l 601 1288 l 754 1063 l 661 1063 l 538 1206 l 414 1063 l 321 1063 z "},"Ổ":{"ha":1076,"x_min":81,"x_max":997,"o":"m 539 -12 q 296 49 399 -12 q 137 224 193 111 q 81 490 81 338 q 137 757 81 644 q 296 931 193 869 q 539 992 399 992 q 781 931 678 992 q 941 757 885 869 q 997 492 997 644 q 941 224 997 338 q 781 49 885 111 q 539 -12 678 -12 m 539 113 q 766 212 685 113 q 847 490 847 311 q 767 768 847 669 q 539 867 686 867 q 312 768 393 867 q 231 490 231 669 q 312 212 231 311 q 539 113 393 113 m 685 1208 q 696 1253 685 1236 q 722 1282 707 1271 q 749 1304 738 1293 q 761 1331 761 1315 q 706 1356 761 1356 q 665 1352 686 1356 q 622 1339 644 1349 l 603 1397 q 660 1416 629 1410 q 731 1422 690 1422 q 825 1403 792 1422 q 858 1351 858 1383 q 844 1308 858 1325 q 813 1277 831 1290 q 781 1249 794 1264 q 767 1208 767 1233 l 685 1208 m 321 1063 l 474 1288 l 601 1288 l 754 1063 l 661 1063 l 538 1206 l 414 1063 l 321 1063 z "},"Ỗ":{"ha":1076,"x_min":81,"x_max":997,"o":"m 539 -12 q 296 49 399 -12 q 137 224 193 111 q 81 490 81 338 q 137 757 81 644 q 296 931 193 869 q 539 992 399 992 q 781 931 678 992 q 941 757 885 869 q 997 492 997 644 q 941 224 997 338 q 781 49 885 111 q 539 -12 678 -12 m 539 113 q 766 212 685 113 q 847 490 847 311 q 767 768 847 669 q 539 867 686 867 q 312 768 393 867 q 231 490 231 669 q 312 212 231 311 q 539 113 393 113 m 379 1281 l 310 1283 q 352 1393 314 1357 q 447 1429 390 1429 q 496 1419 472 1429 q 551 1390 519 1410 q 594 1368 578 1375 q 625 1361 611 1361 q 696 1431 683 1361 l 765 1426 q 724 1318 761 1354 q 629 1282 686 1282 q 578 1292 603 1282 q 522 1321 554 1301 q 481 1342 497 1336 q 451 1349 465 1349 q 403 1333 419 1349 q 379 1281 388 1317 m 321 1063 l 474 1247 l 601 1247 l 754 1063 l 665 1063 l 538 1172 l 413 1063 l 321 1063 z "},"Ȍ":{"ha":1076,"x_min":81,"x_max":997,"o":"m 539 -12 q 296 49 399 -12 q 137 224 193 111 q 81 490 81 338 q 137 757 81 644 q 296 931 193 869 q 539 992 399 992 q 781 931 678 992 q 941 757 885 869 q 997 492 997 644 q 941 224 997 338 q 781 49 885 111 q 539 -12 678 -12 m 539 113 q 766 212 685 113 q 847 490 847 311 q 767 768 847 669 q 539 867 686 867 q 312 768 393 867 q 231 490 231 669 q 312 212 231 311 q 539 113 393 113 m 592 1063 l 422 1303 l 554 1303 l 672 1063 l 592 1063 m 404 1063 l 225 1303 l 357 1303 l 483 1063 l 404 1063 z "},"Ö":{"ha":1076,"x_min":81,"x_max":997,"o":"m 539 -12 q 296 49 399 -12 q 137 224 193 111 q 81 490 81 338 q 137 757 81 644 q 296 931 193 869 q 539 992 399 992 q 781 931 678 992 q 941 757 885 869 q 997 492 997 644 q 941 224 997 338 q 781 49 885 111 q 539 -12 678 -12 m 539 113 q 766 212 685 113 q 847 490 847 311 q 767 768 847 669 q 539 867 686 867 q 312 768 393 867 q 231 490 231 669 q 312 212 231 311 q 539 113 393 113 m 593 1110 l 593 1247 l 732 1247 l 732 1110 l 593 1110 m 343 1110 l 343 1247 l 482 1247 l 482 1110 l 343 1110 z "},"Ȫ":{"ha":1076,"x_min":81,"x_max":997,"o":"m 539 -12 q 296 49 399 -12 q 137 224 193 111 q 81 490 81 338 q 137 757 81 644 q 296 931 193 869 q 539 992 399 992 q 781 931 678 992 q 941 757 885 869 q 997 492 997 644 q 941 224 997 338 q 781 49 885 111 q 539 -12 678 -12 m 539 113 q 766 212 685 113 q 847 490 847 311 q 767 768 847 669 q 539 867 686 867 q 312 768 393 867 q 231 490 231 669 q 312 212 231 311 q 539 113 393 113 m 326 1285 l 326 1372 l 750 1372 l 750 1285 l 326 1285 m 343 1100 l 343 1211 l 482 1211 l 482 1100 l 343 1100 m 593 1100 l 593 1211 l 732 1211 l 732 1100 l 593 1100 z "},"Ȱ":{"ha":1076,"x_min":81,"x_max":997,"o":"m 539 -12 q 296 49 399 -12 q 137 224 193 111 q 81 490 81 338 q 137 757 81 644 q 296 931 193 869 q 539 992 399 992 q 781 931 678 992 q 941 757 885 869 q 997 492 997 644 q 941 224 997 338 q 781 49 885 111 q 539 -12 678 -12 m 539 113 q 766 212 685 113 q 847 490 847 311 q 767 768 847 669 q 539 867 686 867 q 312 768 393 867 q 231 490 231 669 q 312 212 231 311 q 539 113 393 113 m 325 1285 l 325 1372 l 750 1372 l 750 1285 l 325 1285 m 468 1100 l 468 1211 l 607 1211 l 607 1100 l 468 1100 z "},"Ọ":{"ha":1076,"x_min":81,"x_max":997,"o":"m 539 -12 q 296 49 399 -12 q 137 224 193 111 q 81 490 81 338 q 137 757 81 644 q 296 931 193 869 q 539 992 399 992 q 781 931 678 992 q 941 757 885 869 q 997 492 997 644 q 941 224 997 338 q 781 49 885 111 q 539 -12 678 -12 m 539 113 q 766 212 685 113 q 847 490 847 311 q 767 768 847 669 q 539 867 686 867 q 312 768 393 867 q 231 490 231 669 q 312 212 231 311 q 539 113 393 113 m 464 -271 l 464 -131 l 611 -131 l 611 -271 l 464 -271 z "},"Ò":{"ha":1076,"x_min":81,"x_max":997,"o":"m 539 -12 q 296 49 399 -12 q 137 224 193 111 q 81 490 81 338 q 137 757 81 644 q 296 931 193 869 q 539 992 399 992 q 781 931 678 992 q 941 757 885 869 q 997 492 997 644 q 941 224 997 338 q 781 49 885 111 q 539 -12 678 -12 m 539 113 q 766 212 685 113 q 847 490 847 311 q 767 768 847 669 q 539 867 686 867 q 312 768 393 867 q 231 490 231 669 q 312 212 231 311 q 539 113 393 113 m 486 1063 l 274 1303 l 425 1303 l 589 1063 l 486 1063 z "},"Ỏ":{"ha":1076,"x_min":81,"x_max":997,"o":"m 539 -12 q 296 49 399 -12 q 137 224 193 111 q 81 490 81 338 q 137 757 81 644 q 296 931 193 869 q 539 992 399 992 q 781 931 678 992 q 941 757 885 869 q 997 492 997 644 q 941 224 997 338 q 781 49 885 111 q 539 -12 678 -12 m 539 113 q 766 212 685 113 q 847 490 847 311 q 767 768 847 669 q 539 867 686 867 q 312 768 393 867 q 231 490 231 669 q 312 212 231 311 q 539 113 393 113 m 492 1063 l 492 1086 q 505 1129 492 1113 q 534 1158 518 1146 q 563 1181 550 1169 q 575 1207 575 1192 q 515 1236 575 1236 q 429 1218 472 1236 l 407 1283 q 546 1311 463 1311 q 649 1288 611 1311 q 686 1225 686 1265 q 670 1177 686 1194 q 634 1147 654 1160 q 599 1119 614 1133 q 583 1078 583 1104 l 583 1063 l 492 1063 z "},"Ơ":{"ha":1076,"x_min":81,"x_max":997,"o":"m 539 -12 q 296 49 399 -12 q 137 224 193 111 q 81 490 81 338 q 137 757 81 644 q 296 931 193 869 q 539 992 399 992 q 781 931 678 992 q 941 757 885 869 q 997 492 997 644 q 941 224 997 338 q 781 49 885 111 q 539 -12 678 -12 m 539 113 q 766 212 685 113 q 847 490 847 311 q 767 768 847 669 q 539 867 686 867 q 312 768 393 867 q 231 490 231 669 q 312 212 231 311 q 539 113 393 113 m 682 901 l 617 985 q 674 981 646 982 q 724 979 701 979 q 838 1014 806 979 q 869 1132 869 1049 l 869 1157 l 993 1157 l 993 1113 q 939 961 993 1021 q 794 901 885 901 l 682 901 z "},"Ớ":{"ha":1076,"x_min":81,"x_max":997,"o":"m 539 -12 q 296 49 399 -12 q 137 224 193 111 q 81 490 81 338 q 137 757 81 644 q 296 931 193 869 q 539 992 399 992 q 781 931 678 992 q 941 757 885 869 q 997 492 997 644 q 941 224 997 338 q 781 49 885 111 q 539 -12 678 -12 m 539 113 q 766 212 685 113 q 847 490 847 311 q 767 768 847 669 q 539 867 686 867 q 312 768 393 867 q 231 490 231 669 q 312 212 231 311 q 539 113 393 113 m 682 901 l 617 985 q 674 981 646 982 q 724 979 701 979 q 838 1014 806 979 q 869 1132 869 1049 l 869 1157 l 993 1157 l 993 1113 q 939 961 993 1021 q 794 901 885 901 l 682 901 m 483 1063 l 647 1303 l 799 1303 l 586 1063 l 483 1063 z "},"Ợ":{"ha":1076,"x_min":81,"x_max":997,"o":"m 539 -12 q 296 49 399 -12 q 137 224 193 111 q 81 490 81 338 q 137 757 81 644 q 296 931 193 869 q 539 992 399 992 q 781 931 678 992 q 941 757 885 869 q 997 492 997 644 q 941 224 997 338 q 781 49 885 111 q 539 -12 678 -12 m 539 113 q 766 212 685 113 q 847 490 847 311 q 767 768 847 669 q 539 867 686 867 q 312 768 393 867 q 231 490 231 669 q 312 212 231 311 q 539 113 393 113 m 682 901 l 617 985 q 674 981 646 982 q 724 979 701 979 q 838 1014 806 979 q 869 1132 869 1049 l 869 1157 l 993 1157 l 993 1113 q 939 961 993 1021 q 794 901 885 901 l 682 901 m 463 -271 l 463 -131 l 610 -131 l 610 -271 l 463 -271 z "},"Ờ":{"ha":1076,"x_min":81,"x_max":997,"o":"m 539 -12 q 296 49 399 -12 q 137 224 193 111 q 81 490 81 338 q 137 757 81 644 q 296 931 193 869 q 539 992 399 992 q 781 931 678 992 q 941 757 885 869 q 997 492 997 644 q 941 224 997 338 q 781 49 885 111 q 539 -12 678 -12 m 539 113 q 766 212 685 113 q 847 490 847 311 q 767 768 847 669 q 539 867 686 867 q 312 768 393 867 q 231 490 231 669 q 312 212 231 311 q 539 113 393 113 m 682 901 l 617 985 q 674 981 646 982 q 724 979 701 979 q 838 1014 806 979 q 869 1132 869 1049 l 869 1157 l 993 1157 l 993 1113 q 939 961 993 1021 q 794 901 885 901 l 682 901 m 483 1063 l 271 1303 l 422 1303 l 586 1063 l 483 1063 z "},"Ở":{"ha":1076,"x_min":81,"x_max":997,"o":"m 539 -12 q 296 49 399 -12 q 137 224 193 111 q 81 490 81 338 q 137 757 81 644 q 296 931 193 869 q 539 992 399 992 q 781 931 678 992 q 941 757 885 869 q 997 492 997 644 q 941 224 997 338 q 781 49 885 111 q 539 -12 678 -12 m 539 113 q 766 212 685 113 q 847 490 847 311 q 767 768 847 669 q 539 867 686 867 q 312 768 393 867 q 231 490 231 669 q 312 212 231 311 q 539 113 393 113 m 682 901 l 617 985 q 674 981 646 982 q 724 979 701 979 q 838 1014 806 979 q 869 1132 869 1049 l 869 1157 l 993 1157 l 993 1113 q 939 961 993 1021 q 794 901 885 901 l 682 901 m 489 1063 l 489 1086 q 502 1129 489 1113 q 531 1158 515 1146 q 560 1181 547 1169 q 572 1207 572 1192 q 513 1236 572 1236 q 426 1218 469 1236 l 404 1283 q 543 1311 460 1311 q 646 1288 608 1311 q 683 1225 683 1265 q 667 1177 683 1194 q 631 1147 651 1160 q 596 1119 611 1133 q 581 1078 581 1104 l 581 1063 l 489 1063 z "},"Ỡ":{"ha":1076,"x_min":81,"x_max":997,"o":"m 539 -12 q 296 49 399 -12 q 137 224 193 111 q 81 490 81 338 q 137 757 81 644 q 296 931 193 869 q 539 992 399 992 q 781 931 678 992 q 941 757 885 869 q 997 492 997 644 q 941 224 997 338 q 781 49 885 111 q 539 -12 678 -12 m 539 113 q 766 212 685 113 q 847 490 847 311 q 767 768 847 669 q 539 867 686 867 q 312 768 393 867 q 231 490 231 669 q 312 212 231 311 q 539 113 393 113 m 682 901 l 617 985 q 674 981 646 982 q 724 979 701 979 q 838 1014 806 979 q 869 1132 869 1049 l 869 1157 l 993 1157 l 993 1113 q 939 961 993 1021 q 794 901 885 901 l 682 901 m 324 1081 l 250 1085 q 303 1229 257 1179 q 417 1279 349 1279 q 478 1266 450 1279 q 542 1225 506 1253 q 592 1191 572 1201 q 633 1181 611 1181 q 726 1285 708 1181 l 800 1279 q 747 1135 792 1186 q 633 1085 703 1085 q 567 1101 597 1085 q 507 1142 538 1117 q 460 1174 481 1163 q 418 1185 439 1185 q 324 1081 342 1185 z "},"Ő":{"ha":1076,"x_min":81,"x_max":997,"o":"m 539 -12 q 296 49 399 -12 q 137 224 193 111 q 81 490 81 338 q 137 757 81 644 q 296 931 193 869 q 539 992 399 992 q 781 931 678 992 q 941 757 885 869 q 997 492 997 644 q 941 224 997 338 q 781 49 885 111 q 539 -12 678 -12 m 539 113 q 766 212 685 113 q 847 490 847 311 q 767 768 847 669 q 539 867 686 867 q 312 768 393 867 q 231 490 231 669 q 312 212 231 311 q 539 113 393 113 m 404 1063 l 522 1303 l 654 1303 l 483 1063 l 404 1063 m 592 1063 l 719 1303 l 851 1303 l 672 1063 l 592 1063 z "},"Ȏ":{"ha":1076,"x_min":81,"x_max":997,"o":"m 539 -12 q 296 49 399 -12 q 137 224 193 111 q 81 490 81 338 q 137 757 81 644 q 296 931 193 869 q 539 992 399 992 q 781 931 678 992 q 941 757 885 869 q 997 492 997 644 q 941 224 997 338 q 781 49 885 111 q 539 -12 678 -12 m 539 113 q 766 212 685 113 q 847 490 847 311 q 767 768 847 669 q 539 867 686 867 q 312 768 393 867 q 231 490 231 669 q 312 212 231 311 q 539 113 393 113 m 378 1056 l 294 1067 q 369 1238 303 1175 q 538 1301 436 1301 q 706 1238 640 1301 q 781 1067 772 1175 l 697 1056 q 649 1172 692 1131 q 538 1214 607 1214 q 426 1172 468 1214 q 378 1056 385 1131 z "},"Ō":{"ha":1076,"x_min":81,"x_max":997,"o":"m 539 -12 q 296 49 399 -12 q 137 224 193 111 q 81 490 81 338 q 137 757 81 644 q 296 931 193 869 q 539 992 399 992 q 781 931 678 992 q 941 757 885 869 q 997 492 997 644 q 941 224 997 338 q 781 49 885 111 q 539 -12 678 -12 m 539 113 q 766 212 685 113 q 847 490 847 311 q 767 768 847 669 q 539 867 686 867 q 312 768 393 867 q 231 490 231 669 q 312 212 231 311 q 539 113 393 113 m 306 1126 l 306 1214 l 771 1214 l 771 1126 l 306 1126 z "},"Ṓ":{"ha":1076,"x_min":81,"x_max":997,"o":"m 539 -12 q 296 49 399 -12 q 137 224 193 111 q 81 490 81 338 q 137 757 81 644 q 296 931 193 869 q 539 992 399 992 q 781 931 678 992 q 941 757 885 869 q 997 492 997 644 q 941 224 997 338 q 781 49 885 111 q 539 -12 678 -12 m 539 113 q 766 212 685 113 q 847 490 847 311 q 767 768 847 669 q 539 867 686 867 q 312 768 393 867 q 231 490 231 669 q 312 212 231 311 q 539 113 393 113 m 492 1232 l 603 1424 l 743 1424 l 583 1232 l 492 1232 m 326 1093 l 326 1181 l 750 1181 l 750 1093 l 326 1093 z "},"Ṑ":{"ha":1076,"x_min":81,"x_max":997,"o":"m 539 -12 q 296 49 399 -12 q 137 224 193 111 q 81 490 81 338 q 137 757 81 644 q 296 931 193 869 q 539 992 399 992 q 781 931 678 992 q 941 757 885 869 q 997 492 997 644 q 941 224 997 338 q 781 49 885 111 q 539 -12 678 -12 m 539 113 q 766 212 685 113 q 847 490 847 311 q 767 768 847 669 q 539 867 686 867 q 312 768 393 867 q 231 490 231 669 q 312 212 231 311 q 539 113 393 113 m 492 1232 l 332 1424 l 472 1424 l 583 1232 l 492 1232 m 326 1093 l 326 1181 l 750 1181 l 750 1093 l 326 1093 z "},"Ǫ":{"ha":1076,"x_min":81,"x_max":997,"o":"m 539 -12 q 296 49 399 -12 q 137 224 193 111 q 81 490 81 338 q 137 757 81 644 q 296 931 193 869 q 539 992 399 992 q 781 931 678 992 q 941 757 885 869 q 997 492 997 644 q 941 224 997 338 q 781 49 885 111 q 539 -12 678 -12 m 539 113 q 766 212 685 113 q 847 490 847 311 q 767 768 847 669 q 539 867 686 867 q 312 768 393 867 q 231 490 231 669 q 312 212 231 311 q 539 113 393 113 m 592 -269 q 479 -231 521 -269 q 438 -129 438 -193 q 474 -24 438 -72 q 575 54 511 25 l 619 0 q 559 -44 586 -14 q 532 -114 532 -74 q 554 -170 532 -151 q 611 -189 576 -189 q 685 -172 644 -189 l 706 -246 q 592 -269 658 -269 z "},"Ø":{"ha":1076,"x_min":81,"x_max":997,"o":"m 539 -12 q 296 49 399 -12 q 137 224 193 111 q 81 490 81 338 q 137 757 81 644 q 296 931 193 869 q 539 992 399 992 q 781 931 678 992 q 941 757 885 869 q 997 492 997 644 q 941 224 997 338 q 781 49 885 111 q 539 -12 678 -12 m 539 113 q 766 212 685 113 q 847 490 847 311 q 767 768 847 669 q 539 867 686 867 q 312 768 393 867 q 231 490 231 669 q 312 212 231 311 q 539 113 393 113 m 275 -74 l 179 -18 l 260 122 l 301 190 l 690 858 l 722 914 l 803 1053 l 899 997 l 817 857 l 776 789 l 386 122 l 356 65 l 275 -74 z "},"Ǿ":{"ha":1076,"x_min":81,"x_max":997,"o":"m 539 -12 q 296 49 399 -12 q 137 224 193 111 q 81 490 81 338 q 137 757 81 644 q 296 931 193 869 q 539 992 399 992 q 781 931 678 992 q 941 757 885 869 q 997 492 997 644 q 941 224 997 338 q 781 49 885 111 q 539 -12 678 -12 m 539 113 q 766 212 685 113 q 847 490 847 311 q 767 768 847 669 q 539 867 686 867 q 312 768 393 867 q 231 490 231 669 q 312 212 231 311 q 539 113 393 113 m 275 -74 l 179 -18 l 260 122 l 301 190 l 690 858 l 722 914 l 803 1053 l 899 997 l 817 857 l 776 789 l 386 122 l 356 65 l 275 -74 m 486 1063 l 650 1303 l 801 1303 l 589 1063 l 486 1063 z "},"Õ":{"ha":1076,"x_min":81,"x_max":997,"o":"m 539 -12 q 296 49 399 -12 q 137 224 193 111 q 81 490 81 338 q 137 757 81 644 q 296 931 193 869 q 539 992 399 992 q 781 931 678 992 q 941 757 885 869 q 997 492 997 644 q 941 224 997 338 q 781 49 885 111 q 539 -12 678 -12 m 539 113 q 766 212 685 113 q 847 490 847 311 q 767 768 847 669 q 539 867 686 867 q 312 768 393 867 q 231 490 231 669 q 312 212 231 311 q 539 113 393 113 m 313 1081 l 239 1085 q 294 1229 247 1179 q 414 1279 342 1279 q 481 1266 447 1279 q 557 1226 514 1253 q 624 1190 601 1199 q 665 1181 647 1181 q 763 1285 744 1181 l 836 1279 q 781 1135 829 1186 q 663 1085 733 1085 q 594 1099 629 1085 q 515 1140 558 1114 q 453 1175 476 1165 q 410 1185 429 1185 q 313 1081 332 1185 z "},"Ṍ":{"ha":1076,"x_min":81,"x_max":997,"o":"m 539 -12 q 296 49 399 -12 q 137 224 193 111 q 81 490 81 338 q 137 757 81 644 q 296 931 193 869 q 539 992 399 992 q 781 931 678 992 q 941 757 885 869 q 997 492 997 644 q 941 224 997 338 q 781 49 885 111 q 539 -12 678 -12 m 539 113 q 766 212 685 113 q 847 490 847 311 q 767 768 847 669 q 539 867 686 867 q 312 768 393 867 q 231 490 231 669 q 312 212 231 311 q 539 113 393 113 m 492 1232 l 603 1424 l 743 1424 l 583 1232 l 492 1232 m 629 1065 q 580 1075 604 1065 q 524 1104 556 1085 q 481 1127 497 1121 q 451 1133 464 1133 q 403 1117 419 1133 q 379 1064 388 1100 l 310 1068 q 352 1176 314 1140 q 447 1213 390 1213 q 492 1205 469 1213 q 550 1176 515 1197 q 594 1152 576 1158 q 625 1146 611 1146 q 696 1215 683 1146 l 765 1211 q 724 1102 761 1139 q 629 1065 686 1065 z "},"Ṏ":{"ha":1076,"x_min":81,"x_max":997,"o":"m 539 -12 q 296 49 399 -12 q 137 224 193 111 q 81 490 81 338 q 137 757 81 644 q 296 931 193 869 q 539 992 399 992 q 781 931 678 992 q 941 757 885 869 q 997 492 997 644 q 941 224 997 338 q 781 49 885 111 q 539 -12 678 -12 m 539 113 q 766 212 685 113 q 847 490 847 311 q 767 768 847 669 q 539 867 686 867 q 312 768 393 867 q 231 490 231 669 q 312 212 231 311 q 539 113 393 113 m 343 1267 l 343 1378 l 482 1378 l 482 1267 l 343 1267 m 593 1267 l 593 1378 l 732 1378 l 732 1267 l 593 1267 m 629 1065 q 580 1075 604 1065 q 524 1104 556 1085 q 481 1127 497 1121 q 451 1133 464 1133 q 403 1117 419 1133 q 379 1064 388 1100 l 310 1068 q 352 1176 314 1140 q 447 1213 390 1213 q 492 1205 469 1213 q 550 1176 515 1197 q 594 1152 576 1158 q 625 1146 611 1146 q 696 1215 683 1146 l 765 1211 q 724 1102 761 1139 q 629 1065 686 1065 z "},"Ȭ":{"ha":1076,"x_min":81,"x_max":997,"o":"m 539 -12 q 296 49 399 -12 q 137 224 193 111 q 81 490 81 338 q 137 757 81 644 q 296 931 193 869 q 539 992 399 992 q 781 931 678 992 q 941 757 885 869 q 997 492 997 644 q 941 224 997 338 q 781 49 885 111 q 539 -12 678 -12 m 539 113 q 766 212 685 113 q 847 490 847 311 q 767 768 847 669 q 539 867 686 867 q 312 768 393 867 q 231 490 231 669 q 312 212 231 311 q 539 113 393 113 m 325 1285 l 325 1372 l 750 1372 l 750 1285 l 325 1285 m 629 1065 q 580 1075 604 1065 q 524 1104 556 1085 q 481 1127 497 1121 q 451 1133 464 1133 q 403 1117 419 1133 q 379 1064 388 1100 l 310 1068 q 352 1176 314 1140 q 447 1213 390 1213 q 492 1205 469 1213 q 550 1176 515 1197 q 594 1152 576 1158 q 625 1146 611 1146 q 696 1215 683 1146 l 765 1211 q 724 1102 761 1139 q 629 1065 686 1065 z "},"Œ":{"ha":1460,"x_min":81,"x_max":1389,"o":"m 585 0 q 212 127 343 0 q 81 490 81 254 q 212 853 81 726 q 585 979 343 979 l 1389 979 l 1389 863 l 894 863 l 894 556 l 1360 556 l 1360 439 l 894 439 l 894 117 l 1389 117 l 1389 0 l 585 0 m 593 121 l 756 121 l 756 858 l 593 858 q 231 490 231 858 q 593 121 231 121 z "},"P":{"ha":892,"x_min":114,"x_max":850,"o":"m 114 0 l 114 979 l 519 979 q 764 901 678 979 q 850 681 850 822 q 764 459 850 538 q 519 381 678 381 l 258 381 l 258 0 l 114 0 m 258 496 l 499 496 q 710 681 710 496 q 499 864 710 864 l 258 864 l 258 496 z "},"Þ":{"ha":893,"x_min":114,"x_max":851,"o":"m 114 0 l 114 979 l 258 979 l 258 808 l 521 808 q 766 730 681 808 q 851 508 851 651 q 766 288 851 367 q 521 208 681 208 l 258 208 l 258 0 l 114 0 m 258 324 l 501 324 q 713 508 713 324 q 501 693 713 693 l 258 693 l 258 324 z "},"Q":{"ha":1076,"x_min":81,"x_max":997,"o":"m 807 -286 l 682 -85 q 538 -12 638 -12 l 538 -12 q 296 49 399 -12 q 137 224 193 111 q 81 490 81 338 q 137 757 81 644 q 296 931 193 869 q 539 992 399 992 q 781 931 678 992 q 941 757 885 869 q 997 492 997 644 q 926 197 997 318 q 729 22 854 75 q 831 -72 786 4 l 928 -226 l 807 -286 m 539 113 q 766 212 685 113 q 847 490 847 311 q 767 768 847 669 q 539 867 686 867 q 312 768 393 867 q 231 490 231 669 q 312 212 231 311 q 539 113 393 113 z "},"R":{"ha":940,"x_min":114,"x_max":908,"o":"m 114 0 l 114 979 l 519 979 q 764 903 678 979 q 850 692 850 828 q 792 512 850 582 q 626 418 733 442 q 739 311 693 396 l 908 0 l 750 0 l 581 313 q 513 385 551 367 q 415 404 475 404 l 258 404 l 258 0 l 114 0 m 258 513 l 496 513 q 710 689 710 513 q 496 864 710 864 l 258 864 l 258 513 z "},"Ŕ":{"ha":940,"x_min":114,"x_max":908,"o":"m 114 0 l 114 979 l 519 979 q 764 903 678 979 q 850 692 850 828 q 792 512 850 582 q 626 418 733 442 q 739 311 693 396 l 908 0 l 750 0 l 581 313 q 513 385 551 367 q 415 404 475 404 l 258 404 l 258 0 l 114 0 m 258 513 l 496 513 q 710 689 710 513 q 496 864 710 864 l 258 864 l 258 513 m 426 1063 l 590 1303 l 742 1303 l 529 1063 l 426 1063 z "},"Ř":{"ha":940,"x_min":114,"x_max":908,"o":"m 114 0 l 114 979 l 519 979 q 764 903 678 979 q 850 692 850 828 q 792 512 850 582 q 626 418 733 442 q 739 311 693 396 l 908 0 l 750 0 l 581 313 q 513 385 551 367 q 415 404 475 404 l 258 404 l 258 0 l 114 0 m 258 513 l 496 513 q 710 689 710 513 q 496 864 710 864 l 258 864 l 258 513 m 415 1063 l 244 1303 l 346 1303 l 478 1147 l 610 1303 l 711 1303 l 540 1063 l 415 1063 z "},"Ŗ":{"ha":940,"x_min":114,"x_max":908,"o":"m 114 0 l 114 979 l 519 979 q 764 903 678 979 q 850 692 850 828 q 792 512 850 582 q 626 418 733 442 q 739 311 693 396 l 908 0 l 750 0 l 581 313 q 513 385 551 367 q 415 404 475 404 l 258 404 l 258 0 l 114 0 m 258 513 l 496 513 q 710 689 710 513 q 496 864 710 864 l 258 864 l 258 513 m 482 -379 l 425 -339 q 463 -286 451 -311 q 478 -233 475 -261 l 401 -233 l 401 -107 l 557 -107 l 557 -194 q 540 -295 557 -249 q 482 -379 522 -342 z "},"Ȑ":{"ha":940,"x_min":114,"x_max":908,"o":"m 114 0 l 114 979 l 519 979 q 764 903 678 979 q 850 692 850 828 q 792 512 850 582 q 626 418 733 442 q 739 311 693 396 l 908 0 l 750 0 l 581 313 q 513 385 551 367 q 415 404 475 404 l 258 404 l 258 0 l 114 0 m 258 513 l 496 513 q 710 689 710 513 q 496 864 710 864 l 258 864 l 258 513 m 532 1063 l 363 1303 l 494 1303 l 613 1063 l 532 1063 m 344 1063 l 165 1303 l 297 1303 l 424 1063 l 344 1063 z "},"Ṛ":{"ha":940,"x_min":114,"x_max":908,"o":"m 114 0 l 114 979 l 519 979 q 764 903 678 979 q 850 692 850 828 q 792 512 850 582 q 626 418 733 442 q 739 311 693 396 l 908 0 l 750 0 l 581 313 q 513 385 551 367 q 415 404 475 404 l 258 404 l 258 0 l 114 0 m 258 513 l 496 513 q 710 689 710 513 q 496 864 710 864 l 258 864 l 258 513 m 406 -271 l 406 -131 l 553 -131 l 553 -271 l 406 -271 z "},"Ȓ":{"ha":940,"x_min":114,"x_max":908,"o":"m 114 0 l 114 979 l 519 979 q 764 903 678 979 q 850 692 850 828 q 792 512 850 582 q 626 418 733 442 q 739 311 693 396 l 908 0 l 750 0 l 581 313 q 513 385 551 367 q 415 404 475 404 l 258 404 l 258 0 l 114 0 m 258 513 l 496 513 q 710 689 710 513 q 496 864 710 864 l 258 864 l 258 513 m 318 1056 l 235 1067 q 310 1238 243 1175 q 478 1301 376 1301 q 647 1238 581 1301 q 721 1067 713 1175 l 638 1056 q 590 1172 632 1131 q 478 1214 547 1214 q 367 1172 408 1214 q 318 1056 325 1131 z "},"Ṟ":{"ha":940,"x_min":114,"x_max":908,"o":"m 114 0 l 114 979 l 519 979 q 764 903 678 979 q 850 692 850 828 q 792 512 850 582 q 626 418 733 442 q 739 311 693 396 l 908 0 l 750 0 l 581 313 q 513 385 551 367 q 415 404 475 404 l 258 404 l 258 0 l 114 0 m 258 513 l 496 513 q 710 689 710 513 q 496 864 710 864 l 258 864 l 258 513 m 268 -222 l 268 -133 l 692 -133 l 692 -222 l 268 -222 z "},"S":{"ha":864,"x_min":67,"x_max":814,"o":"m 440 -12 q 229 17 325 -12 q 67 101 133 47 l 113 215 q 261 136 182 163 q 440 110 340 110 q 615 152 558 110 q 671 263 671 194 q 631 351 671 318 q 496 403 590 383 l 347 433 q 151 525 215 461 q 86 697 86 589 q 133 851 86 785 q 263 955 179 918 q 454 992 346 992 q 640 962 554 992 q 785 875 725 932 l 738 765 q 453 869 619 869 q 290 824 350 869 q 229 701 229 778 q 267 608 229 643 q 392 556 304 574 l 539 525 q 746 435 678 496 q 814 272 814 375 q 768 122 814 186 q 639 23 722 58 q 440 -12 556 -12 z "},"Ś":{"ha":864,"x_min":67,"x_max":814,"o":"m 440 -12 q 229 17 325 -12 q 67 101 133 47 l 113 215 q 261 136 182 163 q 440 110 340 110 q 615 152 558 110 q 671 263 671 194 q 631 351 671 318 q 496 403 590 383 l 347 433 q 151 525 215 461 q 86 697 86 589 q 133 851 86 785 q 263 955 179 918 q 454 992 346 992 q 640 962 554 992 q 785 875 725 932 l 738 765 q 453 869 619 869 q 290 824 350 869 q 229 701 229 778 q 267 608 229 643 q 392 556 304 574 l 539 525 q 746 435 678 496 q 814 272 814 375 q 768 122 814 186 q 639 23 722 58 q 440 -12 556 -12 m 392 1063 l 556 1303 l 707 1303 l 494 1063 l 392 1063 z "},"Ṥ":{"ha":864,"x_min":67,"x_max":814,"o":"m 440 -12 q 229 17 325 -12 q 67 101 133 47 l 113 215 q 261 136 182 163 q 440 110 340 110 q 615 152 558 110 q 671 263 671 194 q 631 351 671 318 q 496 403 590 383 l 347 433 q 151 525 215 461 q 86 697 86 589 q 133 851 86 785 q 263 955 179 918 q 454 992 346 992 q 640 962 554 992 q 785 875 725 932 l 738 765 q 453 869 619 869 q 290 824 350 869 q 229 701 229 778 q 267 608 229 643 q 392 556 304 574 l 539 525 q 746 435 678 496 q 814 272 814 375 q 768 122 814 186 q 639 23 722 58 q 440 -12 556 -12 m 304 1301 l 304 1413 l 443 1413 l 443 1301 l 304 1301 m 392 1063 l 556 1303 l 707 1303 l 494 1063 l 392 1063 z "},"Š":{"ha":864,"x_min":67,"x_max":814,"o":"m 440 -12 q 229 17 325 -12 q 67 101 133 47 l 113 215 q 261 136 182 163 q 440 110 340 110 q 615 152 558 110 q 671 263 671 194 q 631 351 671 318 q 496 403 590 383 l 347 433 q 151 525 215 461 q 86 697 86 589 q 133 851 86 785 q 263 955 179 918 q 454 992 346 992 q 640 962 554 992 q 785 875 725 932 l 738 765 q 453 869 619 869 q 290 824 350 869 q 229 701 229 778 q 267 608 229 643 q 392 556 304 574 l 539 525 q 746 435 678 496 q 814 272 814 375 q 768 122 814 186 q 639 23 722 58 q 440 -12 556 -12 m 381 1063 l 210 1303 l 311 1303 l 443 1147 l 575 1303 l 676 1303 l 506 1063 l 381 1063 z "},"Ṧ":{"ha":864,"x_min":67,"x_max":814,"o":"m 440 -12 q 229 17 325 -12 q 67 101 133 47 l 113 215 q 261 136 182 163 q 440 110 340 110 q 615 152 558 110 q 671 263 671 194 q 631 351 671 318 q 496 403 590 383 l 347 433 q 151 525 215 461 q 86 697 86 589 q 133 851 86 785 q 263 955 179 918 q 454 992 346 992 q 640 962 554 992 q 785 875 725 932 l 738 765 q 453 869 619 869 q 290 824 350 869 q 229 701 229 778 q 267 608 229 643 q 392 556 304 574 l 539 525 q 746 435 678 496 q 814 272 814 375 q 768 122 814 186 q 639 23 722 58 q 440 -12 556 -12 m 374 1343 l 374 1454 l 513 1454 l 513 1343 l 374 1343 m 379 1063 l 226 1283 l 319 1283 l 443 1146 l 567 1283 l 660 1283 l 507 1063 l 379 1063 z "},"Ş":{"ha":864,"x_min":67,"x_max":814,"o":"m 440 -12 q 229 17 325 -12 q 67 101 133 47 l 113 215 q 261 136 182 163 q 440 110 340 110 q 615 152 558 110 q 671 263 671 194 q 631 351 671 318 q 496 403 590 383 l 347 433 q 151 525 215 461 q 86 697 86 589 q 133 851 86 785 q 263 955 179 918 q 454 992 346 992 q 640 962 554 992 q 785 875 725 932 l 738 765 q 453 869 619 869 q 290 824 350 869 q 229 701 229 778 q 267 608 229 643 q 392 556 304 574 l 539 525 q 746 435 678 496 q 814 272 814 375 q 768 122 814 186 q 639 23 722 58 q 440 -12 556 -12 m 446 -269 q 373 -262 408 -269 q 314 -240 338 -254 l 335 -172 q 384 -189 361 -183 q 438 -194 407 -194 q 496 -183 475 -194 q 517 -149 517 -171 q 464 -112 517 -112 q 436 -115 450 -112 q 403 -122 422 -117 l 378 -100 l 397 28 l 478 28 l 464 -57 q 485 -56 475 -56 q 572 -81 539 -56 q 606 -153 606 -107 q 561 -237 606 -204 q 446 -269 517 -269 z "},"Ŝ":{"ha":864,"x_min":67,"x_max":814,"o":"m 440 -12 q 229 17 325 -12 q 67 101 133 47 l 113 215 q 261 136 182 163 q 440 110 340 110 q 615 152 558 110 q 671 263 671 194 q 631 351 671 318 q 496 403 590 383 l 347 433 q 151 525 215 461 q 86 697 86 589 q 133 851 86 785 q 263 955 179 918 q 454 992 346 992 q 640 962 554 992 q 785 875 725 932 l 738 765 q 453 869 619 869 q 290 824 350 869 q 229 701 229 778 q 267 608 229 643 q 392 556 304 574 l 539 525 q 746 435 678 496 q 814 272 814 375 q 768 122 814 186 q 639 23 722 58 q 440 -12 556 -12 m 210 1063 l 381 1303 l 506 1303 l 676 1063 l 575 1063 l 443 1218 l 311 1063 l 210 1063 z "},"Ș":{"ha":864,"x_min":67,"x_max":814,"o":"m 440 -12 q 229 17 325 -12 q 67 101 133 47 l 113 215 q 261 136 182 163 q 440 110 340 110 q 615 152 558 110 q 671 263 671 194 q 631 351 671 318 q 496 403 590 383 l 347 433 q 151 525 215 461 q 86 697 86 589 q 133 851 86 785 q 263 955 179 918 q 454 992 346 992 q 640 962 554 992 q 785 875 725 932 l 738 765 q 453 869 619 869 q 290 824 350 869 q 229 701 229 778 q 267 608 229 643 q 392 556 304 574 l 539 525 q 746 435 678 496 q 814 272 814 375 q 768 122 814 186 q 639 23 722 58 q 440 -12 556 -12 m 446 -379 l 389 -339 q 427 -286 415 -311 q 442 -233 439 -261 l 365 -233 l 365 -107 l 521 -107 l 521 -194 q 503 -295 521 -249 q 446 -379 486 -342 z "},"Ṡ":{"ha":864,"x_min":67,"x_max":814,"o":"m 440 -12 q 229 17 325 -12 q 67 101 133 47 l 113 215 q 261 136 182 163 q 440 110 340 110 q 615 152 558 110 q 671 263 671 194 q 631 351 671 318 q 496 403 590 383 l 347 433 q 151 525 215 461 q 86 697 86 589 q 133 851 86 785 q 263 955 179 918 q 454 992 346 992 q 640 962 554 992 q 785 875 725 932 l 738 765 q 453 869 619 869 q 290 824 350 869 q 229 701 229 778 q 267 608 229 643 q 392 556 304 574 l 539 525 q 746 435 678 496 q 814 272 814 375 q 768 122 814 186 q 639 23 722 58 q 440 -12 556 -12 m 371 1113 l 371 1253 l 515 1253 l 515 1113 l 371 1113 z "},"Ṣ":{"ha":864,"x_min":67,"x_max":814,"o":"m 440 -12 q 229 17 325 -12 q 67 101 133 47 l 113 215 q 261 136 182 163 q 440 110 340 110 q 615 152 558 110 q 671 263 671 194 q 631 351 671 318 q 496 403 590 383 l 347 433 q 151 525 215 461 q 86 697 86 589 q 133 851 86 785 q 263 955 179 918 q 454 992 346 992 q 640 962 554 992 q 785 875 725 932 l 738 765 q 453 869 619 869 q 290 824 350 869 q 229 701 229 778 q 267 608 229 643 q 392 556 304 574 l 539 525 q 746 435 678 496 q 814 272 814 375 q 768 122 814 186 q 639 23 722 58 q 440 -12 556 -12 m 369 -271 l 369 -131 l 517 -131 l 517 -271 l 369 -271 z "},"Ṩ":{"ha":864,"x_min":67,"x_max":814,"o":"m 440 -12 q 229 17 325 -12 q 67 101 133 47 l 113 215 q 261 136 182 163 q 440 110 340 110 q 615 152 558 110 q 671 263 671 194 q 631 351 671 318 q 496 403 590 383 l 347 433 q 151 525 215 461 q 86 697 86 589 q 133 851 86 785 q 263 955 179 918 q 454 992 346 992 q 640 962 554 992 q 785 875 725 932 l 738 765 q 453 869 619 869 q 290 824 350 869 q 229 701 229 778 q 267 608 229 643 q 392 556 304 574 l 539 525 q 746 435 678 496 q 814 272 814 375 q 768 122 814 186 q 639 23 722 58 q 440 -12 556 -12 m 369 -271 l 369 -131 l 517 -131 l 517 -271 l 369 -271 m 371 1113 l 371 1253 l 515 1253 l 515 1113 l 371 1113 z "},"ẞ":{"ha":1000,"x_min":114,"x_max":921,"o":"m 613 -12 q 340 74 444 -12 l 388 179 q 488 122 438 139 q 599 104 539 104 q 733 149 686 104 q 781 271 781 194 q 728 392 781 350 q 569 433 676 433 l 404 433 l 404 549 l 540 549 q 678 590 626 549 q 729 711 729 632 q 674 832 729 790 q 518 874 619 874 q 258 631 258 874 l 258 0 l 114 0 l 114 633 q 222 901 114 810 q 522 992 329 992 q 776 922 682 992 q 869 731 869 851 q 833 595 869 654 q 733 506 797 536 q 870 422 819 485 q 921 264 921 358 q 839 60 921 132 q 613 -12 757 -12 z "},"Ə":{"ha":1076,"x_min":81,"x_max":997,"o":"m 547 -12 q 289 51 393 -12 q 133 228 185 114 q 81 494 81 342 l 81 551 l 844 551 q 739 785 829 704 q 493 867 649 867 q 318 842 394 867 q 172 761 242 817 l 119 872 q 289 961 190 931 q 508 992 388 992 q 767 931 657 992 q 937 758 876 871 q 997 489 997 646 q 941 222 997 335 q 783 49 885 110 q 547 -12 682 -12 m 542 108 q 753 192 674 108 q 844 433 832 275 l 229 433 q 542 108 251 108 z "},"T":{"ha":849,"x_min":6,"x_max":843,"o":"m 353 0 l 353 858 l 6 858 l 6 979 l 843 979 l 843 858 l 496 858 l 496 0 l 353 0 z "},"Ŧ":{"ha":849,"x_min":6,"x_max":843,"o":"m 353 0 l 353 858 l 6 858 l 6 979 l 843 979 l 843 858 l 496 858 l 496 0 l 353 0 m 158 443 l 158 550 l 692 550 l 692 443 l 158 443 z "},"Ť":{"ha":849,"x_min":6,"x_max":843,"o":"m 353 0 l 353 858 l 6 858 l 6 979 l 843 979 l 843 858 l 496 858 l 496 0 l 353 0 m 363 1063 l 192 1303 l 293 1303 l 425 1147 l 557 1303 l 658 1303 l 488 1063 l 363 1063 z "},"Ţ":{"ha":849,"x_min":6,"x_max":843,"o":"m 353 0 l 353 858 l 6 858 l 6 979 l 843 979 l 843 858 l 496 858 l 496 0 l 353 0 m 428 -269 q 355 -262 390 -269 q 296 -240 319 -254 l 317 -172 q 366 -189 343 -183 q 419 -194 389 -194 q 478 -183 457 -194 q 499 -149 499 -171 q 446 -112 499 -112 q 418 -115 432 -112 q 385 -122 404 -117 l 360 -100 l 379 28 l 460 28 l 446 -57 q 467 -56 457 -56 q 554 -81 521 -56 q 588 -153 588 -107 q 543 -237 588 -204 q 428 -269 499 -269 z "},"Ț":{"ha":849,"x_min":6,"x_max":843,"o":"m 353 0 l 353 858 l 6 858 l 6 979 l 843 979 l 843 858 l 496 858 l 496 0 l 353 0 m 428 -379 l 371 -339 q 409 -286 397 -311 q 424 -233 421 -261 l 347 -233 l 347 -107 l 503 -107 l 503 -194 q 485 -295 503 -249 q 428 -379 468 -342 z "},"Ṭ":{"ha":849,"x_min":6,"x_max":843,"o":"m 353 0 l 353 858 l 6 858 l 6 979 l 843 979 l 843 858 l 496 858 l 496 0 l 353 0 m 351 -271 l 351 -131 l 499 -131 l 499 -271 l 351 -271 z "},"Ṯ":{"ha":849,"x_min":6,"x_max":843,"o":"m 353 0 l 353 858 l 6 858 l 6 979 l 843 979 l 843 858 l 496 858 l 496 0 l 353 0 m 214 -222 l 214 -133 l 638 -133 l 638 -222 l 214 -222 z "},"U":{"ha":1018,"x_min":107,"x_max":910,"o":"m 510 -12 q 210 91 314 -12 q 107 394 107 194 l 107 979 l 251 979 l 251 397 q 510 113 251 113 q 768 397 768 113 l 768 979 l 910 979 l 910 394 q 808 91 910 194 q 510 -12 707 -12 z "},"Ú":{"ha":1018,"x_min":107,"x_max":910,"o":"m 510 -12 q 210 91 314 -12 q 107 394 107 194 l 107 979 l 251 979 l 251 397 q 510 113 251 113 q 768 397 768 113 l 768 979 l 910 979 l 910 394 q 808 91 910 194 q 510 -12 707 -12 m 458 1063 l 622 1303 l 774 1303 l 561 1063 l 458 1063 z "},"Ŭ":{"ha":1018,"x_min":107,"x_max":910,"o":"m 510 -12 q 210 91 314 -12 q 107 394 107 194 l 107 979 l 251 979 l 251 397 q 510 113 251 113 q 768 397 768 113 l 768 979 l 910 979 l 910 394 q 808 91 910 194 q 510 -12 707 -12 m 510 1056 q 342 1119 408 1056 q 267 1290 275 1182 l 350 1301 q 399 1185 357 1226 q 510 1144 440 1144 q 622 1185 579 1144 q 669 1301 664 1226 l 753 1290 q 678 1119 744 1182 q 510 1056 613 1056 z "},"Û":{"ha":1018,"x_min":107,"x_max":910,"o":"m 510 -12 q 210 91 314 -12 q 107 394 107 194 l 107 979 l 251 979 l 251 397 q 510 113 251 113 q 768 397 768 113 l 768 979 l 910 979 l 910 394 q 808 91 910 194 q 510 -12 707 -12 m 276 1063 l 447 1303 l 572 1303 l 743 1063 l 642 1063 l 510 1218 l 378 1063 l 276 1063 z "},"Ȕ":{"ha":1018,"x_min":107,"x_max":910,"o":"m 510 -12 q 210 91 314 -12 q 107 394 107 194 l 107 979 l 251 979 l 251 397 q 510 113 251 113 q 768 397 768 113 l 768 979 l 910 979 l 910 394 q 808 91 910 194 q 510 -12 707 -12 m 564 1063 l 394 1303 l 526 1303 l 644 1063 l 564 1063 m 376 1063 l 197 1303 l 329 1303 l 456 1063 l 376 1063 z "},"Ü":{"ha":1018,"x_min":107,"x_max":910,"o":"m 510 -12 q 210 91 314 -12 q 107 394 107 194 l 107 979 l 251 979 l 251 397 q 510 113 251 113 q 768 397 768 113 l 768 979 l 910 979 l 910 394 q 808 91 910 194 q 510 -12 707 -12 m 565 1110 l 565 1247 l 704 1247 l 704 1110 l 565 1110 m 315 1110 l 315 1247 l 454 1247 l 454 1110 l 315 1110 z "},"Ụ":{"ha":1018,"x_min":107,"x_max":910,"o":"m 510 -12 q 210 91 314 -12 q 107 394 107 194 l 107 979 l 251 979 l 251 397 q 510 113 251 113 q 768 397 768 113 l 768 979 l 910 979 l 910 394 q 808 91 910 194 q 510 -12 707 -12 m 436 -271 l 436 -131 l 583 -131 l 583 -271 l 436 -271 z "},"Ù":{"ha":1018,"x_min":107,"x_max":910,"o":"m 510 -12 q 210 91 314 -12 q 107 394 107 194 l 107 979 l 251 979 l 251 397 q 510 113 251 113 q 768 397 768 113 l 768 979 l 910 979 l 910 394 q 808 91 910 194 q 510 -12 707 -12 m 458 1063 l 246 1303 l 397 1303 l 561 1063 l 458 1063 z "},"Ủ":{"ha":1018,"x_min":107,"x_max":910,"o":"m 510 -12 q 210 91 314 -12 q 107 394 107 194 l 107 979 l 251 979 l 251 397 q 510 113 251 113 q 768 397 768 113 l 768 979 l 910 979 l 910 394 q 808 91 910 194 q 510 -12 707 -12 m 464 1063 l 464 1086 q 477 1129 464 1113 q 506 1158 490 1146 q 535 1181 522 1169 q 547 1207 547 1192 q 488 1236 547 1236 q 401 1218 444 1236 l 379 1283 q 518 1311 435 1311 q 621 1288 583 1311 q 658 1225 658 1265 q 642 1177 658 1194 q 606 1147 626 1160 q 571 1119 586 1133 q 556 1078 556 1104 l 556 1063 l 464 1063 z "},"Ư":{"ha":1018,"x_min":107,"x_max":1069,"o":"m 510 -12 q 210 91 314 -12 q 107 394 107 194 l 107 979 l 251 979 l 251 397 q 510 113 251 113 q 768 397 768 113 l 768 979 l 910 979 l 910 394 q 808 91 910 194 q 510 -12 707 -12 m 878 901 l 801 950 l 801 979 q 915 1015 883 981 q 946 1132 946 1050 l 946 1157 l 1069 1157 l 1069 1113 q 1019 965 1069 1021 q 878 901 968 908 z "},"Ứ":{"ha":1018,"x_min":107,"x_max":1069,"o":"m 510 -12 q 210 91 314 -12 q 107 394 107 194 l 107 979 l 251 979 l 251 397 q 510 113 251 113 q 768 397 768 113 l 768 979 l 910 979 l 910 394 q 808 91 910 194 q 510 -12 707 -12 m 878 901 l 801 950 l 801 979 q 915 1015 883 981 q 946 1132 946 1050 l 946 1157 l 1069 1157 l 1069 1113 q 1019 965 1069 1021 q 878 901 968 908 m 458 1063 l 622 1303 l 774 1303 l 561 1063 l 458 1063 z "},"Ự":{"ha":1018,"x_min":107,"x_max":1069,"o":"m 510 -12 q 210 91 314 -12 q 107 394 107 194 l 107 979 l 251 979 l 251 397 q 510 113 251 113 q 768 397 768 113 l 768 979 l 910 979 l 910 394 q 808 91 910 194 q 510 -12 707 -12 m 878 901 l 801 950 l 801 979 q 915 1015 883 981 q 946 1132 946 1050 l 946 1157 l 1069 1157 l 1069 1113 q 1019 965 1069 1021 q 878 901 968 908 m 436 -271 l 436 -131 l 583 -131 l 583 -271 l 436 -271 z "},"Ừ":{"ha":1018,"x_min":107,"x_max":1069,"o":"m 510 -12 q 210 91 314 -12 q 107 394 107 194 l 107 979 l 251 979 l 251 397 q 510 113 251 113 q 768 397 768 113 l 768 979 l 910 979 l 910 394 q 808 91 910 194 q 510 -12 707 -12 m 878 901 l 801 950 l 801 979 q 915 1015 883 981 q 946 1132 946 1050 l 946 1157 l 1069 1157 l 1069 1113 q 1019 965 1069 1021 q 878 901 968 908 m 458 1063 l 246 1303 l 397 1303 l 561 1063 l 458 1063 z "},"Ử":{"ha":1018,"x_min":107,"x_max":1069,"o":"m 510 -12 q 210 91 314 -12 q 107 394 107 194 l 107 979 l 251 979 l 251 397 q 510 113 251 113 q 768 397 768 113 l 768 979 l 910 979 l 910 394 q 808 91 910 194 q 510 -12 707 -12 m 878 901 l 801 950 l 801 979 q 915 1015 883 981 q 946 1132 946 1050 l 946 1157 l 1069 1157 l 1069 1113 q 1019 965 1069 1021 q 878 901 968 908 m 464 1063 l 464 1086 q 477 1129 464 1113 q 506 1158 490 1146 q 535 1181 522 1169 q 547 1207 547 1192 q 488 1236 547 1236 q 401 1218 444 1236 l 379 1283 q 518 1311 435 1311 q 621 1288 583 1311 q 658 1225 658 1265 q 642 1177 658 1194 q 606 1147 626 1160 q 571 1119 586 1133 q 556 1078 556 1104 l 556 1063 l 464 1063 z "},"Ữ":{"ha":1018,"x_min":107,"x_max":1069,"o":"m 510 -12 q 210 91 314 -12 q 107 394 107 194 l 107 979 l 251 979 l 251 397 q 510 113 251 113 q 768 397 768 113 l 768 979 l 910 979 l 910 394 q 808 91 910 194 q 510 -12 707 -12 m 878 901 l 801 950 l 801 979 q 915 1015 883 981 q 946 1132 946 1050 l 946 1157 l 1069 1157 l 1069 1113 q 1019 965 1069 1021 q 878 901 968 908 m 299 1081 l 225 1085 q 278 1229 232 1179 q 392 1279 324 1279 q 453 1266 425 1279 q 517 1225 481 1253 q 567 1191 547 1201 q 608 1181 586 1181 q 701 1285 683 1181 l 775 1279 q 722 1135 767 1186 q 608 1085 678 1085 q 542 1101 572 1085 q 482 1142 513 1117 q 435 1174 456 1163 q 393 1185 414 1185 q 299 1081 317 1185 z "},"Ű":{"ha":1018,"x_min":107,"x_max":910,"o":"m 510 -12 q 210 91 314 -12 q 107 394 107 194 l 107 979 l 251 979 l 251 397 q 510 113 251 113 q 768 397 768 113 l 768 979 l 910 979 l 910 394 q 808 91 910 194 q 510 -12 707 -12 m 376 1063 l 494 1303 l 626 1303 l 456 1063 l 376 1063 m 564 1063 l 692 1303 l 824 1303 l 644 1063 l 564 1063 z "},"Ȗ":{"ha":1018,"x_min":107,"x_max":910,"o":"m 510 -12 q 210 91 314 -12 q 107 394 107 194 l 107 979 l 251 979 l 251 397 q 510 113 251 113 q 768 397 768 113 l 768 979 l 910 979 l 910 394 q 808 91 910 194 q 510 -12 707 -12 m 350 1056 l 267 1067 q 342 1238 275 1175 q 510 1301 408 1301 q 678 1238 613 1301 q 753 1067 744 1175 l 669 1056 q 622 1172 664 1131 q 510 1214 579 1214 q 399 1172 440 1214 q 350 1056 357 1131 z "},"Ū":{"ha":1018,"x_min":107,"x_max":910,"o":"m 510 -12 q 210 91 314 -12 q 107 394 107 194 l 107 979 l 251 979 l 251 397 q 510 113 251 113 q 768 397 768 113 l 768 979 l 910 979 l 910 394 q 808 91 910 194 q 510 -12 707 -12 m 278 1126 l 278 1214 l 743 1214 l 743 1126 l 278 1126 z "},"Ṻ":{"ha":1018,"x_min":107,"x_max":910,"o":"m 510 -12 q 210 91 314 -12 q 107 394 107 194 l 107 979 l 251 979 l 251 397 q 510 113 251 113 q 768 397 768 113 l 768 979 l 910 979 l 910 394 q 808 91 910 194 q 510 -12 707 -12 m 315 1263 l 315 1372 l 454 1372 l 454 1263 l 315 1263 m 565 1263 l 565 1372 l 704 1372 l 704 1263 l 565 1263 m 299 1101 l 299 1190 l 722 1190 l 722 1101 l 299 1101 z "},"Ų":{"ha":1018,"x_min":107,"x_max":910,"o":"m 510 -12 q 210 91 314 -12 q 107 394 107 194 l 107 979 l 251 979 l 251 397 q 510 113 251 113 q 768 397 768 113 l 768 979 l 910 979 l 910 394 q 808 91 910 194 q 510 -12 707 -12 m 561 -269 q 449 -231 490 -269 q 407 -129 407 -193 q 444 -24 407 -72 q 544 54 481 25 l 589 0 q 528 -44 556 -14 q 501 -114 501 -74 q 524 -170 501 -151 q 581 -189 546 -189 q 654 -172 614 -189 l 675 -246 q 561 -269 628 -269 z "},"Ů":{"ha":1018,"x_min":107,"x_max":910,"o":"m 510 -12 q 210 91 314 -12 q 107 394 107 194 l 107 979 l 251 979 l 251 397 q 510 113 251 113 q 768 397 768 113 l 768 979 l 910 979 l 910 394 q 808 91 910 194 q 510 -12 707 -12 m 510 1050 q 389 1099 438 1050 q 340 1217 340 1147 q 389 1333 340 1286 q 510 1381 438 1381 q 631 1333 582 1381 q 679 1217 679 1286 q 631 1099 679 1147 q 510 1050 582 1050 m 510 1119 q 578 1147 551 1119 q 606 1217 606 1175 q 578 1284 606 1257 q 510 1311 551 1311 q 441 1284 468 1311 q 414 1217 414 1257 q 441 1147 414 1175 q 510 1119 468 1119 z "},"Ũ":{"ha":1018,"x_min":107,"x_max":910,"o":"m 510 -12 q 210 91 314 -12 q 107 394 107 194 l 107 979 l 251 979 l 251 397 q 510 113 251 113 q 768 397 768 113 l 768 979 l 910 979 l 910 394 q 808 91 910 194 q 510 -12 707 -12 m 285 1081 l 211 1085 q 267 1229 219 1179 q 386 1279 314 1279 q 453 1266 419 1279 q 529 1226 486 1253 q 597 1190 574 1199 q 638 1181 619 1181 q 735 1285 717 1181 l 808 1279 q 753 1135 801 1186 q 635 1085 706 1085 q 566 1099 601 1085 q 488 1140 531 1114 q 425 1175 449 1165 q 382 1185 401 1185 q 285 1081 304 1185 z "},"Ṹ":{"ha":1018,"x_min":107,"x_max":910,"o":"m 510 -12 q 210 91 314 -12 q 107 394 107 194 l 107 979 l 251 979 l 251 397 q 510 113 251 113 q 768 397 768 113 l 768 979 l 910 979 l 910 394 q 808 91 910 194 q 510 -12 707 -12 m 464 1232 l 575 1424 l 715 1424 l 556 1232 l 464 1232 m 601 1065 q 552 1075 576 1065 q 496 1104 528 1085 q 453 1127 469 1121 q 424 1133 436 1133 q 376 1117 392 1133 q 351 1064 360 1100 l 282 1068 q 324 1176 286 1140 q 419 1213 363 1213 q 465 1205 442 1213 q 522 1176 488 1197 q 566 1152 549 1158 q 597 1146 583 1146 q 668 1215 656 1146 l 738 1211 q 696 1102 733 1139 q 601 1065 658 1065 z "},"V":{"ha":972,"x_min":-8,"x_max":979,"o":"m 424 0 l -8 979 l 146 979 l 489 182 l 832 979 l 979 979 l 547 0 l 424 0 z "},"W":{"ha":1538,"x_min":38,"x_max":1501,"o":"m 381 0 l 38 979 l 185 979 l 447 208 l 717 979 l 826 979 l 1093 200 l 1361 979 l 1501 979 l 1156 0 l 1035 0 l 769 761 l 501 0 l 381 0 z "},"Ẃ":{"ha":1538,"x_min":38,"x_max":1501,"o":"m 381 0 l 38 979 l 185 979 l 447 208 l 717 979 l 826 979 l 1093 200 l 1361 979 l 1501 979 l 1156 0 l 1035 0 l 769 761 l 501 0 l 381 0 m 718 1063 l 882 1303 l 1033 1303 l 821 1063 l 718 1063 z "},"Ŵ":{"ha":1538,"x_min":38,"x_max":1501,"o":"m 381 0 l 38 979 l 185 979 l 447 208 l 717 979 l 826 979 l 1093 200 l 1361 979 l 1501 979 l 1156 0 l 1035 0 l 769 761 l 501 0 l 381 0 m 536 1063 l 707 1303 l 832 1303 l 1003 1063 l 901 1063 l 769 1218 l 638 1063 l 536 1063 z "},"Ẅ":{"ha":1538,"x_min":38,"x_max":1501,"o":"m 381 0 l 38 979 l 185 979 l 447 208 l 717 979 l 826 979 l 1093 200 l 1361 979 l 1501 979 l 1156 0 l 1035 0 l 769 761 l 501 0 l 381 0 m 825 1110 l 825 1247 l 964 1247 l 964 1110 l 825 1110 m 575 1110 l 575 1247 l 714 1247 l 714 1110 l 575 1110 z "},"Ẁ":{"ha":1538,"x_min":38,"x_max":1501,"o":"m 381 0 l 38 979 l 185 979 l 447 208 l 717 979 l 826 979 l 1093 200 l 1361 979 l 1501 979 l 1156 0 l 1035 0 l 769 761 l 501 0 l 381 0 m 718 1063 l 506 1303 l 657 1303 l 821 1063 l 718 1063 z "},"X":{"ha":917,"x_min":4,"x_max":913,"o":"m 4 0 l 378 500 l 19 979 l 186 979 l 460 606 l 731 979 l 899 979 l 540 500 l 913 0 l 744 0 l 458 392 l 174 0 l 4 0 z "},"Y":{"ha":842,"x_min":-26,"x_max":867,"o":"m 349 0 l 349 457 l -26 979 l 140 979 l 424 583 l 707 979 l 867 979 l 492 456 l 492 0 l 349 0 z "},"Ý":{"ha":842,"x_min":-26,"x_max":867,"o":"m 349 0 l 349 457 l -26 979 l 140 979 l 424 583 l 707 979 l 867 979 l 492 456 l 492 0 l 349 0 m 369 1063 l 533 1303 l 685 1303 l 472 1063 l 369 1063 z "},"Ŷ":{"ha":842,"x_min":-26,"x_max":867,"o":"m 349 0 l 349 457 l -26 979 l 140 979 l 424 583 l 707 979 l 867 979 l 492 456 l 492 0 l 349 0 m 188 1063 l 358 1303 l 483 1303 l 654 1063 l 553 1063 l 421 1218 l 289 1063 l 188 1063 z "},"Ÿ":{"ha":842,"x_min":-26,"x_max":867,"o":"m 349 0 l 349 457 l -26 979 l 140 979 l 424 583 l 707 979 l 867 979 l 492 456 l 492 0 l 349 0 m 476 1110 l 476 1247 l 615 1247 l 615 1110 l 476 1110 m 226 1110 l 226 1247 l 365 1247 l 365 1110 l 226 1110 z "},"Ẏ":{"ha":842,"x_min":-26,"x_max":867,"o":"m 349 0 l 349 457 l -26 979 l 140 979 l 424 583 l 707 979 l 867 979 l 492 456 l 492 0 l 349 0 m 349 1113 l 349 1253 l 493 1253 l 493 1113 l 349 1113 z "},"Ỵ":{"ha":842,"x_min":-26,"x_max":867,"o":"m 349 0 l 349 457 l -26 979 l 140 979 l 424 583 l 707 979 l 867 979 l 492 456 l 492 0 l 349 0 m 347 -271 l 347 -131 l 494 -131 l 494 -271 l 347 -271 z "},"Ỳ":{"ha":842,"x_min":-26,"x_max":867,"o":"m 349 0 l 349 457 l -26 979 l 140 979 l 424 583 l 707 979 l 867 979 l 492 456 l 492 0 l 349 0 m 369 1063 l 157 1303 l 308 1303 l 472 1063 l 369 1063 z "},"Ƴ":{"ha":856,"x_min":-26,"x_max":932,"o":"m 349 0 l 349 457 l -26 979 l 140 979 l 424 583 l 624 871 q 719 962 667 933 q 843 990 772 990 q 932 976 896 990 l 932 874 q 864 885 904 885 q 801 869 831 885 q 743 815 771 854 l 492 457 l 492 0 l 349 0 z "},"Ỷ":{"ha":842,"x_min":-26,"x_max":867,"o":"m 349 0 l 349 457 l -26 979 l 140 979 l 424 583 l 707 979 l 867 979 l 492 456 l 492 0 l 349 0 m 375 1063 l 375 1086 q 388 1129 375 1113 q 417 1158 401 1146 q 446 1181 433 1169 q 458 1207 458 1192 q 399 1236 458 1236 q 313 1218 356 1236 l 290 1283 q 429 1311 346 1311 q 532 1288 494 1311 q 569 1225 569 1265 q 553 1177 569 1194 q 517 1147 538 1160 q 482 1119 497 1133 q 467 1078 467 1104 l 467 1063 l 375 1063 z "},"Ȳ":{"ha":842,"x_min":-26,"x_max":867,"o":"m 349 0 l 349 457 l -26 979 l 140 979 l 424 583 l 707 979 l 867 979 l 492 456 l 492 0 l 349 0 m 189 1126 l 189 1214 l 654 1214 l 654 1126 l 189 1126 z "},"Ỹ":{"ha":842,"x_min":-26,"x_max":867,"o":"m 349 0 l 349 457 l -26 979 l 140 979 l 424 583 l 707 979 l 867 979 l 492 456 l 492 0 l 349 0 m 196 1081 l 122 1085 q 178 1229 131 1179 q 297 1279 225 1279 q 364 1266 331 1279 q 440 1226 397 1253 q 508 1190 485 1199 q 549 1181 531 1181 q 646 1285 628 1181 l 719 1279 q 665 1135 713 1186 q 546 1085 617 1085 q 477 1099 513 1085 q 399 1140 442 1114 q 336 1175 360 1165 q 293 1185 313 1185 q 196 1081 215 1185 z "},"Z":{"ha":828,"x_min":67,"x_max":799,"o":"m 67 0 l 67 106 l 608 858 l 67 858 l 67 979 l 778 979 l 778 874 l 235 121 l 799 121 l 799 0 l 67 0 z "},"Ź":{"ha":828,"x_min":67,"x_max":799,"o":"m 67 0 l 67 106 l 608 858 l 67 858 l 67 979 l 778 979 l 778 874 l 235 121 l 799 121 l 799 0 l 67 0 m 378 1063 l 542 1303 l 693 1303 l 481 1063 l 378 1063 z "},"Ž":{"ha":828,"x_min":67,"x_max":799,"o":"m 67 0 l 67 106 l 608 858 l 67 858 l 67 979 l 778 979 l 778 874 l 235 121 l 799 121 l 799 0 l 67 0 m 367 1063 l 196 1303 l 297 1303 l 429 1147 l 561 1303 l 663 1303 l 492 1063 l 367 1063 z "},"Ż":{"ha":828,"x_min":67,"x_max":799,"o":"m 67 0 l 67 106 l 608 858 l 67 858 l 67 979 l 778 979 l 778 874 l 235 121 l 799 121 l 799 0 l 67 0 m 357 1113 l 357 1253 l 501 1253 l 501 1113 l 357 1113 z "},"Ẓ":{"ha":828,"x_min":67,"x_max":799,"o":"m 67 0 l 67 106 l 608 858 l 67 858 l 67 979 l 778 979 l 778 874 l 235 121 l 799 121 l 799 0 l 67 0 m 357 -271 l 357 -131 l 504 -131 l 504 -271 l 357 -271 z "},"a":{"ha":746,"x_min":68,"x_max":651,"o":"m 315 -12 q 189 15 244 -12 q 101 90 133 43 q 68 197 68 138 q 106 315 68 272 q 233 378 144 358 q 471 397 321 397 l 518 397 l 518 433 q 485 547 518 513 q 375 582 451 582 q 258 565 317 582 q 139 510 200 547 l 96 608 q 228 668 149 646 q 379 690 307 690 q 585 624 518 690 q 651 418 651 558 l 651 0 l 519 0 l 519 113 q 442 21 494 54 q 315 -12 389 -12 m 343 88 q 468 140 418 88 q 518 274 518 193 l 518 311 l 472 311 q 313 301 371 311 q 231 269 256 292 q 207 206 207 246 q 243 120 207 153 q 343 88 279 88 z "},"á":{"ha":746,"x_min":68,"x_max":651,"o":"m 315 -12 q 189 15 244 -12 q 101 90 133 43 q 68 197 68 138 q 106 315 68 272 q 233 378 144 358 q 471 397 321 397 l 518 397 l 518 433 q 485 547 518 513 q 375 582 451 582 q 258 565 317 582 q 139 510 200 547 l 96 608 q 228 668 149 646 q 379 690 307 690 q 585 624 518 690 q 651 418 651 558 l 651 0 l 519 0 l 519 113 q 442 21 494 54 q 315 -12 389 -12 m 343 88 q 468 140 418 88 q 518 274 518 193 l 518 311 l 472 311 q 313 301 371 311 q 231 269 256 292 q 207 206 207 246 q 243 120 207 153 q 343 88 279 88 m 333 768 l 476 1049 l 619 1049 l 431 768 l 333 768 z "},"ă":{"ha":746,"x_min":68,"x_max":651,"o":"m 315 -12 q 189 15 244 -12 q 101 90 133 43 q 68 197 68 138 q 106 315 68 272 q 233 378 144 358 q 471 397 321 397 l 518 397 l 518 433 q 485 547 518 513 q 375 582 451 582 q 258 565 317 582 q 139 510 200 547 l 96 608 q 228 668 149 646 q 379 690 307 690 q 585 624 518 690 q 651 418 651 558 l 651 0 l 519 0 l 519 113 q 442 21 494 54 q 315 -12 389 -12 m 343 88 q 468 140 418 88 q 518 274 518 193 l 518 311 l 472 311 q 313 301 371 311 q 231 269 256 292 q 207 206 207 246 q 243 120 207 153 q 343 88 279 88 m 382 764 q 225 835 285 764 q 160 1029 165 906 l 243 1038 q 285 901 249 949 q 382 853 321 853 q 479 901 443 853 q 521 1038 515 949 l 604 1029 q 540 835 600 906 q 382 764 479 764 z "},"ắ":{"ha":746,"x_min":68,"x_max":651,"o":"m 315 -12 q 189 15 244 -12 q 101 90 133 43 q 68 197 68 138 q 106 315 68 272 q 233 378 144 358 q 471 397 321 397 l 518 397 l 518 433 q 485 547 518 513 q 375 582 451 582 q 258 565 317 582 q 139 510 200 547 l 96 608 q 228 668 149 646 q 379 690 307 690 q 585 624 518 690 q 651 418 651 558 l 651 0 l 519 0 l 519 113 q 442 21 494 54 q 315 -12 389 -12 m 343 88 q 468 140 418 88 q 518 274 518 193 l 518 311 l 472 311 q 313 301 371 311 q 231 269 256 292 q 207 206 207 246 q 243 120 207 153 q 343 88 279 88 m 328 931 l 439 1121 l 579 1121 l 419 931 l 328 931 m 382 764 q 224 820 285 764 q 156 974 164 876 l 229 982 q 277 883 239 918 q 382 847 315 847 q 487 883 449 847 q 535 982 525 918 l 608 974 q 540 820 600 876 q 382 764 479 764 z "},"ặ":{"ha":746,"x_min":68,"x_max":651,"o":"m 315 -12 q 189 15 244 -12 q 101 90 133 43 q 68 197 68 138 q 106 315 68 272 q 233 378 144 358 q 471 397 321 397 l 518 397 l 518 433 q 485 547 518 513 q 375 582 451 582 q 258 565 317 582 q 139 510 200 547 l 96 608 q 228 668 149 646 q 379 690 307 690 q 585 624 518 690 q 651 418 651 558 l 651 0 l 519 0 l 519 113 q 442 21 494 54 q 315 -12 389 -12 m 343 88 q 468 140 418 88 q 518 274 518 193 l 518 311 l 472 311 q 313 301 371 311 q 231 269 256 292 q 207 206 207 246 q 243 120 207 153 q 343 88 279 88 m 303 -271 l 303 -131 l 450 -131 l 450 -271 l 303 -271 m 382 764 q 225 835 285 764 q 160 1029 165 906 l 243 1038 q 285 901 249 949 q 382 853 321 853 q 479 901 443 853 q 521 1038 515 949 l 604 1029 q 540 835 600 906 q 382 764 479 764 z "},"ằ":{"ha":746,"x_min":68,"x_max":651,"o":"m 315 -12 q 189 15 244 -12 q 101 90 133 43 q 68 197 68 138 q 106 315 68 272 q 233 378 144 358 q 471 397 321 397 l 518 397 l 518 433 q 485 547 518 513 q 375 582 451 582 q 258 565 317 582 q 139 510 200 547 l 96 608 q 228 668 149 646 q 379 690 307 690 q 585 624 518 690 q 651 418 651 558 l 651 0 l 519 0 l 519 113 q 442 21 494 54 q 315 -12 389 -12 m 343 88 q 468 140 418 88 q 518 274 518 193 l 518 311 l 472 311 q 313 301 371 311 q 231 269 256 292 q 207 206 207 246 q 243 120 207 153 q 343 88 279 88 m 344 931 l 185 1121 l 325 1121 l 436 931 l 344 931 m 382 764 q 224 820 285 764 q 156 974 164 876 l 229 982 q 277 883 239 918 q 382 847 315 847 q 487 883 449 847 q 535 982 525 918 l 608 974 q 540 820 600 876 q 382 764 479 764 z "},"ẳ":{"ha":746,"x_min":68,"x_max":651,"o":"m 315 -12 q 189 15 244 -12 q 101 90 133 43 q 68 197 68 138 q 106 315 68 272 q 233 378 144 358 q 471 397 321 397 l 518 397 l 518 433 q 485 547 518 513 q 375 582 451 582 q 258 565 317 582 q 139 510 200 547 l 96 608 q 228 668 149 646 q 379 690 307 690 q 585 624 518 690 q 651 418 651 558 l 651 0 l 519 0 l 519 113 q 442 21 494 54 q 315 -12 389 -12 m 343 88 q 468 140 418 88 q 518 274 518 193 l 518 311 l 472 311 q 313 301 371 311 q 231 269 256 292 q 207 206 207 246 q 243 120 207 153 q 343 88 279 88 m 342 931 q 353 973 342 957 q 380 999 365 989 q 406 1018 394 1008 q 418 1043 418 1028 q 363 1069 418 1069 q 323 1065 343 1069 q 279 1053 303 1061 l 260 1110 q 317 1129 286 1122 q 388 1136 347 1136 q 482 1117 449 1136 q 515 1064 515 1097 q 501 1022 515 1038 q 469 994 488 1006 q 438 969 451 983 q 424 931 424 954 l 342 931 m 382 764 q 224 820 285 764 q 156 974 164 876 l 229 982 q 277 883 239 918 q 382 847 315 847 q 487 883 449 847 q 535 982 525 918 l 608 974 q 540 820 600 876 q 382 764 479 764 z "},"ẵ":{"ha":746,"x_min":68,"x_max":651,"o":"m 315 -12 q 189 15 244 -12 q 101 90 133 43 q 68 197 68 138 q 106 315 68 272 q 233 378 144 358 q 471 397 321 397 l 518 397 l 518 433 q 485 547 518 513 q 375 582 451 582 q 258 565 317 582 q 139 510 200 547 l 96 608 q 228 668 149 646 q 379 690 307 690 q 585 624 518 690 q 651 418 651 558 l 651 0 l 519 0 l 519 113 q 442 21 494 54 q 315 -12 389 -12 m 343 88 q 468 140 418 88 q 518 274 518 193 l 518 311 l 472 311 q 313 301 371 311 q 231 269 256 292 q 207 206 207 246 q 243 120 207 153 q 343 88 279 88 m 224 985 l 154 989 q 197 1098 158 1061 q 292 1135 235 1135 q 340 1125 317 1135 q 396 1096 364 1115 q 439 1073 422 1079 q 469 1067 456 1067 q 540 1136 528 1067 l 610 1132 q 568 1024 606 1060 q 474 988 531 988 q 423 997 447 988 q 367 1026 399 1007 q 326 1047 342 1040 q 296 1054 310 1054 q 248 1038 264 1054 q 224 985 232 1021 m 382 764 q 235 805 296 764 q 156 918 175 846 l 229 936 q 382 847 263 847 q 481 871 443 847 q 535 936 519 894 l 608 918 q 530 806 590 847 q 382 764 469 764 z "},"ǎ":{"ha":746,"x_min":68,"x_max":651,"o":"m 315 -12 q 189 15 244 -12 q 101 90 133 43 q 68 197 68 138 q 106 315 68 272 q 233 378 144 358 q 471 397 321 397 l 518 397 l 518 433 q 485 547 518 513 q 375 582 451 582 q 258 565 317 582 q 139 510 200 547 l 96 608 q 228 668 149 646 q 379 690 307 690 q 585 624 518 690 q 651 418 651 558 l 651 0 l 519 0 l 519 113 q 442 21 494 54 q 315 -12 389 -12 m 343 88 q 468 140 418 88 q 518 274 518 193 l 518 311 l 472 311 q 313 301 371 311 q 231 269 256 292 q 207 206 207 246 q 243 120 207 153 q 343 88 279 88 m 318 768 l 165 1049 l 258 1049 l 382 853 l 506 1049 l 599 1049 l 446 768 l 318 768 z "},"â":{"ha":746,"x_min":68,"x_max":651,"o":"m 315 -12 q 189 15 244 -12 q 101 90 133 43 q 68 197 68 138 q 106 315 68 272 q 233 378 144 358 q 471 397 321 397 l 518 397 l 518 433 q 485 547 518 513 q 375 582 451 582 q 258 565 317 582 q 139 510 200 547 l 96 608 q 228 668 149 646 q 379 690 307 690 q 585 624 518 690 q 651 418 651 558 l 651 0 l 519 0 l 519 113 q 442 21 494 54 q 315 -12 389 -12 m 343 88 q 468 140 418 88 q 518 274 518 193 l 518 311 l 472 311 q 313 301 371 311 q 231 269 256 292 q 207 206 207 246 q 243 120 207 153 q 343 88 279 88 m 165 768 l 318 1049 l 446 1049 l 599 768 l 506 768 l 382 963 l 258 768 l 165 768 z "},"ấ":{"ha":746,"x_min":68,"x_max":765,"o":"m 315 -12 q 189 15 244 -12 q 101 90 133 43 q 68 197 68 138 q 106 315 68 272 q 233 378 144 358 q 471 397 321 397 l 518 397 l 518 433 q 485 547 518 513 q 375 582 451 582 q 258 565 317 582 q 139 510 200 547 l 96 608 q 228 668 149 646 q 379 690 307 690 q 585 624 518 690 q 651 418 651 558 l 651 0 l 519 0 l 519 113 q 442 21 494 54 q 315 -12 389 -12 m 343 88 q 468 140 418 88 q 518 274 518 193 l 518 311 l 472 311 q 313 301 371 311 q 231 269 256 292 q 207 206 207 246 q 243 120 207 153 q 343 88 279 88 m 522 913 l 640 1121 l 765 1121 l 607 913 l 522 913 m 165 768 l 318 993 l 446 993 l 599 768 l 506 768 l 382 911 l 258 768 l 165 768 z "},"ậ":{"ha":746,"x_min":68,"x_max":651,"o":"m 315 -12 q 189 15 244 -12 q 101 90 133 43 q 68 197 68 138 q 106 315 68 272 q 233 378 144 358 q 471 397 321 397 l 518 397 l 518 433 q 485 547 518 513 q 375 582 451 582 q 258 565 317 582 q 139 510 200 547 l 96 608 q 228 668 149 646 q 379 690 307 690 q 585 624 518 690 q 651 418 651 558 l 651 0 l 519 0 l 519 113 q 442 21 494 54 q 315 -12 389 -12 m 343 88 q 468 140 418 88 q 518 274 518 193 l 518 311 l 472 311 q 313 301 371 311 q 231 269 256 292 q 207 206 207 246 q 243 120 207 153 q 343 88 279 88 m 303 -271 l 303 -131 l 450 -131 l 450 -271 l 303 -271 m 165 768 l 318 1049 l 446 1049 l 599 768 l 506 768 l 382 963 l 258 768 l 165 768 z "},"ầ":{"ha":746,"x_min":68,"x_max":663,"o":"m 315 -12 q 189 15 244 -12 q 101 90 133 43 q 68 197 68 138 q 106 315 68 272 q 233 378 144 358 q 471 397 321 397 l 518 397 l 518 433 q 485 547 518 513 q 375 582 451 582 q 258 565 317 582 q 139 510 200 547 l 96 608 q 228 668 149 646 q 379 690 307 690 q 585 624 518 690 q 651 418 651 558 l 651 0 l 519 0 l 519 113 q 442 21 494 54 q 315 -12 389 -12 m 343 88 q 468 140 418 88 q 518 274 518 193 l 518 311 l 472 311 q 313 301 371 311 q 231 269 256 292 q 207 206 207 246 q 243 120 207 153 q 343 88 279 88 m 576 913 l 419 1121 l 544 1121 l 663 913 l 576 913 m 165 768 l 318 993 l 446 993 l 599 768 l 506 768 l 382 911 l 258 768 l 165 768 z "},"ẩ":{"ha":746,"x_min":68,"x_max":703,"o":"m 315 -12 q 189 15 244 -12 q 101 90 133 43 q 68 197 68 138 q 106 315 68 272 q 233 378 144 358 q 471 397 321 397 l 518 397 l 518 433 q 485 547 518 513 q 375 582 451 582 q 258 565 317 582 q 139 510 200 547 l 96 608 q 228 668 149 646 q 379 690 307 690 q 585 624 518 690 q 651 418 651 558 l 651 0 l 519 0 l 519 113 q 442 21 494 54 q 315 -12 389 -12 m 343 88 q 468 140 418 88 q 518 274 518 193 l 518 311 l 472 311 q 313 301 371 311 q 231 269 256 292 q 207 206 207 246 q 243 120 207 153 q 343 88 279 88 m 529 913 q 540 958 529 940 q 567 986 551 975 q 594 1008 582 997 q 606 1035 606 1019 q 550 1060 606 1060 q 510 1056 531 1060 q 467 1044 489 1053 l 447 1103 q 575 1126 499 1126 q 669 1108 636 1126 q 703 1056 703 1089 q 689 1011 703 1028 q 657 981 675 994 q 625 953 639 968 q 611 913 611 938 l 529 913 m 165 768 l 318 993 l 446 993 l 599 768 l 506 768 l 382 911 l 258 768 l 165 768 z "},"ẫ":{"ha":746,"x_min":68,"x_max":651,"o":"m 315 -12 q 189 15 244 -12 q 101 90 133 43 q 68 197 68 138 q 106 315 68 272 q 233 378 144 358 q 471 397 321 397 l 518 397 l 518 433 q 485 547 518 513 q 375 582 451 582 q 258 565 317 582 q 139 510 200 547 l 96 608 q 228 668 149 646 q 379 690 307 690 q 585 624 518 690 q 651 418 651 558 l 651 0 l 519 0 l 519 113 q 442 21 494 54 q 315 -12 389 -12 m 343 88 q 468 140 418 88 q 518 274 518 193 l 518 311 l 472 311 q 313 301 371 311 q 231 269 256 292 q 207 206 207 246 q 243 120 207 153 q 343 88 279 88 m 224 985 l 154 989 q 197 1098 158 1061 q 292 1135 235 1135 q 340 1125 317 1135 q 396 1096 364 1115 q 439 1073 422 1079 q 469 1067 456 1067 q 540 1136 528 1067 l 610 1132 q 568 1024 606 1060 q 474 988 531 988 q 423 997 447 988 q 367 1026 399 1007 q 326 1047 342 1040 q 296 1054 310 1054 q 248 1038 264 1054 q 224 985 232 1021 m 165 768 l 318 951 l 446 951 l 599 768 l 507 768 l 382 876 l 257 768 l 165 768 z "},"ȁ":{"ha":746,"x_min":68,"x_max":651,"o":"m 315 -12 q 189 15 244 -12 q 101 90 133 43 q 68 197 68 138 q 106 315 68 272 q 233 378 144 358 q 471 397 321 397 l 518 397 l 518 433 q 485 547 518 513 q 375 582 451 582 q 258 565 317 582 q 139 510 200 547 l 96 608 q 228 668 149 646 q 379 690 307 690 q 585 624 518 690 q 651 418 651 558 l 651 0 l 519 0 l 519 113 q 442 21 494 54 q 315 -12 389 -12 m 343 88 q 468 140 418 88 q 518 274 518 193 l 518 311 l 472 311 q 313 301 371 311 q 231 269 256 292 q 207 206 207 246 q 243 120 207 153 q 343 88 279 88 m 440 768 l 322 1049 l 446 1049 l 517 768 l 440 768 m 251 768 l 132 1049 l 254 1049 l 326 768 l 251 768 z "},"ä":{"ha":746,"x_min":68,"x_max":651,"o":"m 315 -12 q 189 15 244 -12 q 101 90 133 43 q 68 197 68 138 q 106 315 68 272 q 233 378 144 358 q 471 397 321 397 l 518 397 l 518 433 q 485 547 518 513 q 375 582 451 582 q 258 565 317 582 q 139 510 200 547 l 96 608 q 228 668 149 646 q 379 690 307 690 q 585 624 518 690 q 651 418 651 558 l 651 0 l 519 0 l 519 113 q 442 21 494 54 q 315 -12 389 -12 m 343 88 q 468 140 418 88 q 518 274 518 193 l 518 311 l 472 311 q 313 301 371 311 q 231 269 256 292 q 207 206 207 246 q 243 120 207 153 q 343 88 279 88 m 438 839 l 438 976 l 576 976 l 576 839 l 438 839 m 188 839 l 188 976 l 326 976 l 326 839 l 188 839 z "},"ȧ":{"ha":746,"x_min":68,"x_max":651,"o":"m 315 -12 q 189 15 244 -12 q 101 90 133 43 q 68 197 68 138 q 106 315 68 272 q 233 378 144 358 q 471 397 321 397 l 518 397 l 518 433 q 485 547 518 513 q 375 582 451 582 q 258 565 317 582 q 139 510 200 547 l 96 608 q 228 668 149 646 q 379 690 307 690 q 585 624 518 690 q 651 418 651 558 l 651 0 l 519 0 l 519 113 q 442 21 494 54 q 315 -12 389 -12 m 343 88 q 468 140 418 88 q 518 274 518 193 l 518 311 l 472 311 q 313 301 371 311 q 231 269 256 292 q 207 206 207 246 q 243 120 207 153 q 343 88 279 88 m 308 838 l 308 978 l 456 978 l 456 838 l 308 838 z "},"ạ":{"ha":746,"x_min":68,"x_max":651,"o":"m 315 -12 q 189 15 244 -12 q 101 90 133 43 q 68 197 68 138 q 106 315 68 272 q 233 378 144 358 q 471 397 321 397 l 518 397 l 518 433 q 485 547 518 513 q 375 582 451 582 q 258 565 317 582 q 139 510 200 547 l 96 608 q 228 668 149 646 q 379 690 307 690 q 585 624 518 690 q 651 418 651 558 l 651 0 l 519 0 l 519 113 q 442 21 494 54 q 315 -12 389 -12 m 343 88 q 468 140 418 88 q 518 274 518 193 l 518 311 l 472 311 q 313 301 371 311 q 231 269 256 292 q 207 206 207 246 q 243 120 207 153 q 343 88 279 88 m 303 -271 l 303 -131 l 450 -131 l 450 -271 l 303 -271 z "},"à":{"ha":746,"x_min":68,"x_max":651,"o":"m 315 -12 q 189 15 244 -12 q 101 90 133 43 q 68 197 68 138 q 106 315 68 272 q 233 378 144 358 q 471 397 321 397 l 518 397 l 518 433 q 485 547 518 513 q 375 582 451 582 q 258 565 317 582 q 139 510 200 547 l 96 608 q 228 668 149 646 q 379 690 307 690 q 585 624 518 690 q 651 418 651 558 l 651 0 l 519 0 l 519 113 q 442 21 494 54 q 315 -12 389 -12 m 343 88 q 468 140 418 88 q 518 274 518 193 l 518 311 l 472 311 q 313 301 371 311 q 231 269 256 292 q 207 206 207 246 q 243 120 207 153 q 343 88 279 88 m 333 768 l 144 1049 l 288 1049 l 431 768 l 333 768 z "},"ả":{"ha":746,"x_min":68,"x_max":651,"o":"m 315 -12 q 189 15 244 -12 q 101 90 133 43 q 68 197 68 138 q 106 315 68 272 q 233 378 144 358 q 471 397 321 397 l 518 397 l 518 433 q 485 547 518 513 q 375 582 451 582 q 258 565 317 582 q 139 510 200 547 l 96 608 q 228 668 149 646 q 379 690 307 690 q 585 624 518 690 q 651 418 651 558 l 651 0 l 519 0 l 519 113 q 442 21 494 54 q 315 -12 389 -12 m 343 88 q 468 140 418 88 q 518 274 518 193 l 518 311 l 472 311 q 313 301 371 311 q 231 269 256 292 q 207 206 207 246 q 243 120 207 153 q 343 88 279 88 m 338 768 l 338 796 q 350 847 338 826 q 378 881 363 867 q 407 910 394 896 q 419 944 419 925 q 360 982 419 982 q 317 977 338 982 q 274 960 297 972 l 251 1026 q 389 1058 306 1058 q 493 1033 456 1058 q 531 961 531 1007 q 515 905 531 926 q 478 868 499 883 q 442 835 458 853 q 426 789 426 818 l 426 768 l 338 768 z "},"ȃ":{"ha":746,"x_min":68,"x_max":651,"o":"m 315 -12 q 189 15 244 -12 q 101 90 133 43 q 68 197 68 138 q 106 315 68 272 q 233 378 144 358 q 471 397 321 397 l 518 397 l 518 433 q 485 547 518 513 q 375 582 451 582 q 258 565 317 582 q 139 510 200 547 l 96 608 q 228 668 149 646 q 379 690 307 690 q 585 624 518 690 q 651 418 651 558 l 651 0 l 519 0 l 519 113 q 442 21 494 54 q 315 -12 389 -12 m 343 88 q 468 140 418 88 q 518 274 518 193 l 518 311 l 472 311 q 313 301 371 311 q 231 269 256 292 q 207 206 207 246 q 243 120 207 153 q 343 88 279 88 m 243 764 l 160 771 q 225 966 165 894 q 382 1038 285 1038 q 540 966 479 1038 q 604 771 600 894 l 521 764 q 479 900 515 851 q 382 949 443 949 q 285 900 321 949 q 243 764 249 851 z "},"ā":{"ha":746,"x_min":68,"x_max":651,"o":"m 315 -12 q 189 15 244 -12 q 101 90 133 43 q 68 197 68 138 q 106 315 68 272 q 233 378 144 358 q 471 397 321 397 l 518 397 l 518 433 q 485 547 518 513 q 375 582 451 582 q 258 565 317 582 q 139 510 200 547 l 96 608 q 228 668 149 646 q 379 690 307 690 q 585 624 518 690 q 651 418 651 558 l 651 0 l 519 0 l 519 113 q 442 21 494 54 q 315 -12 389 -12 m 343 88 q 468 140 418 88 q 518 274 518 193 l 518 311 l 472 311 q 313 301 371 311 q 231 269 256 292 q 207 206 207 246 q 243 120 207 153 q 343 88 279 88 m 171 863 l 171 951 l 594 951 l 594 863 l 171 863 z "},"ą":{"ha":746,"x_min":68,"x_max":704,"o":"m 315 -12 q 189 15 244 -12 q 101 90 133 43 q 68 197 68 138 q 106 315 68 272 q 233 378 144 358 q 471 397 321 397 l 518 397 l 518 433 q 485 547 518 513 q 375 582 451 582 q 258 565 317 582 q 139 510 200 547 l 96 608 q 228 668 149 646 q 379 690 307 690 q 585 624 518 690 q 651 418 651 558 l 651 0 l 519 0 l 519 113 q 442 21 494 54 q 315 -12 389 -12 m 343 88 q 468 140 418 88 q 518 274 518 193 l 518 311 l 472 311 q 313 301 371 311 q 231 269 256 292 q 207 206 207 246 q 243 120 207 153 q 343 88 279 88 m 590 -269 q 478 -231 519 -269 q 436 -129 436 -193 q 473 -24 436 -72 q 574 54 510 25 l 618 0 q 558 -44 585 -14 q 531 -114 531 -74 q 553 -170 531 -151 q 610 -189 575 -189 q 683 -172 643 -189 l 704 -246 q 590 -269 657 -269 z "},"å":{"ha":746,"x_min":68,"x_max":651,"o":"m 315 -12 q 189 15 244 -12 q 101 90 133 43 q 68 197 68 138 q 106 315 68 272 q 233 378 144 358 q 471 397 321 397 l 518 397 l 518 433 q 485 547 518 513 q 375 582 451 582 q 258 565 317 582 q 139 510 200 547 l 96 608 q 228 668 149 646 q 379 690 307 690 q 585 624 518 690 q 651 418 651 558 l 651 0 l 519 0 l 519 113 q 442 21 494 54 q 315 -12 389 -12 m 343 88 q 468 140 418 88 q 518 274 518 193 l 518 311 l 472 311 q 313 301 371 311 q 231 269 256 292 q 207 206 207 246 q 243 120 207 153 q 343 88 279 88 m 382 758 q 261 807 310 758 q 213 925 213 856 q 261 1042 213 994 q 382 1089 310 1089 q 503 1042 454 1089 q 551 925 551 994 q 503 807 551 856 q 382 758 454 758 m 382 828 q 451 856 424 828 q 478 925 478 883 q 451 992 478 965 q 382 1019 424 1019 q 313 992 340 1019 q 286 925 286 965 q 313 856 286 883 q 382 828 340 828 z "},"ǻ":{"ha":746,"x_min":68,"x_max":690,"o":"m 315 -12 q 189 15 244 -12 q 101 90 133 43 q 68 197 68 138 q 106 315 68 272 q 233 378 144 358 q 471 397 321 397 l 518 397 l 518 433 q 485 547 518 513 q 375 582 451 582 q 258 565 317 582 q 139 510 200 547 l 96 608 q 228 668 149 646 q 379 690 307 690 q 585 624 518 690 q 651 418 651 558 l 651 0 l 519 0 l 519 113 q 442 21 494 54 q 315 -12 389 -12 m 343 88 q 468 140 418 88 q 518 274 518 193 l 518 311 l 472 311 q 313 301 371 311 q 231 269 256 292 q 207 206 207 246 q 243 120 207 153 q 343 88 279 88 m 382 754 q 265 800 313 754 q 218 914 218 846 q 265 1027 218 981 q 382 1074 313 1074 q 430 1067 407 1074 q 472 1047 453 1060 l 567 1135 l 690 1135 l 525 994 q 546 914 546 957 q 499 800 546 846 q 382 754 451 754 m 382 819 q 451 846 424 819 q 478 914 478 872 q 451 982 478 956 q 382 1008 424 1008 q 313 982 340 1008 q 286 914 286 956 q 313 846 286 872 q 382 819 340 819 z "},"ã":{"ha":746,"x_min":68,"x_max":651,"o":"m 315 -12 q 189 15 244 -12 q 101 90 133 43 q 68 197 68 138 q 106 315 68 272 q 233 378 144 358 q 471 397 321 397 l 518 397 l 518 433 q 485 547 518 513 q 375 582 451 582 q 258 565 317 582 q 139 510 200 547 l 96 608 q 228 668 149 646 q 379 690 307 690 q 585 624 518 690 q 651 418 651 558 l 651 0 l 519 0 l 519 113 q 442 21 494 54 q 315 -12 389 -12 m 343 88 q 468 140 418 88 q 518 274 518 193 l 518 311 l 472 311 q 313 301 371 311 q 231 269 256 292 q 207 206 207 246 q 243 120 207 153 q 343 88 279 88 m 197 815 l 124 821 q 172 963 131 911 q 281 1015 214 1015 q 337 1001 311 1015 q 396 960 363 988 q 445 925 426 935 q 481 915 464 915 q 567 1019 551 915 l 640 1015 q 593 872 635 924 q 485 821 551 821 q 431 833 457 821 q 368 875 406 846 q 321 910 339 900 q 283 919 303 919 q 197 815 214 919 z "},"æ":{"ha":1199,"x_min":68,"x_max":1146,"o":"m 326 -12 q 192 15 250 -12 q 101 90 133 43 q 68 197 68 138 q 107 315 68 272 q 235 377 146 358 q 474 396 324 396 l 519 396 l 519 432 q 485 547 519 511 q 378 582 451 582 q 258 565 317 582 q 139 510 200 549 l 96 608 q 228 668 149 646 q 381 690 307 690 q 610 572 553 690 q 713 660 649 631 q 849 690 776 690 q 1066 601 986 690 q 1146 354 1146 511 l 1146 310 l 657 310 q 874 96 671 96 q 1092 174 993 96 l 1135 76 q 1016 11 1088 35 q 874 -12 944 -12 q 692 28 769 -12 q 576 149 615 68 q 483 30 549 72 q 326 -12 418 -12 m 850 592 q 717 540 768 592 q 657 396 667 489 l 1026 396 q 977 540 1022 489 q 850 592 932 592 m 344 88 q 471 142 422 88 q 519 281 519 196 l 519 310 l 472 310 q 313 301 371 310 q 231 269 256 292 q 207 206 207 246 q 243 120 207 153 q 344 88 279 88 z "},"ǽ":{"ha":1199,"x_min":68,"x_max":1146,"o":"m 326 -12 q 192 15 250 -12 q 101 90 133 43 q 68 197 68 138 q 107 315 68 272 q 235 377 146 358 q 474 396 324 396 l 519 396 l 519 432 q 485 547 519 511 q 378 582 451 582 q 258 565 317 582 q 139 510 200 549 l 96 608 q 228 668 149 646 q 381 690 307 690 q 610 572 553 690 q 713 660 649 631 q 849 690 776 690 q 1066 601 986 690 q 1146 354 1146 511 l 1146 310 l 657 310 q 874 96 671 96 q 1092 174 993 96 l 1135 76 q 1016 11 1088 35 q 874 -12 944 -12 q 692 28 769 -12 q 576 149 615 68 q 483 30 549 72 q 326 -12 418 -12 m 850 592 q 717 540 768 592 q 657 396 667 489 l 1026 396 q 977 540 1022 489 q 850 592 932 592 m 344 88 q 471 142 422 88 q 519 281 519 196 l 519 310 l 472 310 q 313 301 371 310 q 231 269 256 292 q 207 206 207 246 q 243 120 207 153 q 344 88 279 88 m 528 768 l 671 1049 l 814 1049 l 625 768 l 528 768 z "},"b":{"ha":821,"x_min":99,"x_max":761,"o":"m 463 -12 q 325 22 385 -12 q 236 115 265 57 l 236 0 l 99 0 l 99 979 l 239 979 l 239 568 q 328 657 269 624 q 463 690 388 690 q 620 647 553 690 q 724 526 688 604 q 761 339 761 447 q 724 151 761 231 q 620 30 688 72 q 463 -12 553 -12 m 428 96 q 567 158 515 96 q 619 339 619 221 q 567 519 619 457 q 428 581 515 581 q 288 519 340 581 q 236 339 236 457 q 288 158 236 221 q 428 96 340 96 z "},"ɓ":{"ha":821,"x_min":99,"x_max":761,"o":"m 463 -12 q 325 22 385 -12 q 236 115 265 57 l 236 0 l 99 0 l 99 742 q 162 926 99 860 q 350 992 225 992 q 433 979 394 992 l 417 872 q 388 878 399 876 q 361 879 376 879 q 269 844 300 879 q 239 742 239 808 l 239 568 q 328 657 269 624 q 463 690 388 690 q 620 647 553 690 q 724 526 688 604 q 761 339 761 447 q 724 151 761 231 q 620 30 688 72 q 463 -12 553 -12 m 428 96 q 567 158 515 96 q 619 339 619 221 q 567 519 619 457 q 428 581 515 581 q 288 519 340 581 q 236 339 236 457 q 288 158 236 221 q 428 96 340 96 z "},"c":{"ha":649,"x_min":58,"x_max":626,"o":"m 397 -12 q 217 31 293 -12 q 100 155 142 75 q 58 343 58 235 q 150 597 58 504 q 397 690 242 690 q 524 668 461 690 q 626 607 586 646 l 582 508 q 497 562 543 544 q 408 579 450 579 q 256 517 310 579 q 203 342 203 456 q 256 163 203 228 q 408 99 310 99 q 497 116 450 99 q 582 169 543 133 l 626 69 q 523 10 586 32 q 397 -12 460 -12 z "},"ć":{"ha":649,"x_min":58,"x_max":626,"o":"m 397 -12 q 217 31 293 -12 q 100 155 142 75 q 58 343 58 235 q 150 597 58 504 q 397 690 242 690 q 524 668 461 690 q 626 607 586 646 l 582 508 q 497 562 543 544 q 408 579 450 579 q 256 517 310 579 q 203 342 203 456 q 256 163 203 228 q 408 99 310 99 q 497 116 450 99 q 582 169 543 133 l 626 69 q 523 10 586 32 q 397 -12 460 -12 m 340 768 l 483 1049 l 626 1049 l 438 768 l 340 768 z "},"č":{"ha":649,"x_min":58,"x_max":626,"o":"m 397 -12 q 217 31 293 -12 q 100 155 142 75 q 58 343 58 235 q 150 597 58 504 q 397 690 242 690 q 524 668 461 690 q 626 607 586 646 l 582 508 q 497 562 543 544 q 408 579 450 579 q 256 517 310 579 q 203 342 203 456 q 256 163 203 228 q 408 99 310 99 q 497 116 450 99 q 582 169 543 133 l 626 69 q 523 10 586 32 q 397 -12 460 -12 m 325 768 l 172 1049 l 265 1049 l 389 853 l 513 1049 l 606 1049 l 453 768 l 325 768 z "},"ç":{"ha":649,"x_min":58,"x_max":626,"o":"m 397 -12 q 217 31 293 -12 q 100 155 142 75 q 58 343 58 235 q 150 597 58 504 q 397 690 242 690 q 524 668 461 690 q 626 607 586 646 l 582 508 q 497 562 543 544 q 408 579 450 579 q 256 517 310 579 q 203 342 203 456 q 256 163 203 228 q 408 99 310 99 q 497 116 450 99 q 582 169 543 133 l 626 69 q 523 10 586 32 q 397 -12 460 -12 m 392 -269 q 319 -262 354 -269 q 260 -240 283 -254 l 281 -172 q 330 -189 307 -183 q 383 -194 353 -194 q 442 -183 421 -194 q 463 -149 463 -171 q 410 -112 463 -112 q 382 -115 396 -112 q 349 -122 368 -117 l 324 -100 l 343 28 l 424 28 l 410 -57 q 431 -56 421 -56 q 518 -81 485 -56 q 551 -153 551 -107 q 507 -237 551 -204 q 392 -269 463 -269 z "},"ḉ":{"ha":649,"x_min":58,"x_max":626,"o":"m 397 -12 q 217 31 293 -12 q 100 155 142 75 q 58 343 58 235 q 150 597 58 504 q 397 690 242 690 q 524 668 461 690 q 626 607 586 646 l 582 508 q 497 562 543 544 q 408 579 450 579 q 256 517 310 579 q 203 342 203 456 q 256 163 203 228 q 408 99 310 99 q 497 116 450 99 q 582 169 543 133 l 626 69 q 523 10 586 32 q 397 -12 460 -12 m 392 -269 q 319 -262 354 -269 q 260 -240 283 -254 l 281 -172 q 330 -189 307 -183 q 383 -194 353 -194 q 442 -183 421 -194 q 463 -149 463 -171 q 410 -112 463 -112 q 382 -115 396 -112 q 349 -122 368 -117 l 324 -100 l 343 28 l 424 28 l 410 -57 q 431 -56 421 -56 q 518 -81 485 -56 q 551 -153 551 -107 q 507 -237 551 -204 q 392 -269 463 -269 m 340 768 l 483 1049 l 626 1049 l 438 768 l 340 768 z "},"ĉ":{"ha":649,"x_min":58,"x_max":626,"o":"m 397 -12 q 217 31 293 -12 q 100 155 142 75 q 58 343 58 235 q 150 597 58 504 q 397 690 242 690 q 524 668 461 690 q 626 607 586 646 l 582 508 q 497 562 543 544 q 408 579 450 579 q 256 517 310 579 q 203 342 203 456 q 256 163 203 228 q 408 99 310 99 q 497 116 450 99 q 582 169 543 133 l 626 69 q 523 10 586 32 q 397 -12 460 -12 m 172 768 l 325 1049 l 453 1049 l 606 768 l 513 768 l 389 963 l 265 768 l 172 768 z "},"ċ":{"ha":649,"x_min":58,"x_max":626,"o":"m 397 -12 q 217 31 293 -12 q 100 155 142 75 q 58 343 58 235 q 150 597 58 504 q 397 690 242 690 q 524 668 461 690 q 626 607 586 646 l 582 508 q 497 562 543 544 q 408 579 450 579 q 256 517 310 579 q 203 342 203 456 q 256 163 203 228 q 408 99 310 99 q 497 116 450 99 q 582 169 543 133 l 626 69 q 523 10 586 32 q 397 -12 460 -12 m 315 838 l 315 978 l 463 978 l 463 838 l 315 838 z "},"d":{"ha":821,"x_min":58,"x_max":722,"o":"m 357 -12 q 201 30 268 -12 q 96 151 133 72 q 58 339 58 231 q 96 526 58 447 q 200 647 133 604 q 357 690 267 690 q 493 657 433 690 q 582 567 553 624 l 582 979 l 722 979 l 722 0 l 585 0 l 585 118 q 495 22 556 57 q 357 -12 435 -12 m 393 96 q 532 158 479 96 q 585 339 585 221 q 532 519 585 457 q 393 581 479 581 q 253 519 306 581 q 200 339 200 457 q 253 158 200 221 q 393 96 306 96 z "},"ð":{"ha":790,"x_min":58,"x_max":732,"o":"m 388 -12 q 215 28 289 -12 q 100 140 142 68 q 58 308 58 213 q 99 476 58 404 q 211 587 139 547 q 378 626 283 626 q 499 604 444 626 q 589 532 553 582 q 526 685 571 618 q 417 796 481 751 l 190 694 l 151 779 l 319 853 q 260 877 293 865 q 190 897 228 889 l 218 992 q 342 954 286 976 q 440 907 397 932 l 628 992 l 665 907 l 529 846 q 679 651 626 765 q 732 397 732 538 q 643 94 732 200 q 388 -12 554 -12 m 392 97 q 532 154 481 97 q 583 308 583 211 q 533 462 583 406 q 392 518 482 518 q 251 462 303 518 q 200 308 200 406 q 251 153 200 210 q 392 97 301 97 z "},"ď":{"ha":821,"x_min":58,"x_max":885,"o":"m 357 -12 q 201 30 268 -12 q 96 151 133 72 q 58 339 58 231 q 96 526 58 447 q 200 647 133 604 q 357 690 267 690 q 493 657 433 690 q 582 567 553 624 l 582 979 l 722 979 l 722 0 l 585 0 l 585 118 q 495 22 556 57 q 357 -12 435 -12 m 393 96 q 532 158 479 96 q 585 339 585 221 q 532 519 585 457 q 393 581 479 581 q 253 519 306 581 q 200 339 200 457 q 253 158 200 221 q 393 96 306 96 m 782 714 l 782 979 l 885 979 l 850 714 l 782 714 z "},"đ":{"ha":821,"x_min":60,"x_max":847,"o":"m 358 -12 q 202 30 269 -12 q 97 151 135 72 q 60 339 60 231 q 97 526 60 447 q 201 647 133 604 q 358 690 268 690 q 494 657 435 690 q 583 567 553 624 l 583 763 l 317 763 l 317 864 l 583 864 l 583 979 l 724 979 l 724 864 l 847 864 l 847 763 l 724 763 l 724 0 l 583 0 l 583 114 q 494 22 554 56 q 358 -12 435 -12 m 393 96 q 533 158 481 96 q 585 339 585 221 q 533 519 585 457 q 393 581 481 581 q 253 519 306 581 q 201 339 201 457 q 253 158 201 221 q 393 96 306 96 z "},"ḍ":{"ha":821,"x_min":58,"x_max":722,"o":"m 357 -12 q 201 30 268 -12 q 96 151 133 72 q 58 339 58 231 q 96 526 58 447 q 200 647 133 604 q 357 690 267 690 q 493 657 433 690 q 582 567 553 624 l 582 979 l 722 979 l 722 0 l 585 0 l 585 118 q 495 22 556 57 q 357 -12 435 -12 m 393 96 q 532 158 479 96 q 585 339 585 221 q 532 519 585 457 q 393 581 479 581 q 253 519 306 581 q 200 339 200 457 q 253 158 200 221 q 393 96 306 96 m 339 -271 l 339 -131 l 486 -131 l 486 -271 l 339 -271 z "},"ɗ":{"ha":821,"x_min":58,"x_max":917,"o":"m 357 -12 q 201 30 268 -12 q 96 151 133 72 q 58 339 58 231 q 96 526 58 447 q 200 647 133 604 q 357 690 267 690 q 493 657 433 690 q 582 567 553 624 l 582 742 q 645 926 582 860 q 833 992 708 992 q 917 979 881 992 l 900 872 q 871 878 882 876 q 844 879 860 879 q 755 846 788 879 q 722 742 722 813 l 722 0 l 585 0 l 585 118 q 495 22 556 57 q 357 -12 435 -12 m 393 96 q 532 158 479 96 q 585 339 585 221 q 532 519 585 457 q 393 581 479 581 q 253 519 306 581 q 200 339 200 457 q 253 158 200 221 q 393 96 306 96 z "},"ḏ":{"ha":821,"x_min":58,"x_max":722,"o":"m 357 -12 q 201 30 268 -12 q 96 151 133 72 q 58 339 58 231 q 96 526 58 447 q 200 647 133 604 q 357 690 267 690 q 493 657 433 690 q 582 567 553 624 l 582 979 l 722 979 l 722 0 l 585 0 l 585 118 q 495 22 556 57 q 357 -12 435 -12 m 393 96 q 532 158 479 96 q 585 339 585 221 q 532 519 585 457 q 393 581 479 581 q 253 519 306 581 q 200 339 200 457 q 253 158 200 221 q 393 96 306 96 m 201 -222 l 201 -133 l 625 -133 l 625 -222 l 201 -222 z "},"ǆ":{"ha":1471,"x_min":58,"x_max":1432,"o":"m 357 -12 q 201 30 268 -12 q 96 151 133 72 q 58 339 58 231 q 96 526 58 447 q 200 647 133 604 q 357 690 267 690 q 493 657 433 690 q 582 567 553 624 l 582 979 l 722 979 l 722 0 l 585 0 l 585 118 q 495 22 556 57 q 357 -12 435 -12 m 393 96 q 532 158 479 96 q 585 339 585 221 q 532 519 585 457 q 393 581 479 581 q 253 519 306 581 q 200 339 200 457 q 253 158 200 221 q 393 96 306 96 z "},"e":{"ha":746,"x_min":58,"x_max":692,"o":"m 417 -12 q 154 81 250 -12 q 58 338 58 175 q 101 522 58 442 q 218 646 143 601 q 390 690 293 690 q 611 601 531 690 q 692 354 692 511 l 692 307 l 194 307 q 418 96 210 96 q 533 114 476 96 q 639 174 589 132 l 681 76 q 563 11 635 35 q 417 -12 490 -12 m 396 592 q 257 538 308 592 q 194 393 206 483 l 574 393 q 524 540 569 488 q 396 592 478 592 z "},"é":{"ha":746,"x_min":58,"x_max":692,"o":"m 417 -12 q 154 81 250 -12 q 58 338 58 175 q 101 522 58 442 q 218 646 143 601 q 390 690 293 690 q 611 601 531 690 q 692 354 692 511 l 692 307 l 194 307 q 418 96 210 96 q 533 114 476 96 q 639 174 589 132 l 681 76 q 563 11 635 35 q 417 -12 490 -12 m 396 592 q 257 538 308 592 q 194 393 206 483 l 574 393 q 524 540 569 488 q 396 592 478 592 m 343 768 l 486 1049 l 629 1049 l 440 768 l 343 768 z "},"ĕ":{"ha":746,"x_min":58,"x_max":692,"o":"m 417 -12 q 154 81 250 -12 q 58 338 58 175 q 101 522 58 442 q 218 646 143 601 q 390 690 293 690 q 611 601 531 690 q 692 354 692 511 l 692 307 l 194 307 q 418 96 210 96 q 533 114 476 96 q 639 174 589 132 l 681 76 q 563 11 635 35 q 417 -12 490 -12 m 396 592 q 257 538 308 592 q 194 393 206 483 l 574 393 q 524 540 569 488 q 396 592 478 592 m 392 764 q 235 835 294 764 q 169 1029 175 906 l 253 1038 q 294 901 258 949 q 392 853 331 853 q 489 901 453 853 q 531 1038 525 949 l 614 1029 q 549 835 610 906 q 392 764 489 764 z "},"ě":{"ha":746,"x_min":58,"x_max":692,"o":"m 417 -12 q 154 81 250 -12 q 58 338 58 175 q 101 522 58 442 q 218 646 143 601 q 390 690 293 690 q 611 601 531 690 q 692 354 692 511 l 692 307 l 194 307 q 418 96 210 96 q 533 114 476 96 q 639 174 589 132 l 681 76 q 563 11 635 35 q 417 -12 490 -12 m 396 592 q 257 538 308 592 q 194 393 206 483 l 574 393 q 524 540 569 488 q 396 592 478 592 m 328 768 l 175 1049 l 268 1049 l 392 853 l 515 1049 l 608 1049 l 456 768 l 328 768 z "},"ḝ":{"ha":746,"x_min":58,"x_max":692,"o":"m 417 -12 q 154 81 250 -12 q 58 338 58 175 q 101 522 58 442 q 218 646 143 601 q 390 690 293 690 q 611 601 531 690 q 692 354 692 511 l 692 307 l 194 307 q 418 96 210 96 q 533 114 476 96 q 639 174 589 132 l 681 76 q 563 11 635 35 q 417 -12 490 -12 m 396 592 q 257 538 308 592 q 194 393 206 483 l 574 393 q 524 540 569 488 q 396 592 478 592 m 394 -269 q 322 -262 357 -269 q 263 -240 286 -254 l 283 -172 q 333 -189 310 -183 q 386 -194 356 -194 q 444 -183 424 -194 q 465 -149 465 -171 q 413 -112 465 -112 q 385 -115 399 -112 q 351 -122 371 -117 l 326 -100 l 346 28 l 426 28 l 413 -57 q 433 -56 424 -56 q 521 -81 488 -56 q 554 -153 554 -107 q 510 -237 554 -204 q 394 -269 465 -269 m 392 764 q 235 835 294 764 q 169 1029 175 906 l 253 1038 q 294 901 258 949 q 392 853 331 853 q 489 901 453 853 q 531 1038 525 949 l 614 1029 q 549 835 610 906 q 392 764 489 764 z "},"ê":{"ha":746,"x_min":58,"x_max":692,"o":"m 417 -12 q 154 81 250 -12 q 58 338 58 175 q 101 522 58 442 q 218 646 143 601 q 390 690 293 690 q 611 601 531 690 q 692 354 692 511 l 692 307 l 194 307 q 418 96 210 96 q 533 114 476 96 q 639 174 589 132 l 681 76 q 563 11 635 35 q 417 -12 490 -12 m 396 592 q 257 538 308 592 q 194 393 206 483 l 574 393 q 524 540 569 488 q 396 592 478 592 m 175 768 l 328 1049 l 456 1049 l 608 768 l 515 768 l 392 963 l 268 768 l 175 768 z "},"ế":{"ha":746,"x_min":58,"x_max":775,"o":"m 417 -12 q 154 81 250 -12 q 58 338 58 175 q 101 522 58 442 q 218 646 143 601 q 390 690 293 690 q 611 601 531 690 q 692 354 692 511 l 692 307 l 194 307 q 418 96 210 96 q 533 114 476 96 q 639 174 589 132 l 681 76 q 563 11 635 35 q 417 -12 490 -12 m 396 592 q 257 538 308 592 q 194 393 206 483 l 574 393 q 524 540 569 488 q 396 592 478 592 m 532 913 l 650 1121 l 775 1121 l 617 913 l 532 913 m 175 768 l 328 993 l 456 993 l 608 768 l 515 768 l 392 911 l 268 768 l 175 768 z "},"ệ":{"ha":746,"x_min":58,"x_max":692,"o":"m 417 -12 q 154 81 250 -12 q 58 338 58 175 q 101 522 58 442 q 218 646 143 601 q 390 690 293 690 q 611 601 531 690 q 692 354 692 511 l 692 307 l 194 307 q 418 96 210 96 q 533 114 476 96 q 639 174 589 132 l 681 76 q 563 11 635 35 q 417 -12 490 -12 m 396 592 q 257 538 308 592 q 194 393 206 483 l 574 393 q 524 540 569 488 q 396 592 478 592 m 318 -271 l 318 -131 l 465 -131 l 465 -271 l 318 -271 m 175 768 l 328 1049 l 456 1049 l 608 768 l 515 768 l 392 963 l 268 768 l 175 768 z "},"ề":{"ha":746,"x_min":58,"x_max":692,"o":"m 417 -12 q 154 81 250 -12 q 58 338 58 175 q 101 522 58 442 q 218 646 143 601 q 390 690 293 690 q 611 601 531 690 q 692 354 692 511 l 692 307 l 194 307 q 418 96 210 96 q 533 114 476 96 q 639 174 589 132 l 681 76 q 563 11 635 35 q 417 -12 490 -12 m 396 592 q 257 538 308 592 q 194 393 206 483 l 574 393 q 524 540 569 488 q 396 592 478 592 m 586 913 l 429 1121 l 554 1121 l 672 913 l 586 913 m 175 768 l 328 993 l 456 993 l 608 768 l 515 768 l 392 911 l 268 768 l 175 768 z "},"ể":{"ha":746,"x_min":58,"x_max":713,"o":"m 417 -12 q 154 81 250 -12 q 58 338 58 175 q 101 522 58 442 q 218 646 143 601 q 390 690 293 690 q 611 601 531 690 q 692 354 692 511 l 692 307 l 194 307 q 418 96 210 96 q 533 114 476 96 q 639 174 589 132 l 681 76 q 563 11 635 35 q 417 -12 490 -12 m 396 592 q 257 538 308 592 q 194 393 206 483 l 574 393 q 524 540 569 488 q 396 592 478 592 m 539 913 q 550 958 539 940 q 576 986 561 975 q 603 1008 592 997 q 615 1035 615 1019 q 560 1060 615 1060 q 519 1056 540 1060 q 476 1044 499 1053 l 457 1103 q 585 1126 508 1126 q 679 1108 646 1126 q 713 1056 713 1089 q 699 1011 713 1028 q 667 981 685 994 q 635 953 649 968 q 621 913 621 938 l 539 913 m 175 768 l 328 993 l 456 993 l 608 768 l 515 768 l 392 911 l 268 768 l 175 768 z "},"ễ":{"ha":746,"x_min":58,"x_max":692,"o":"m 417 -12 q 154 81 250 -12 q 58 338 58 175 q 101 522 58 442 q 218 646 143 601 q 390 690 293 690 q 611 601 531 690 q 692 354 692 511 l 692 307 l 194 307 q 418 96 210 96 q 533 114 476 96 q 639 174 589 132 l 681 76 q 563 11 635 35 q 417 -12 490 -12 m 396 592 q 257 538 308 592 q 194 393 206 483 l 574 393 q 524 540 569 488 q 396 592 478 592 m 233 985 l 164 989 q 206 1098 168 1061 q 301 1135 244 1135 q 350 1125 326 1135 q 406 1096 374 1115 q 449 1073 432 1079 q 479 1067 465 1067 q 550 1136 538 1067 l 619 1132 q 578 1024 615 1060 q 483 988 540 988 q 433 997 457 988 q 376 1026 408 1007 q 335 1047 351 1040 q 306 1054 319 1054 q 258 1038 274 1054 q 233 985 242 1021 m 175 768 l 328 951 l 456 951 l 608 768 l 517 768 l 392 876 l 267 768 l 175 768 z "},"ȅ":{"ha":746,"x_min":58,"x_max":692,"o":"m 417 -12 q 154 81 250 -12 q 58 338 58 175 q 101 522 58 442 q 218 646 143 601 q 390 690 293 690 q 611 601 531 690 q 692 354 692 511 l 692 307 l 194 307 q 418 96 210 96 q 533 114 476 96 q 639 174 589 132 l 681 76 q 563 11 635 35 q 417 -12 490 -12 m 396 592 q 257 538 308 592 q 194 393 206 483 l 574 393 q 524 540 569 488 q 396 592 478 592 m 450 768 l 332 1049 l 456 1049 l 526 768 l 450 768 m 261 768 l 142 1049 l 264 1049 l 336 768 l 261 768 z "},"ë":{"ha":746,"x_min":58,"x_max":692,"o":"m 417 -12 q 154 81 250 -12 q 58 338 58 175 q 101 522 58 442 q 218 646 143 601 q 390 690 293 690 q 611 601 531 690 q 692 354 692 511 l 692 307 l 194 307 q 418 96 210 96 q 533 114 476 96 q 639 174 589 132 l 681 76 q 563 11 635 35 q 417 -12 490 -12 m 396 592 q 257 538 308 592 q 194 393 206 483 l 574 393 q 524 540 569 488 q 396 592 478 592 m 447 839 l 447 976 l 586 976 l 586 839 l 447 839 m 197 839 l 197 976 l 336 976 l 336 839 l 197 839 z "},"ė":{"ha":746,"x_min":58,"x_max":692,"o":"m 417 -12 q 154 81 250 -12 q 58 338 58 175 q 101 522 58 442 q 218 646 143 601 q 390 690 293 690 q 611 601 531 690 q 692 354 692 511 l 692 307 l 194 307 q 418 96 210 96 q 533 114 476 96 q 639 174 589 132 l 681 76 q 563 11 635 35 q 417 -12 490 -12 m 396 592 q 257 538 308 592 q 194 393 206 483 l 574 393 q 524 540 569 488 q 396 592 478 592 m 318 838 l 318 978 l 465 978 l 465 838 l 318 838 z "},"ẹ":{"ha":746,"x_min":58,"x_max":692,"o":"m 417 -12 q 154 81 250 -12 q 58 338 58 175 q 101 522 58 442 q 218 646 143 601 q 390 690 293 690 q 611 601 531 690 q 692 354 692 511 l 692 307 l 194 307 q 418 96 210 96 q 533 114 476 96 q 639 174 589 132 l 681 76 q 563 11 635 35 q 417 -12 490 -12 m 396 592 q 257 538 308 592 q 194 393 206 483 l 574 393 q 524 540 569 488 q 396 592 478 592 m 318 -271 l 318 -131 l 465 -131 l 465 -271 l 318 -271 z "},"è":{"ha":746,"x_min":58,"x_max":692,"o":"m 417 -12 q 154 81 250 -12 q 58 338 58 175 q 101 522 58 442 q 218 646 143 601 q 390 690 293 690 q 611 601 531 690 q 692 354 692 511 l 692 307 l 194 307 q 418 96 210 96 q 533 114 476 96 q 639 174 589 132 l 681 76 q 563 11 635 35 q 417 -12 490 -12 m 396 592 q 257 538 308 592 q 194 393 206 483 l 574 393 q 524 540 569 488 q 396 592 478 592 m 343 768 l 154 1049 l 297 1049 l 440 768 l 343 768 z "},"ẻ":{"ha":746,"x_min":58,"x_max":692,"o":"m 417 -12 q 154 81 250 -12 q 58 338 58 175 q 101 522 58 442 q 218 646 143 601 q 390 690 293 690 q 611 601 531 690 q 692 354 692 511 l 692 307 l 194 307 q 418 96 210 96 q 533 114 476 96 q 639 174 589 132 l 681 76 q 563 11 635 35 q 417 -12 490 -12 m 396 592 q 257 538 308 592 q 194 393 206 483 l 574 393 q 524 540 569 488 q 396 592 478 592 m 347 768 l 347 796 q 360 847 347 826 q 388 881 372 867 q 417 910 404 896 q 429 944 429 925 q 369 982 429 982 q 327 977 347 982 q 283 960 307 972 l 261 1026 q 399 1058 315 1058 q 503 1033 465 1058 q 540 961 540 1007 q 524 905 540 926 q 488 868 508 883 q 452 835 468 853 q 436 789 436 818 l 436 768 l 347 768 z "},"ȇ":{"ha":746,"x_min":58,"x_max":692,"o":"m 417 -12 q 154 81 250 -12 q 58 338 58 175 q 101 522 58 442 q 218 646 143 601 q 390 690 293 690 q 611 601 531 690 q 692 354 692 511 l 692 307 l 194 307 q 418 96 210 96 q 533 114 476 96 q 639 174 589 132 l 681 76 q 563 11 635 35 q 417 -12 490 -12 m 396 592 q 257 538 308 592 q 194 393 206 483 l 574 393 q 524 540 569 488 q 396 592 478 592 m 253 764 l 169 771 q 235 966 175 894 q 392 1038 294 1038 q 549 966 489 1038 q 614 771 610 894 l 531 764 q 489 900 525 851 q 392 949 453 949 q 294 900 331 949 q 253 764 258 851 z "},"ē":{"ha":746,"x_min":58,"x_max":692,"o":"m 417 -12 q 154 81 250 -12 q 58 338 58 175 q 101 522 58 442 q 218 646 143 601 q 390 690 293 690 q 611 601 531 690 q 692 354 692 511 l 692 307 l 194 307 q 418 96 210 96 q 533 114 476 96 q 639 174 589 132 l 681 76 q 563 11 635 35 q 417 -12 490 -12 m 396 592 q 257 538 308 592 q 194 393 206 483 l 574 393 q 524 540 569 488 q 396 592 478 592 m 181 863 l 181 951 l 604 951 l 604 863 l 181 863 z "},"ḗ":{"ha":746,"x_min":58,"x_max":692,"o":"m 417 -12 q 154 81 250 -12 q 58 338 58 175 q 101 522 58 442 q 218 646 143 601 q 390 690 293 690 q 611 601 531 690 q 692 354 692 511 l 692 307 l 194 307 q 418 96 210 96 q 533 114 476 96 q 639 174 589 132 l 681 76 q 563 11 635 35 q 417 -12 490 -12 m 396 592 q 257 538 308 592 q 194 393 206 483 l 574 393 q 524 540 569 488 q 396 592 478 592 m 346 931 l 457 1121 l 597 1121 l 438 931 l 346 931 m 181 790 l 181 879 l 604 879 l 604 790 l 181 790 z "},"ḕ":{"ha":746,"x_min":58,"x_max":692,"o":"m 417 -12 q 154 81 250 -12 q 58 338 58 175 q 101 522 58 442 q 218 646 143 601 q 390 690 293 690 q 611 601 531 690 q 692 354 692 511 l 692 307 l 194 307 q 418 96 210 96 q 533 114 476 96 q 639 174 589 132 l 681 76 q 563 11 635 35 q 417 -12 490 -12 m 396 592 q 257 538 308 592 q 194 393 206 483 l 574 393 q 524 540 569 488 q 396 592 478 592 m 346 931 l 186 1121 l 326 1121 l 438 931 l 346 931 m 181 790 l 181 879 l 604 879 l 604 790 l 181 790 z "},"ę":{"ha":746,"x_min":58,"x_max":692,"o":"m 417 -12 q 154 81 250 -12 q 58 338 58 175 q 101 522 58 442 q 218 646 143 601 q 390 690 293 690 q 611 601 531 690 q 692 354 692 511 l 692 307 l 194 307 q 418 96 210 96 q 533 114 476 96 q 639 174 589 132 l 681 76 q 563 11 635 35 q 417 -12 490 -12 m 396 592 q 257 538 308 592 q 194 393 206 483 l 574 393 q 524 540 569 488 q 396 592 478 592 m 476 -269 q 364 -231 406 -269 q 322 -129 322 -193 q 359 -24 322 -72 q 460 54 396 25 l 504 0 q 444 -44 471 -14 q 417 -114 417 -74 q 439 -170 417 -151 q 496 -189 461 -189 q 569 -172 529 -189 l 590 -246 q 476 -269 543 -269 z "},"ẽ":{"ha":746,"x_min":58,"x_max":692,"o":"m 417 -12 q 154 81 250 -12 q 58 338 58 175 q 101 522 58 442 q 218 646 143 601 q 390 690 293 690 q 611 601 531 690 q 692 354 692 511 l 692 307 l 194 307 q 418 96 210 96 q 533 114 476 96 q 639 174 589 132 l 681 76 q 563 11 635 35 q 417 -12 490 -12 m 396 592 q 257 538 308 592 q 194 393 206 483 l 574 393 q 524 540 569 488 q 396 592 478 592 m 207 815 l 133 821 q 182 963 140 911 q 290 1015 224 1015 q 347 1001 321 1015 q 406 960 372 988 q 455 925 436 935 q 490 915 474 915 q 576 1019 561 915 l 650 1015 q 603 872 644 924 q 494 821 561 821 q 441 833 467 821 q 378 875 415 846 q 331 910 349 900 q 293 919 313 919 q 207 815 224 919 z "},"ə":{"ha":746,"x_min":53,"x_max":688,"o":"m 363 -12 q 135 76 217 -12 q 53 326 53 164 l 53 369 l 553 369 q 488 528 544 475 q 331 581 431 581 q 107 504 213 581 l 64 601 q 188 667 115 644 q 333 690 260 690 q 522 648 442 690 q 644 527 601 606 q 688 342 688 449 q 646 155 688 235 q 531 31 604 75 q 363 -12 457 -12 m 360 86 q 490 137 439 86 q 551 283 542 188 l 178 283 q 360 86 186 86 z "},"ʒ":{"ha":700,"x_min":18,"x_max":658,"o":"m 319 -262 q 18 -179 128 -262 l 63 -79 q 306 -154 160 -154 q 465 -106 411 -154 q 518 31 518 -58 q 465 155 518 111 q 313 199 413 199 l 174 199 l 174 267 l 454 565 l 47 565 l 47 678 l 615 678 l 615 582 l 350 299 l 360 299 q 579 230 500 299 q 658 39 658 161 q 567 -182 658 -101 q 319 -262 476 -262 z "},"ǯ":{"ha":700,"x_min":18,"x_max":658,"o":"m 319 -262 q 18 -179 128 -262 l 63 -79 q 306 -154 160 -154 q 465 -106 411 -154 q 518 31 518 -58 q 465 155 518 111 q 313 199 413 199 l 174 199 l 174 267 l 454 565 l 47 565 l 47 678 l 615 678 l 615 582 l 350 299 l 360 299 q 579 230 500 299 q 658 39 658 161 q 567 -182 658 -101 q 319 -262 476 -262 m 267 768 l 114 1049 l 207 1049 l 331 853 l 454 1049 l 547 1049 l 394 768 l 267 768 z "},"f":{"ha":482,"x_min":7,"x_max":501,"o":"m 139 0 l 139 569 l 7 569 l 7 678 l 139 678 l 139 690 q 210 901 139 831 q 431 981 282 972 l 492 985 l 501 879 l 438 875 q 316 829 353 869 q 279 710 279 789 l 279 678 l 469 678 l 469 569 l 279 569 l 279 0 l 139 0 z "},"g":{"ha":825,"x_min":58,"x_max":726,"o":"m 406 -262 q 235 -241 314 -262 q 94 -174 156 -219 l 138 -74 q 263 -135 199 -115 q 396 -154 326 -154 q 590 40 590 -154 l 590 147 q 499 51 561 86 q 361 17 438 17 q 201 59 269 17 q 96 177 133 101 q 58 354 58 253 q 96 530 58 454 q 201 648 133 606 q 361 690 269 690 q 500 656 439 690 q 590 560 561 621 l 590 678 l 726 678 l 726 57 q 644 -183 726 -103 q 406 -262 563 -262 m 394 126 q 536 188 483 126 q 589 354 589 249 q 536 520 589 460 q 394 581 483 581 q 253 520 306 581 q 200 354 200 460 q 253 188 200 249 q 394 126 306 126 z "},"ğ":{"ha":825,"x_min":58,"x_max":726,"o":"m 406 -262 q 235 -241 314 -262 q 94 -174 156 -219 l 138 -74 q 263 -135 199 -115 q 396 -154 326 -154 q 590 40 590 -154 l 590 147 q 499 51 561 86 q 361 17 438 17 q 201 59 269 17 q 96 177 133 101 q 58 354 58 253 q 96 530 58 454 q 201 648 133 606 q 361 690 269 690 q 500 656 439 690 q 590 560 561 621 l 590 678 l 726 678 l 726 57 q 644 -183 726 -103 q 406 -262 563 -262 m 394 126 q 536 188 483 126 q 589 354 589 249 q 536 520 589 460 q 394 581 483 581 q 253 520 306 581 q 200 354 200 460 q 253 188 200 249 q 394 126 306 126 m 414 764 q 257 835 317 764 q 192 1029 197 906 l 275 1038 q 317 901 281 949 q 414 853 353 853 q 511 901 475 853 q 553 1038 547 949 l 636 1029 q 572 835 632 906 q 414 764 511 764 z "},"ǧ":{"ha":825,"x_min":58,"x_max":726,"o":"m 406 -262 q 235 -241 314 -262 q 94 -174 156 -219 l 138 -74 q 263 -135 199 -115 q 396 -154 326 -154 q 590 40 590 -154 l 590 147 q 499 51 561 86 q 361 17 438 17 q 201 59 269 17 q 96 177 133 101 q 58 354 58 253 q 96 530 58 454 q 201 648 133 606 q 361 690 269 690 q 500 656 439 690 q 590 560 561 621 l 590 678 l 726 678 l 726 57 q 644 -183 726 -103 q 406 -262 563 -262 m 394 126 q 536 188 483 126 q 589 354 589 249 q 536 520 589 460 q 394 581 483 581 q 253 520 306 581 q 200 354 200 460 q 253 188 200 249 q 394 126 306 126 m 350 768 l 197 1049 l 290 1049 l 414 853 l 538 1049 l 631 1049 l 478 768 l 350 768 z "},"ĝ":{"ha":825,"x_min":58,"x_max":726,"o":"m 406 -262 q 235 -241 314 -262 q 94 -174 156 -219 l 138 -74 q 263 -135 199 -115 q 396 -154 326 -154 q 590 40 590 -154 l 590 147 q 499 51 561 86 q 361 17 438 17 q 201 59 269 17 q 96 177 133 101 q 58 354 58 253 q 96 530 58 454 q 201 648 133 606 q 361 690 269 690 q 500 656 439 690 q 590 560 561 621 l 590 678 l 726 678 l 726 57 q 644 -183 726 -103 q 406 -262 563 -262 m 394 126 q 536 188 483 126 q 589 354 589 249 q 536 520 589 460 q 394 581 483 581 q 253 520 306 581 q 200 354 200 460 q 253 188 200 249 q 394 126 306 126 m 197 768 l 350 1049 l 478 1049 l 631 768 l 538 768 l 414 963 l 290 768 l 197 768 z "},"ģ":{"ha":825,"x_min":58,"x_max":726,"o":"m 406 -262 q 235 -241 314 -262 q 94 -174 156 -219 l 138 -74 q 263 -135 199 -115 q 396 -154 326 -154 q 590 40 590 -154 l 590 147 q 499 51 561 86 q 361 17 438 17 q 201 59 269 17 q 96 177 133 101 q 58 354 58 253 q 96 530 58 454 q 201 648 133 606 q 361 690 269 690 q 500 656 439 690 q 590 560 561 621 l 590 678 l 726 678 l 726 57 q 644 -183 726 -103 q 406 -262 563 -262 m 394 126 q 536 188 483 126 q 589 354 589 249 q 536 520 589 460 q 394 581 483 581 q 253 520 306 581 q 200 354 200 460 q 253 188 200 249 q 394 126 306 126 m 336 786 l 336 874 q 353 974 336 928 q 411 1057 371 1021 l 468 1018 q 430 965 442 990 q 415 913 418 940 l 492 913 l 492 786 l 336 786 z "},"ġ":{"ha":825,"x_min":58,"x_max":726,"o":"m 406 -262 q 235 -241 314 -262 q 94 -174 156 -219 l 138 -74 q 263 -135 199 -115 q 396 -154 326 -154 q 590 40 590 -154 l 590 147 q 499 51 561 86 q 361 17 438 17 q 201 59 269 17 q 96 177 133 101 q 58 354 58 253 q 96 530 58 454 q 201 648 133 606 q 361 690 269 690 q 500 656 439 690 q 590 560 561 621 l 590 678 l 726 678 l 726 57 q 644 -183 726 -103 q 406 -262 563 -262 m 394 126 q 536 188 483 126 q 589 354 589 249 q 536 520 589 460 q 394 581 483 581 q 253 520 306 581 q 200 354 200 460 q 253 188 200 249 q 394 126 306 126 m 340 838 l 340 978 l 488 978 l 488 838 l 340 838 z "},"ḡ":{"ha":825,"x_min":58,"x_max":726,"o":"m 406 -262 q 235 -241 314 -262 q 94 -174 156 -219 l 138 -74 q 263 -135 199 -115 q 396 -154 326 -154 q 590 40 590 -154 l 590 147 q 499 51 561 86 q 361 17 438 17 q 201 59 269 17 q 96 177 133 101 q 58 354 58 253 q 96 530 58 454 q 201 648 133 606 q 361 690 269 690 q 500 656 439 690 q 590 560 561 621 l 590 678 l 726 678 l 726 57 q 644 -183 726 -103 q 406 -262 563 -262 m 394 126 q 536 188 483 126 q 589 354 589 249 q 536 520 589 460 q 394 581 483 581 q 253 520 306 581 q 200 354 200 460 q 253 188 200 249 q 394 126 306 126 m 203 863 l 203 951 l 626 951 l 626 863 l 203 863 z "},"ǥ":{"ha":825,"x_min":58,"x_max":815,"o":"m 406 -262 q 235 -241 314 -262 q 94 -174 156 -219 l 138 -74 q 263 -134 199 -115 q 396 -153 326 -153 q 558 -82 511 -153 l 414 -82 l 414 10 l 589 10 q 590 40 590 24 l 590 185 q 502 90 563 124 q 363 56 442 56 q 203 97 272 56 q 97 209 135 138 q 58 372 58 281 q 97 537 58 465 q 203 649 135 608 q 363 690 272 690 q 501 656 442 690 q 590 561 561 622 l 590 678 l 726 678 l 726 57 q 725 10 726 33 l 815 10 l 815 -82 l 707 -82 q 406 -262 643 -262 m 394 164 q 535 221 482 164 q 588 372 588 278 q 535 524 588 467 q 394 581 483 581 q 253 524 307 581 q 200 372 200 468 q 254 221 200 278 q 394 164 308 164 z "},"h":{"ha":800,"x_min":99,"x_max":706,"o":"m 99 0 l 99 979 l 239 979 l 239 572 q 333 660 274 631 q 465 690 392 690 q 706 418 706 690 l 706 0 l 565 0 l 565 410 q 531 538 565 497 q 425 578 497 578 q 290 524 340 578 q 239 383 239 471 l 239 0 l 99 0 z "},"ħ":{"ha":800,"x_min":-26,"x_max":706,"o":"m 99 0 l 99 763 l -26 763 l -26 864 l 99 864 l 99 979 l 239 979 l 239 864 l 504 864 l 504 763 l 239 763 l 239 572 q 333 660 274 631 q 465 690 392 690 q 706 418 706 690 l 706 0 l 565 0 l 565 410 q 531 538 565 497 q 425 578 497 578 q 290 524 340 578 q 239 383 239 471 l 239 0 l 99 0 z "},"ḫ":{"ha":800,"x_min":99,"x_max":706,"o":"m 99 0 l 99 979 l 239 979 l 239 572 q 333 660 274 631 q 465 690 392 690 q 706 418 706 690 l 706 0 l 565 0 l 565 410 q 531 538 565 497 q 425 578 497 578 q 290 524 340 578 q 239 383 239 471 l 239 0 l 99 0 m 401 -299 q 244 -242 304 -299 q 179 -89 185 -186 l 263 -81 q 304 -176 268 -142 q 401 -211 340 -211 q 499 -176 463 -211 q 540 -81 535 -142 l 624 -89 q 559 -242 619 -186 q 401 -299 499 -299 z "},"ȟ":{"ha":800,"x_min":99,"x_max":706,"o":"m 99 0 l 99 979 l 239 979 l 239 572 q 333 660 274 631 q 465 690 392 690 q 706 418 706 690 l 706 0 l 565 0 l 565 410 q 531 538 565 497 q 425 578 497 578 q 290 524 340 578 q 239 383 239 471 l 239 0 l 99 0 m 339 1063 l 168 1303 l 269 1303 l 401 1147 l 533 1303 l 635 1303 l 464 1063 l 339 1063 z "},"ĥ":{"ha":800,"x_min":99,"x_max":706,"o":"m 99 0 l 99 979 l 239 979 l 239 572 q 333 660 274 631 q 465 690 392 690 q 706 418 706 690 l 706 0 l 565 0 l 565 410 q 531 538 565 497 q 425 578 497 578 q 290 524 340 578 q 239 383 239 471 l 239 0 l 99 0 m 168 1063 l 339 1303 l 464 1303 l 635 1063 l 533 1063 l 401 1218 l 269 1063 l 168 1063 z "},"ḥ":{"ha":800,"x_min":99,"x_max":706,"o":"m 99 0 l 99 979 l 239 979 l 239 572 q 333 660 274 631 q 465 690 392 690 q 706 418 706 690 l 706 0 l 565 0 l 565 410 q 531 538 565 497 q 425 578 497 578 q 290 524 340 578 q 239 383 239 471 l 239 0 l 99 0 m 328 -271 l 328 -131 l 475 -131 l 475 -271 l 328 -271 z "},"i":{"ha":338,"x_min":86,"x_max":250,"o":"m 86 835 l 86 981 l 250 981 l 250 835 l 86 835 m 99 0 l 99 678 l 239 678 l 239 0 l 99 0 z "},"ı":{"ha":338,"x_min":99,"x_max":239,"o":"m 99 0 l 99 678 l 239 678 l 239 0 l 99 0 z "},"í":{"ha":338,"x_min":99,"x_max":406,"o":"m 99 0 l 99 678 l 239 678 l 239 0 l 99 0 m 119 768 l 263 1049 l 406 1049 l 217 768 l 119 768 z "},"ĭ":{"ha":338,"x_min":-54,"x_max":390,"o":"m 99 0 l 99 678 l 239 678 l 239 0 l 99 0 m 168 764 q 11 835 71 764 q -54 1029 -49 906 l 29 1038 q 71 901 35 949 q 168 853 107 853 q 265 901 229 853 q 307 1038 301 949 l 390 1029 q 326 835 386 906 q 168 764 265 764 z "},"î":{"ha":338,"x_min":-49,"x_max":385,"o":"m 99 0 l 99 678 l 239 678 l 239 0 l 99 0 m -49 768 l 104 1049 l 232 1049 l 385 768 l 292 768 l 168 963 l 44 768 l -49 768 z "},"ȉ":{"ha":338,"x_min":-82,"x_max":303,"o":"m 99 0 l 99 678 l 239 678 l 239 0 l 99 0 m 226 768 l 108 1049 l 232 1049 l 303 768 l 226 768 m 38 768 l -82 1049 l 40 1049 l 113 768 l 38 768 z "},"ï":{"ha":338,"x_min":-26,"x_max":363,"o":"m 99 0 l 99 678 l 239 678 l 239 0 l 99 0 m 224 839 l 224 976 l 363 976 l 363 839 l 224 839 m -26 839 l -26 976 l 113 976 l 113 839 l -26 839 z "},"ḯ":{"ha":338,"x_min":-26,"x_max":374,"o":"m 99 0 l 99 678 l 239 678 l 239 0 l 99 0 m 122 931 l 233 1121 l 374 1121 l 214 931 l 122 931 m -26 768 l -26 879 l 113 879 l 113 768 l -26 768 m 224 768 l 224 879 l 363 879 l 363 768 l 224 768 z "},"ị":{"ha":338,"x_min":86,"x_max":250,"o":"m 86 835 l 86 981 l 250 981 l 250 835 l 86 835 m 99 0 l 99 678 l 239 678 l 239 0 l 99 0 m 94 -271 l 94 -131 l 242 -131 l 242 -271 l 94 -271 z "},"ì":{"ha":338,"x_min":-69,"x_max":239,"o":"m 99 0 l 99 678 l 239 678 l 239 0 l 99 0 m 119 768 l -69 1049 l 74 1049 l 217 768 l 119 768 z "},"ỉ":{"ha":338,"x_min":38,"x_max":317,"o":"m 99 0 l 99 678 l 239 678 l 239 0 l 99 0 m 124 768 l 124 796 q 136 847 124 826 q 165 881 149 867 q 193 910 181 896 q 206 944 206 925 q 146 982 206 982 q 103 977 124 982 q 60 960 83 972 l 38 1026 q 175 1058 92 1058 q 279 1033 242 1058 q 317 961 317 1007 q 301 905 317 926 q 265 868 285 883 q 228 835 244 853 q 213 789 213 818 l 213 768 l 124 768 z "},"ȋ":{"ha":338,"x_min":-54,"x_max":390,"o":"m 99 0 l 99 678 l 239 678 l 239 0 l 99 0 m 29 764 l -54 771 q 11 966 -49 894 q 168 1038 71 1038 q 326 966 265 1038 q 390 771 386 894 l 307 764 q 265 900 301 851 q 168 949 229 949 q 71 900 107 949 q 29 764 35 851 z "},"ī":{"ha":338,"x_min":-43,"x_max":381,"o":"m 99 0 l 99 678 l 239 678 l 239 0 l 99 0 m -43 863 l -43 951 l 381 951 l 381 863 l -43 863 z "},"į":{"ha":338,"x_min":31,"x_max":299,"o":"m 99 0 l 99 678 l 239 678 l 239 0 l 99 0 m 86 835 l 86 981 l 250 981 l 250 835 l 86 835 m 185 -269 q 72 -231 114 -269 q 31 -129 31 -193 q 67 -24 31 -72 q 168 54 104 25 l 213 0 q 152 -44 179 -14 q 125 -114 125 -74 q 147 -170 125 -151 q 204 -189 169 -189 q 278 -172 238 -189 l 299 -246 q 185 -269 251 -269 z "},"ĩ":{"ha":338,"x_min":-90,"x_max":426,"o":"m 99 0 l 99 678 l 239 678 l 239 0 l 99 0 m -17 815 l -90 821 q -42 963 -83 911 q 67 1015 0 1015 q 123 1001 97 1015 q 182 960 149 988 q 231 925 213 935 q 267 915 250 915 q 353 1019 338 915 l 426 1015 q 379 872 421 924 q 271 821 338 821 q 217 833 243 821 q 154 875 192 846 q 107 910 125 900 q 69 919 89 919 q -17 815 0 919 z "},"j":{"ha":342,"x_min":-76,"x_max":256,"o":"m 92 835 l 92 981 l 256 981 l 256 835 l 92 835 m -67 -268 l -76 -162 l -15 -157 q 103 -15 103 -144 l 103 678 l 243 678 l 243 0 q 184 -191 243 -128 q -7 -264 125 -254 l -67 -268 z "},"ȷ":{"ha":342,"x_min":-76,"x_max":243,"o":"m -67 -268 l -76 -162 l -15 -157 q 103 -15 103 -144 l 103 678 l 243 678 l 243 0 q 184 -191 243 -128 q -7 -264 125 -254 l -67 -268 z "},"ĵ":{"ha":342,"x_min":-76,"x_max":390,"o":"m -67 -268 l -76 -162 l -15 -157 q 103 -15 103 -144 l 103 678 l 243 678 l 243 0 q 184 -191 243 -128 q -7 -264 125 -254 l -67 -268 m -43 768 l 110 1049 l 238 1049 l 390 768 l 297 768 l 174 963 l 50 768 l -43 768 z "},"k":{"ha":717,"x_min":99,"x_max":735,"o":"m 99 0 l 99 979 l 239 979 l 239 382 l 242 382 l 536 678 l 710 678 l 385 351 l 735 0 l 560 0 l 242 310 l 239 310 l 239 0 l 99 0 z "},"ǩ":{"ha":717,"x_min":99,"x_max":735,"o":"m 99 0 l 99 979 l 239 979 l 239 382 l 242 382 l 536 678 l 710 678 l 385 351 l 735 0 l 560 0 l 242 310 l 239 310 l 239 0 l 99 0 m 339 1063 l 168 1303 l 269 1303 l 401 1147 l 533 1303 l 635 1303 l 464 1063 l 339 1063 z "},"ķ":{"ha":717,"x_min":99,"x_max":735,"o":"m 99 0 l 99 979 l 239 979 l 239 382 l 242 382 l 536 678 l 710 678 l 385 351 l 735 0 l 560 0 l 242 310 l 239 310 l 239 0 l 99 0 m 361 -379 l 304 -339 q 342 -286 331 -311 q 357 -233 354 -261 l 281 -233 l 281 -107 l 436 -107 l 436 -194 q 419 -295 436 -249 q 361 -379 401 -342 z "},"ĸ":{"ha":717,"x_min":99,"x_max":735,"o":"m 99 0 l 99 678 l 239 678 l 239 382 l 242 382 l 536 678 l 710 678 l 385 351 l 735 0 l 560 0 l 242 310 l 239 310 l 239 0 l 99 0 z "},"l":{"ha":425,"x_min":99,"x_max":413,"o":"m 319 -12 q 153 50 208 -12 q 99 233 99 113 l 99 979 l 239 979 l 239 242 q 351 104 239 104 q 383 106 368 104 q 413 111 397 107 l 410 -1 q 319 -12 363 -12 z "},"ĺ":{"ha":425,"x_min":99,"x_max":432,"o":"m 319 -12 q 153 50 208 -12 q 99 233 99 113 l 99 979 l 239 979 l 239 242 q 351 104 239 104 q 383 106 368 104 q 413 111 397 107 l 410 -1 q 319 -12 363 -12 m 117 1063 l 281 1303 l 432 1303 l 219 1063 l 117 1063 z "},"ľ":{"ha":425,"x_min":99,"x_max":413,"o":"m 319 -12 q 153 50 208 -12 q 99 233 99 113 l 99 979 l 239 979 l 239 242 q 351 104 239 104 q 383 106 368 104 q 413 111 397 107 l 410 -1 q 319 -12 363 -12 m 299 714 l 299 979 l 401 979 l 367 714 l 299 714 z "},"ļ":{"ha":425,"x_min":99,"x_max":413,"o":"m 319 -12 q 153 50 208 -12 q 99 233 99 113 l 99 979 l 239 979 l 239 242 q 351 104 239 104 q 383 106 368 104 q 413 111 397 107 l 410 -1 q 319 -12 363 -12 m 265 -379 l 208 -339 q 247 -286 235 -311 q 261 -233 258 -261 l 185 -233 l 185 -107 l 340 -107 l 340 -194 q 323 -295 340 -249 q 265 -379 306 -342 z "},"ŀ":{"ha":476,"x_min":99,"x_max":490,"o":"m 319 -12 q 153 50 208 -12 q 99 233 99 113 l 99 979 l 239 979 l 239 242 q 351 104 239 104 q 383 106 368 104 q 413 111 397 107 l 410 -1 q 319 -12 363 -12 m 324 421 l 324 569 l 490 569 l 490 421 l 324 421 z "},"ḷ":{"ha":425,"x_min":99,"x_max":413,"o":"m 319 -12 q 153 50 208 -12 q 99 233 99 113 l 99 979 l 239 979 l 239 242 q 351 104 239 104 q 383 106 368 104 q 413 111 397 107 l 410 -1 q 319 -12 363 -12 m 189 -271 l 189 -131 l 336 -131 l 336 -271 l 189 -271 z "},"ǉ":{"ha":768,"x_min":99,"x_max":681,"o":"m 319 -12 q 153 50 208 -12 q 99 233 99 113 l 99 979 l 239 979 l 239 242 q 351 104 239 104 q 383 106 368 104 q 413 111 397 107 l 410 -1 q 319 -12 363 -12 m 517 835 l 517 981 l 681 981 l 681 835 l 517 835 m 358 -268 l 349 -162 l 410 -157 q 528 -15 528 -144 l 528 678 l 668 678 l 668 0 q 609 -191 668 -128 q 418 -264 550 -254 l 358 -268 z "},"ḻ":{"ha":425,"x_min":51,"x_max":475,"o":"m 319 -12 q 153 50 208 -12 q 99 233 99 113 l 99 979 l 239 979 l 239 242 q 351 104 239 104 q 383 106 368 104 q 413 111 397 107 l 410 -1 q 319 -12 363 -12 m 51 -222 l 51 -133 l 475 -133 l 475 -222 l 51 -222 z "},"ł":{"ha":425,"x_min":-40,"x_max":413,"o":"m 319 -12 q 153 50 208 -12 q 99 233 99 113 l 99 979 l 239 979 l 239 242 q 351 104 239 104 q 383 106 368 104 q 413 111 397 107 l 410 -1 q 319 -12 363 -12 m 15 333 l -40 431 l 350 657 l 406 561 l 15 333 z "},"m":{"ha":1203,"x_min":101,"x_max":1106,"o":"m 101 0 l 101 678 l 238 678 l 238 568 q 322 658 268 626 q 449 690 376 690 q 650 554 604 690 q 742 654 682 618 q 878 690 801 690 q 1106 418 1106 690 l 1106 0 l 965 0 l 965 411 q 935 538 965 497 q 838 578 906 578 q 717 524 761 578 q 672 379 672 471 l 672 0 l 532 0 l 532 411 q 503 538 532 497 q 406 578 474 578 q 285 524 329 578 q 242 379 242 471 l 242 0 l 101 0 z "},"ṃ":{"ha":1203,"x_min":101,"x_max":1106,"o":"m 101 0 l 101 678 l 238 678 l 238 568 q 322 658 268 626 q 449 690 376 690 q 650 554 604 690 q 742 654 682 618 q 878 690 801 690 q 1106 418 1106 690 l 1106 0 l 965 0 l 965 411 q 935 538 965 497 q 838 578 906 578 q 717 524 761 578 q 672 379 672 471 l 672 0 l 532 0 l 532 411 q 503 538 532 497 q 406 578 474 578 q 285 524 329 578 q 242 379 242 471 l 242 0 l 101 0 m 529 -271 l 529 -131 l 676 -131 l 676 -271 l 529 -271 z "},"n":{"ha":800,"x_min":99,"x_max":706,"o":"m 99 0 l 99 678 l 235 678 l 235 565 q 330 658 269 626 q 465 690 390 690 q 706 418 706 690 l 706 0 l 565 0 l 565 410 q 531 538 565 497 q 425 578 497 578 q 290 524 340 578 q 239 383 239 471 l 239 0 l 99 0 z "},"ń":{"ha":800,"x_min":99,"x_max":706,"o":"m 99 0 l 99 678 l 235 678 l 235 565 q 330 658 269 626 q 465 690 390 690 q 706 418 706 690 l 706 0 l 565 0 l 565 410 q 531 538 565 497 q 425 578 497 578 q 290 524 340 578 q 239 383 239 471 l 239 0 l 99 0 m 353 768 l 496 1049 l 639 1049 l 450 768 l 353 768 z "},"ŉ":{"ha":800,"x_min":-26,"x_max":706,"o":"m 57 790 l 0 831 q 35 879 25 856 q 47 926 46 903 l -26 926 l -26 1057 l 129 1057 l 129 969 q 114 873 129 917 q 57 790 99 829 m 99 0 l 99 678 l 235 678 l 235 565 q 330 658 269 626 q 465 690 390 690 q 706 418 706 690 l 706 0 l 565 0 l 565 410 q 531 538 565 497 q 425 578 497 578 q 290 524 340 578 q 239 383 239 471 l 239 0 l 99 0 z "},"ň":{"ha":800,"x_min":99,"x_max":706,"o":"m 99 0 l 99 678 l 235 678 l 235 565 q 330 658 269 626 q 465 690 390 690 q 706 418 706 690 l 706 0 l 565 0 l 565 410 q 531 538 565 497 q 425 578 497 578 q 290 524 340 578 q 239 383 239 471 l 239 0 l 99 0 m 338 768 l 185 1049 l 278 1049 l 401 853 l 525 1049 l 618 1049 l 465 768 l 338 768 z "},"ņ":{"ha":800,"x_min":99,"x_max":706,"o":"m 99 0 l 99 678 l 235 678 l 235 565 q 330 658 269 626 q 465 690 390 690 q 706 418 706 690 l 706 0 l 565 0 l 565 410 q 531 538 565 497 q 425 578 497 578 q 290 524 340 578 q 239 383 239 471 l 239 0 l 99 0 m 404 -379 l 347 -339 q 385 -286 374 -311 q 400 -233 397 -261 l 324 -233 l 324 -107 l 479 -107 l 479 -194 q 462 -295 479 -249 q 404 -379 444 -342 z "},"ṅ":{"ha":800,"x_min":99,"x_max":706,"o":"m 99 0 l 99 678 l 235 678 l 235 565 q 330 658 269 626 q 465 690 390 690 q 706 418 706 690 l 706 0 l 565 0 l 565 410 q 531 538 565 497 q 425 578 497 578 q 290 524 340 578 q 239 383 239 471 l 239 0 l 99 0 m 328 838 l 328 978 l 475 978 l 475 838 l 328 838 z "},"ṇ":{"ha":800,"x_min":99,"x_max":706,"o":"m 99 0 l 99 678 l 235 678 l 235 565 q 330 658 269 626 q 465 690 390 690 q 706 418 706 690 l 706 0 l 565 0 l 565 410 q 531 538 565 497 q 425 578 497 578 q 290 524 340 578 q 239 383 239 471 l 239 0 l 99 0 m 328 -271 l 328 -131 l 475 -131 l 475 -271 l 328 -271 z "},"ŋ":{"ha":800,"x_min":99,"x_max":706,"o":"m 394 -268 l 386 -162 l 447 -157 q 565 -15 565 -144 l 565 410 q 531 538 565 497 q 425 578 497 578 q 290 524 340 578 q 239 383 239 471 l 239 0 l 99 0 l 99 678 l 235 678 l 235 565 q 330 658 269 626 q 465 690 390 690 q 706 418 706 690 l 706 0 q 646 -191 706 -128 q 456 -264 586 -254 l 394 -268 z "},"ǌ":{"ha":1142,"x_min":99,"x_max":1056,"o":"m 99 0 l 99 678 l 235 678 l 235 565 q 330 658 269 626 q 465 690 390 690 q 706 418 706 690 l 706 0 l 565 0 l 565 410 q 531 538 565 497 q 425 578 497 578 q 290 524 340 578 q 239 383 239 471 l 239 0 l 99 0 m 892 835 l 892 981 l 1056 981 l 1056 835 l 892 835 m 733 -268 l 724 -162 l 785 -157 q 903 -15 903 -144 l 903 678 l 1043 678 l 1043 0 q 984 -191 1043 -128 q 793 -264 925 -254 l 733 -268 z "},"ṉ":{"ha":800,"x_min":99,"x_max":706,"o":"m 99 0 l 99 678 l 235 678 l 235 565 q 330 658 269 626 q 465 690 390 690 q 706 418 706 690 l 706 0 l 565 0 l 565 410 q 531 538 565 497 q 425 578 497 578 q 290 524 340 578 q 239 383 239 471 l 239 0 l 99 0 m 190 -222 l 190 -133 l 614 -133 l 614 -222 l 190 -222 z "},"ñ":{"ha":800,"x_min":99,"x_max":706,"o":"m 99 0 l 99 678 l 235 678 l 235 565 q 330 658 269 626 q 465 690 390 690 q 706 418 706 690 l 706 0 l 565 0 l 565 410 q 531 538 565 497 q 425 578 497 578 q 290 524 340 578 q 239 383 239 471 l 239 0 l 99 0 m 217 815 l 143 821 q 192 963 150 911 q 300 1015 233 1015 q 356 1001 331 1015 q 415 960 382 988 q 465 925 446 935 q 500 915 483 915 q 586 1019 571 915 l 660 1015 q 613 872 654 924 q 504 821 571 821 q 451 833 476 821 q 388 875 425 846 q 340 910 358 900 q 303 919 322 919 q 217 815 233 919 z "},"o":{"ha":785,"x_min":58,"x_max":726,"o":"m 393 -12 q 215 31 290 -12 q 99 152 140 74 q 58 339 58 231 q 99 526 58 447 q 215 647 140 604 q 393 690 290 690 q 568 647 493 690 q 685 526 643 604 q 726 339 726 447 q 685 152 726 231 q 568 31 643 74 q 393 -12 493 -12 m 393 96 q 532 158 479 96 q 585 339 585 221 q 532 519 585 457 q 393 581 479 581 q 253 519 306 581 q 200 339 200 457 q 253 158 200 221 q 393 96 306 96 z "},"ó":{"ha":785,"x_min":58,"x_max":726,"o":"m 393 -12 q 215 31 290 -12 q 99 152 140 74 q 58 339 58 231 q 99 526 58 447 q 215 647 140 604 q 393 690 290 690 q 568 647 493 690 q 685 526 643 604 q 726 339 726 447 q 685 152 726 231 q 568 31 643 74 q 393 -12 493 -12 m 393 96 q 532 158 479 96 q 585 339 585 221 q 532 519 585 457 q 393 581 479 581 q 253 519 306 581 q 200 339 200 457 q 253 158 200 221 q 393 96 306 96 m 344 768 l 488 1049 l 631 1049 l 442 768 l 344 768 z "},"ŏ":{"ha":785,"x_min":58,"x_max":726,"o":"m 393 -12 q 215 31 290 -12 q 99 152 140 74 q 58 339 58 231 q 99 526 58 447 q 215 647 140 604 q 393 690 290 690 q 568 647 493 690 q 685 526 643 604 q 726 339 726 447 q 685 152 726 231 q 568 31 643 74 q 393 -12 493 -12 m 393 96 q 532 158 479 96 q 585 339 585 221 q 532 519 585 457 q 393 581 479 581 q 253 519 306 581 q 200 339 200 457 q 253 158 200 221 q 393 96 306 96 m 393 764 q 236 835 296 764 q 171 1029 176 906 l 254 1038 q 296 901 260 949 q 393 853 332 853 q 490 901 454 853 q 532 1038 526 949 l 615 1029 q 551 835 611 906 q 393 764 490 764 z "},"ô":{"ha":785,"x_min":58,"x_max":726,"o":"m 393 -12 q 215 31 290 -12 q 99 152 140 74 q 58 339 58 231 q 99 526 58 447 q 215 647 140 604 q 393 690 290 690 q 568 647 493 690 q 685 526 643 604 q 726 339 726 447 q 685 152 726 231 q 568 31 643 74 q 393 -12 493 -12 m 393 96 q 532 158 479 96 q 585 339 585 221 q 532 519 585 457 q 393 581 479 581 q 253 519 306 581 q 200 339 200 457 q 253 158 200 221 q 393 96 306 96 m 176 768 l 329 1049 l 457 1049 l 610 768 l 517 768 l 393 963 l 269 768 l 176 768 z "},"ố":{"ha":785,"x_min":58,"x_max":776,"o":"m 393 -12 q 215 31 290 -12 q 99 152 140 74 q 58 339 58 231 q 99 526 58 447 q 215 647 140 604 q 393 690 290 690 q 568 647 493 690 q 685 526 643 604 q 726 339 726 447 q 685 152 726 231 q 568 31 643 74 q 393 -12 493 -12 m 393 96 q 532 158 479 96 q 585 339 585 221 q 532 519 585 457 q 393 581 479 581 q 253 519 306 581 q 200 339 200 457 q 253 158 200 221 q 393 96 306 96 m 533 913 l 651 1121 l 776 1121 l 618 913 l 533 913 m 176 768 l 329 993 l 457 993 l 610 768 l 517 768 l 393 911 l 269 768 l 176 768 z "},"ộ":{"ha":785,"x_min":58,"x_max":726,"o":"m 393 -12 q 215 31 290 -12 q 99 152 140 74 q 58 339 58 231 q 99 526 58 447 q 215 647 140 604 q 393 690 290 690 q 568 647 493 690 q 685 526 643 604 q 726 339 726 447 q 685 152 726 231 q 568 31 643 74 q 393 -12 493 -12 m 393 96 q 532 158 479 96 q 585 339 585 221 q 532 519 585 457 q 393 581 479 581 q 253 519 306 581 q 200 339 200 457 q 253 158 200 221 q 393 96 306 96 m 319 -271 l 319 -131 l 467 -131 l 467 -271 l 319 -271 m 176 768 l 329 1049 l 457 1049 l 610 768 l 517 768 l 393 963 l 269 768 l 176 768 z "},"ồ":{"ha":785,"x_min":58,"x_max":726,"o":"m 393 -12 q 215 31 290 -12 q 99 152 140 74 q 58 339 58 231 q 99 526 58 447 q 215 647 140 604 q 393 690 290 690 q 568 647 493 690 q 685 526 643 604 q 726 339 726 447 q 685 152 726 231 q 568 31 643 74 q 393 -12 493 -12 m 393 96 q 532 158 479 96 q 585 339 585 221 q 532 519 585 457 q 393 581 479 581 q 253 519 306 581 q 200 339 200 457 q 253 158 200 221 q 393 96 306 96 m 588 913 l 431 1121 l 556 1121 l 674 913 l 588 913 m 176 768 l 329 993 l 457 993 l 610 768 l 517 768 l 393 911 l 269 768 l 176 768 z "},"ổ":{"ha":785,"x_min":58,"x_max":726,"o":"m 393 -12 q 215 31 290 -12 q 99 152 140 74 q 58 339 58 231 q 99 526 58 447 q 215 647 140 604 q 393 690 290 690 q 568 647 493 690 q 685 526 643 604 q 726 339 726 447 q 685 152 726 231 q 568 31 643 74 q 393 -12 493 -12 m 393 96 q 532 158 479 96 q 585 339 585 221 q 532 519 585 457 q 393 581 479 581 q 253 519 306 581 q 200 339 200 457 q 253 158 200 221 q 393 96 306 96 m 540 913 q 551 958 540 940 q 578 986 563 975 q 605 1008 593 997 q 617 1035 617 1019 q 561 1060 617 1060 q 521 1056 542 1060 q 478 1044 500 1053 l 458 1103 q 586 1126 510 1126 q 681 1108 647 1126 q 714 1056 714 1089 q 700 1011 714 1028 q 668 981 686 994 q 636 953 650 968 q 622 913 622 938 l 540 913 m 176 768 l 329 993 l 457 993 l 610 768 l 517 768 l 393 911 l 269 768 l 176 768 z "},"ỗ":{"ha":785,"x_min":58,"x_max":726,"o":"m 393 -12 q 215 31 290 -12 q 99 152 140 74 q 58 339 58 231 q 99 526 58 447 q 215 647 140 604 q 393 690 290 690 q 568 647 493 690 q 685 526 643 604 q 726 339 726 447 q 685 152 726 231 q 568 31 643 74 q 393 -12 493 -12 m 393 96 q 532 158 479 96 q 585 339 585 221 q 532 519 585 457 q 393 581 479 581 q 253 519 306 581 q 200 339 200 457 q 253 158 200 221 q 393 96 306 96 m 235 985 l 165 989 q 208 1098 169 1061 q 303 1135 246 1135 q 351 1125 328 1135 q 407 1096 375 1115 q 450 1073 433 1079 q 481 1067 467 1067 q 551 1136 539 1067 l 621 1132 q 579 1024 617 1060 q 485 988 542 988 q 434 997 458 988 q 378 1026 410 1007 q 337 1047 353 1040 q 307 1054 321 1054 q 259 1038 275 1054 q 235 985 243 1021 m 176 768 l 329 951 l 457 951 l 610 768 l 518 768 l 393 876 l 268 768 l 176 768 z "},"ȍ":{"ha":785,"x_min":58,"x_max":726,"o":"m 393 -12 q 215 31 290 -12 q 99 152 140 74 q 58 339 58 231 q 99 526 58 447 q 215 647 140 604 q 393 690 290 690 q 568 647 493 690 q 685 526 643 604 q 726 339 726 447 q 685 152 726 231 q 568 31 643 74 q 393 -12 493 -12 m 393 96 q 532 158 479 96 q 585 339 585 221 q 532 519 585 457 q 393 581 479 581 q 253 519 306 581 q 200 339 200 457 q 253 158 200 221 q 393 96 306 96 m 451 768 l 333 1049 l 457 1049 l 528 768 l 451 768 m 263 768 l 143 1049 l 265 1049 l 338 768 l 263 768 z "},"ö":{"ha":785,"x_min":58,"x_max":726,"o":"m 393 -12 q 215 31 290 -12 q 99 152 140 74 q 58 339 58 231 q 99 526 58 447 q 215 647 140 604 q 393 690 290 690 q 568 647 493 690 q 685 526 643 604 q 726 339 726 447 q 685 152 726 231 q 568 31 643 74 q 393 -12 493 -12 m 393 96 q 532 158 479 96 q 585 339 585 221 q 532 519 585 457 q 393 581 479 581 q 253 519 306 581 q 200 339 200 457 q 253 158 200 221 q 393 96 306 96 m 449 839 l 449 976 l 588 976 l 588 839 l 449 839 m 199 839 l 199 976 l 338 976 l 338 839 l 199 839 z "},"ȫ":{"ha":785,"x_min":58,"x_max":726,"o":"m 393 -12 q 215 31 290 -12 q 99 152 140 74 q 58 339 58 231 q 99 526 58 447 q 215 647 140 604 q 393 690 290 690 q 568 647 493 690 q 685 526 643 604 q 726 339 726 447 q 685 152 726 231 q 568 31 643 74 q 393 -12 493 -12 m 393 96 q 532 158 479 96 q 585 339 585 221 q 532 519 585 457 q 393 581 479 581 q 253 519 306 581 q 200 339 200 457 q 253 158 200 221 q 393 96 306 96 m 181 982 l 181 1071 l 606 1071 l 606 982 l 181 982 m 199 800 l 199 910 l 338 910 l 338 800 l 199 800 m 449 800 l 449 910 l 588 910 l 588 800 l 449 800 z "},"ȱ":{"ha":785,"x_min":58,"x_max":726,"o":"m 393 -12 q 215 31 290 -12 q 99 152 140 74 q 58 339 58 231 q 99 526 58 447 q 215 647 140 604 q 393 690 290 690 q 568 647 493 690 q 685 526 643 604 q 726 339 726 447 q 685 152 726 231 q 568 31 643 74 q 393 -12 493 -12 m 393 96 q 532 158 479 96 q 585 339 585 221 q 532 519 585 457 q 393 581 479 581 q 253 519 306 581 q 200 339 200 457 q 253 158 200 221 q 393 96 306 96 m 181 982 l 181 1071 l 606 1071 l 606 982 l 181 982 m 324 800 l 324 910 l 463 910 l 463 800 l 324 800 z "},"ọ":{"ha":785,"x_min":58,"x_max":726,"o":"m 393 -12 q 215 31 290 -12 q 99 152 140 74 q 58 339 58 231 q 99 526 58 447 q 215 647 140 604 q 393 690 290 690 q 568 647 493 690 q 685 526 643 604 q 726 339 726 447 q 685 152 726 231 q 568 31 643 74 q 393 -12 493 -12 m 393 96 q 532 158 479 96 q 585 339 585 221 q 532 519 585 457 q 393 581 479 581 q 253 519 306 581 q 200 339 200 457 q 253 158 200 221 q 393 96 306 96 m 319 -271 l 319 -131 l 467 -131 l 467 -271 l 319 -271 z "},"ò":{"ha":785,"x_min":58,"x_max":726,"o":"m 393 -12 q 215 31 290 -12 q 99 152 140 74 q 58 339 58 231 q 99 526 58 447 q 215 647 140 604 q 393 690 290 690 q 568 647 493 690 q 685 526 643 604 q 726 339 726 447 q 685 152 726 231 q 568 31 643 74 q 393 -12 493 -12 m 393 96 q 532 158 479 96 q 585 339 585 221 q 532 519 585 457 q 393 581 479 581 q 253 519 306 581 q 200 339 200 457 q 253 158 200 221 q 393 96 306 96 m 344 768 l 156 1049 l 299 1049 l 442 768 l 344 768 z "},"ỏ":{"ha":785,"x_min":58,"x_max":726,"o":"m 393 -12 q 215 31 290 -12 q 99 152 140 74 q 58 339 58 231 q 99 526 58 447 q 215 647 140 604 q 393 690 290 690 q 568 647 493 690 q 685 526 643 604 q 726 339 726 447 q 685 152 726 231 q 568 31 643 74 q 393 -12 493 -12 m 393 96 q 532 158 479 96 q 585 339 585 221 q 532 519 585 457 q 393 581 479 581 q 253 519 306 581 q 200 339 200 457 q 253 158 200 221 q 393 96 306 96 m 349 768 l 349 796 q 361 847 349 826 q 390 881 374 867 q 418 910 406 896 q 431 944 431 925 q 371 982 431 982 q 328 977 349 982 q 285 960 308 972 l 263 1026 q 400 1058 317 1058 q 504 1033 467 1058 q 542 961 542 1007 q 526 905 542 926 q 490 868 510 883 q 453 835 469 853 q 438 789 438 818 l 438 768 l 349 768 z "},"ơ":{"ha":785,"x_min":58,"x_max":736,"o":"m 393 -12 q 215 31 290 -12 q 99 152 140 74 q 58 339 58 231 q 99 526 58 447 q 215 647 140 604 q 393 690 290 690 q 568 647 493 690 q 685 526 643 604 q 726 339 726 447 q 685 152 726 231 q 568 31 643 74 q 393 -12 493 -12 m 393 96 q 532 158 479 96 q 585 339 585 221 q 532 519 585 457 q 393 581 479 581 q 253 519 306 581 q 200 339 200 457 q 253 158 200 221 q 393 96 306 96 m 546 599 l 469 649 l 469 678 q 582 713 550 678 q 614 831 614 747 l 614 856 l 736 856 l 736 811 q 685 663 736 719 q 546 599 635 606 z "},"ớ":{"ha":785,"x_min":58,"x_max":736,"o":"m 393 -12 q 215 31 290 -12 q 99 152 140 74 q 58 339 58 231 q 99 526 58 447 q 215 647 140 604 q 393 690 290 690 q 568 647 493 690 q 685 526 643 604 q 726 339 726 447 q 685 152 726 231 q 568 31 643 74 q 393 -12 493 -12 m 393 96 q 532 158 479 96 q 585 339 585 221 q 532 519 585 457 q 393 581 479 581 q 253 519 306 581 q 200 339 200 457 q 253 158 200 221 q 393 96 306 96 m 546 599 l 469 649 l 469 678 q 582 713 550 678 q 614 831 614 747 l 614 856 l 736 856 l 736 811 q 685 663 736 719 q 546 599 635 606 m 343 768 l 486 1049 l 629 1049 l 440 768 l 343 768 z "},"ợ":{"ha":785,"x_min":58,"x_max":736,"o":"m 393 -12 q 215 31 290 -12 q 99 152 140 74 q 58 339 58 231 q 99 526 58 447 q 215 647 140 604 q 393 690 290 690 q 568 647 493 690 q 685 526 643 604 q 726 339 726 447 q 685 152 726 231 q 568 31 643 74 q 393 -12 493 -12 m 393 96 q 532 158 479 96 q 585 339 585 221 q 532 519 585 457 q 393 581 479 581 q 253 519 306 581 q 200 339 200 457 q 253 158 200 221 q 393 96 306 96 m 546 599 l 469 649 l 469 678 q 582 713 550 678 q 614 831 614 747 l 614 856 l 736 856 l 736 811 q 685 663 736 719 q 546 599 635 606 m 318 -271 l 318 -131 l 465 -131 l 465 -271 l 318 -271 z "},"ờ":{"ha":785,"x_min":58,"x_max":736,"o":"m 393 -12 q 215 31 290 -12 q 99 152 140 74 q 58 339 58 231 q 99 526 58 447 q 215 647 140 604 q 393 690 290 690 q 568 647 493 690 q 685 526 643 604 q 726 339 726 447 q 685 152 726 231 q 568 31 643 74 q 393 -12 493 -12 m 393 96 q 532 158 479 96 q 585 339 585 221 q 532 519 585 457 q 393 581 479 581 q 253 519 306 581 q 200 339 200 457 q 253 158 200 221 q 393 96 306 96 m 546 599 l 469 649 l 469 678 q 582 713 550 678 q 614 831 614 747 l 614 856 l 736 856 l 736 811 q 685 663 736 719 q 546 599 635 606 m 343 768 l 154 1049 l 297 1049 l 440 768 l 343 768 z "},"ở":{"ha":785,"x_min":58,"x_max":736,"o":"m 393 -12 q 215 31 290 -12 q 99 152 140 74 q 58 339 58 231 q 99 526 58 447 q 215 647 140 604 q 393 690 290 690 q 568 647 493 690 q 685 526 643 604 q 726 339 726 447 q 685 152 726 231 q 568 31 643 74 q 393 -12 493 -12 m 393 96 q 532 158 479 96 q 585 339 585 221 q 532 519 585 457 q 393 581 479 581 q 253 519 306 581 q 200 339 200 457 q 253 158 200 221 q 393 96 306 96 m 546 599 l 469 649 l 469 678 q 582 713 550 678 q 614 831 614 747 l 614 856 l 736 856 l 736 811 q 685 663 736 719 q 546 599 635 606 m 347 768 l 347 796 q 360 847 347 826 q 388 881 372 867 q 417 910 404 896 q 429 944 429 925 q 369 982 429 982 q 327 977 347 982 q 283 960 307 972 l 261 1026 q 399 1058 315 1058 q 503 1033 465 1058 q 540 961 540 1007 q 524 905 540 926 q 488 868 508 883 q 452 835 468 853 q 436 789 436 818 l 436 768 l 347 768 z "},"ỡ":{"ha":785,"x_min":58,"x_max":736,"o":"m 393 -12 q 215 31 290 -12 q 99 152 140 74 q 58 339 58 231 q 99 526 58 447 q 215 647 140 604 q 393 690 290 690 q 568 647 493 690 q 685 526 643 604 q 726 339 726 447 q 685 152 726 231 q 568 31 643 74 q 393 -12 493 -12 m 393 96 q 532 158 479 96 q 585 339 585 221 q 532 519 585 457 q 393 581 479 581 q 253 519 306 581 q 200 339 200 457 q 253 158 200 221 q 393 96 306 96 m 546 599 l 469 649 l 469 678 q 582 713 550 678 q 614 831 614 747 l 614 856 l 736 856 l 736 811 q 685 663 736 719 q 546 599 635 606 m 208 815 l 133 821 q 181 965 140 914 q 283 1015 222 1015 q 333 1003 310 1015 q 393 961 357 992 q 440 925 422 935 q 475 915 457 915 q 558 1019 542 915 l 632 1015 q 585 871 625 921 q 485 821 544 821 q 431 833 456 821 q 372 875 406 846 q 326 910 344 900 q 290 919 307 919 q 208 815 224 919 z "},"ő":{"ha":785,"x_min":58,"x_max":726,"o":"m 393 -12 q 215 31 290 -12 q 99 152 140 74 q 58 339 58 231 q 99 526 58 447 q 215 647 140 604 q 393 690 290 690 q 568 647 493 690 q 685 526 643 604 q 726 339 726 447 q 685 152 726 231 q 568 31 643 74 q 393 -12 493 -12 m 393 96 q 532 158 479 96 q 585 339 585 221 q 532 519 585 457 q 393 581 479 581 q 253 519 306 581 q 200 339 200 457 q 253 158 200 221 q 393 96 306 96 m 449 768 l 521 1049 l 643 1049 l 525 768 l 449 768 m 258 768 l 331 1049 l 454 1049 l 335 768 l 258 768 z "},"ȏ":{"ha":785,"x_min":58,"x_max":726,"o":"m 393 -12 q 215 31 290 -12 q 99 152 140 74 q 58 339 58 231 q 99 526 58 447 q 215 647 140 604 q 393 690 290 690 q 568 647 493 690 q 685 526 643 604 q 726 339 726 447 q 685 152 726 231 q 568 31 643 74 q 393 -12 493 -12 m 393 96 q 532 158 479 96 q 585 339 585 221 q 532 519 585 457 q 393 581 479 581 q 253 519 306 581 q 200 339 200 457 q 253 158 200 221 q 393 96 306 96 m 254 764 l 171 771 q 236 966 176 894 q 393 1038 296 1038 q 551 966 490 1038 q 615 771 611 894 l 532 764 q 490 900 526 851 q 393 949 454 949 q 296 900 332 949 q 254 764 260 851 z "},"ō":{"ha":785,"x_min":58,"x_max":726,"o":"m 393 -12 q 215 31 290 -12 q 99 152 140 74 q 58 339 58 231 q 99 526 58 447 q 215 647 140 604 q 393 690 290 690 q 568 647 493 690 q 685 526 643 604 q 726 339 726 447 q 685 152 726 231 q 568 31 643 74 q 393 -12 493 -12 m 393 96 q 532 158 479 96 q 585 339 585 221 q 532 519 585 457 q 393 581 479 581 q 253 519 306 581 q 200 339 200 457 q 253 158 200 221 q 393 96 306 96 m 182 863 l 182 951 l 606 951 l 606 863 l 182 863 z "},"ṓ":{"ha":785,"x_min":58,"x_max":726,"o":"m 393 -12 q 215 31 290 -12 q 99 152 140 74 q 58 339 58 231 q 99 526 58 447 q 215 647 140 604 q 393 690 290 690 q 568 647 493 690 q 685 526 643 604 q 726 339 726 447 q 685 152 726 231 q 568 31 643 74 q 393 -12 493 -12 m 393 96 q 532 158 479 96 q 585 339 585 221 q 532 519 585 457 q 393 581 479 581 q 253 519 306 581 q 200 339 200 457 q 253 158 200 221 q 393 96 306 96 m 347 931 l 458 1121 l 599 1121 l 439 931 l 347 931 m 182 790 l 182 879 l 606 879 l 606 790 l 182 790 z "},"ṑ":{"ha":785,"x_min":58,"x_max":726,"o":"m 393 -12 q 215 31 290 -12 q 99 152 140 74 q 58 339 58 231 q 99 526 58 447 q 215 647 140 604 q 393 690 290 690 q 568 647 493 690 q 685 526 643 604 q 726 339 726 447 q 685 152 726 231 q 568 31 643 74 q 393 -12 493 -12 m 393 96 q 532 158 479 96 q 585 339 585 221 q 532 519 585 457 q 393 581 479 581 q 253 519 306 581 q 200 339 200 457 q 253 158 200 221 q 393 96 306 96 m 347 931 l 188 1121 l 328 1121 l 439 931 l 347 931 m 182 790 l 182 879 l 606 879 l 606 790 l 182 790 z "},"ǫ":{"ha":785,"x_min":58,"x_max":726,"o":"m 393 -12 q 215 31 290 -12 q 99 152 140 74 q 58 339 58 231 q 99 526 58 447 q 215 647 140 604 q 393 690 290 690 q 568 647 493 690 q 685 526 643 604 q 726 339 726 447 q 685 152 726 231 q 568 31 643 74 q 393 -12 493 -12 m 393 96 q 532 158 479 96 q 585 339 585 221 q 532 519 585 457 q 393 581 479 581 q 253 519 306 581 q 200 339 200 457 q 253 158 200 221 q 393 96 306 96 m 447 -269 q 335 -231 376 -269 q 293 -129 293 -193 q 330 -24 293 -72 q 431 54 367 25 l 475 0 q 415 -44 442 -14 q 388 -114 388 -74 q 410 -170 388 -151 q 467 -189 432 -189 q 540 -172 500 -189 l 561 -246 q 447 -269 514 -269 z "},"ø":{"ha":785,"x_min":58,"x_max":726,"o":"m 206 -74 l 125 -26 l 175 58 q 89 176 119 104 q 58 339 58 247 q 99 526 58 447 q 215 647 140 604 q 393 690 290 690 q 529 665 467 690 l 579 751 l 660 706 l 610 619 q 696 502 665 574 q 726 339 726 431 q 685 152 726 231 q 568 31 643 74 q 393 -12 493 -12 q 256 11 317 -12 l 206 -74 m 200 339 q 242 174 200 236 l 471 565 q 393 581 436 581 q 253 519 306 581 q 200 339 200 457 m 393 96 q 532 158 479 96 q 585 339 585 221 q 543 504 585 442 l 314 113 q 393 96 349 96 z "},"ǿ":{"ha":785,"x_min":58,"x_max":726,"o":"m 206 -74 l 125 -26 l 175 58 q 89 176 119 104 q 58 339 58 247 q 99 526 58 447 q 215 647 140 604 q 393 690 290 690 q 529 665 467 690 l 579 751 l 660 706 l 610 619 q 696 502 665 574 q 726 339 726 431 q 685 152 726 231 q 568 31 643 74 q 393 -12 493 -12 q 256 11 317 -12 l 206 -74 m 200 339 q 242 174 200 236 l 471 565 q 393 581 436 581 q 253 519 306 581 q 200 339 200 457 m 393 96 q 532 158 479 96 q 585 339 585 221 q 543 504 585 442 l 314 113 q 393 96 349 96 m 343 768 l 486 1049 l 629 1049 l 440 768 l 343 768 z "},"õ":{"ha":785,"x_min":58,"x_max":726,"o":"m 393 -12 q 215 31 290 -12 q 99 152 140 74 q 58 339 58 231 q 99 526 58 447 q 215 647 140 604 q 393 690 290 690 q 568 647 493 690 q 685 526 643 604 q 726 339 726 447 q 685 152 726 231 q 568 31 643 74 q 393 -12 493 -12 m 393 96 q 532 158 479 96 q 585 339 585 221 q 532 519 585 457 q 393 581 479 581 q 253 519 306 581 q 200 339 200 457 q 253 158 200 221 q 393 96 306 96 m 208 815 l 135 821 q 183 963 142 911 q 292 1015 225 1015 q 348 1001 322 1015 q 407 960 374 988 q 456 925 438 935 q 492 915 475 915 q 578 1019 563 915 l 651 1015 q 604 872 646 924 q 496 821 563 821 q 442 833 468 821 q 379 875 417 846 q 332 910 350 900 q 294 919 314 919 q 208 815 225 919 z "},"ṍ":{"ha":785,"x_min":58,"x_max":726,"o":"m 393 -12 q 215 31 290 -12 q 99 152 140 74 q 58 339 58 231 q 99 526 58 447 q 215 647 140 604 q 393 690 290 690 q 568 647 493 690 q 685 526 643 604 q 726 339 726 447 q 685 152 726 231 q 568 31 643 74 q 393 -12 493 -12 m 393 96 q 532 158 479 96 q 585 339 585 221 q 532 519 585 457 q 393 581 479 581 q 253 519 306 581 q 200 339 200 457 q 253 158 200 221 q 393 96 306 96 m 347 931 l 458 1121 l 599 1121 l 439 931 l 347 931 m 235 763 l 165 765 q 208 875 169 839 q 303 911 246 911 q 349 902 325 911 q 407 872 374 893 q 481 843 451 843 q 551 913 539 843 l 621 908 q 579 800 617 836 q 485 764 542 764 q 379 801 440 764 q 307 831 332 831 q 259 815 275 831 q 235 763 243 799 z "},"ṏ":{"ha":785,"x_min":58,"x_max":726,"o":"m 393 -12 q 215 31 290 -12 q 99 152 140 74 q 58 339 58 231 q 99 526 58 447 q 215 647 140 604 q 393 690 290 690 q 568 647 493 690 q 685 526 643 604 q 726 339 726 447 q 685 152 726 231 q 568 31 643 74 q 393 -12 493 -12 m 393 96 q 532 158 479 96 q 585 339 585 221 q 532 519 585 457 q 393 581 479 581 q 253 519 306 581 q 200 339 200 457 q 253 158 200 221 q 393 96 306 96 m 200 965 l 200 1076 l 336 1076 l 336 965 l 200 965 m 450 965 l 450 1076 l 588 1076 l 588 965 l 450 965 m 235 763 l 165 765 q 208 875 169 839 q 303 911 246 911 q 349 902 325 911 q 407 872 374 893 q 481 843 451 843 q 551 913 539 843 l 621 908 q 579 800 617 836 q 485 764 542 764 q 379 801 440 764 q 307 831 332 831 q 259 815 275 831 q 235 763 243 799 z "},"ȭ":{"ha":785,"x_min":58,"x_max":726,"o":"m 393 -12 q 215 31 290 -12 q 99 152 140 74 q 58 339 58 231 q 99 526 58 447 q 215 647 140 604 q 393 690 290 690 q 568 647 493 690 q 685 526 643 604 q 726 339 726 447 q 685 152 726 231 q 568 31 643 74 q 393 -12 493 -12 m 393 96 q 532 158 479 96 q 585 339 585 221 q 532 519 585 457 q 393 581 479 581 q 253 519 306 581 q 200 339 200 457 q 253 158 200 221 q 393 96 306 96 m 182 982 l 182 1071 l 606 1071 l 606 982 l 182 982 m 235 763 l 165 765 q 208 875 169 839 q 303 911 246 911 q 349 902 325 911 q 407 872 374 893 q 481 843 451 843 q 551 913 539 843 l 621 908 q 579 800 617 836 q 485 764 542 764 q 379 801 440 764 q 307 831 332 831 q 259 815 275 831 q 235 763 243 799 z "},"œ":{"ha":1267,"x_min":58,"x_max":1214,"o":"m 389 -12 q 214 31 288 -12 q 99 153 140 74 q 58 340 58 232 q 99 526 58 447 q 214 647 140 604 q 389 690 288 690 q 547 651 479 690 q 654 540 615 613 q 760 649 692 608 q 917 690 829 690 q 1134 601 1054 690 q 1214 354 1214 511 l 1214 307 l 725 307 q 786 150 732 204 q 943 96 840 96 q 1160 174 1061 96 l 1203 76 q 1085 11 1156 35 q 942 -12 1014 -12 q 765 26 840 -12 q 651 136 690 64 q 545 26 613 65 q 389 -12 478 -12 m 918 592 q 785 539 835 592 q 725 393 735 486 l 1094 393 q 1046 540 1092 488 q 918 592 1000 592 m 393 96 q 532 158 479 96 q 585 339 585 221 q 532 519 585 457 q 393 581 479 581 q 253 519 306 581 q 200 339 200 457 q 253 158 200 221 q 393 96 306 96 z "},"p":{"ha":821,"x_min":99,"x_max":761,"o":"m 99 -250 l 99 678 l 236 678 l 236 563 q 325 656 265 621 q 463 690 385 690 q 620 647 553 690 q 724 526 688 604 q 761 339 761 447 q 724 151 761 231 q 620 30 688 72 q 463 -12 553 -12 q 328 20 388 -12 q 239 110 269 53 l 239 -250 l 99 -250 m 428 96 q 567 158 515 96 q 619 339 619 221 q 567 519 619 457 q 428 581 515 581 q 288 519 340 581 q 236 339 236 457 q 288 158 236 221 q 428 96 340 96 z "},"þ":{"ha":821,"x_min":99,"x_max":761,"o":"m 99 -250 l 99 979 l 239 979 l 239 568 q 328 657 269 624 q 463 690 388 690 q 620 647 553 690 q 724 526 688 604 q 761 339 761 447 q 724 151 761 231 q 620 30 688 72 q 463 -12 553 -12 q 328 20 388 -12 q 239 110 269 53 l 239 -250 l 99 -250 m 428 96 q 567 158 515 96 q 619 339 619 221 q 567 519 619 457 q 428 581 515 581 q 288 519 340 581 q 236 339 236 457 q 288 158 236 221 q 428 96 340 96 z "},"q":{"ha":821,"x_min":58,"x_max":722,"o":"m 582 -250 l 582 111 q 493 21 553 54 q 357 -12 433 -12 q 200 30 267 -12 q 96 151 133 72 q 58 339 58 231 q 96 526 58 447 q 201 647 133 604 q 357 690 268 690 q 495 655 435 690 q 585 560 556 619 l 585 678 l 722 678 l 722 -250 l 582 -250 m 393 96 q 532 158 479 96 q 585 339 585 221 q 532 519 585 457 q 393 581 479 581 q 253 519 306 581 q 200 339 200 457 q 253 158 200 221 q 393 96 306 96 z "},"r":{"ha":518,"x_min":99,"x_max":510,"o":"m 99 0 l 99 678 l 235 678 l 235 557 q 454 692 288 678 l 500 694 l 510 575 l 425 567 q 240 376 240 549 l 240 0 l 99 0 z "},"ŕ":{"ha":518,"x_min":99,"x_max":543,"o":"m 99 0 l 99 678 l 235 678 l 235 557 q 454 692 288 678 l 500 694 l 510 575 l 425 567 q 240 376 240 549 l 240 0 l 99 0 m 257 768 l 400 1049 l 543 1049 l 354 768 l 257 768 z "},"ř":{"ha":518,"x_min":89,"x_max":522,"o":"m 99 0 l 99 678 l 235 678 l 235 557 q 454 692 288 678 l 500 694 l 510 575 l 425 567 q 240 376 240 549 l 240 0 l 99 0 m 242 768 l 89 1049 l 182 1049 l 306 853 l 429 1049 l 522 1049 l 369 768 l 242 768 z "},"ŗ":{"ha":518,"x_min":92,"x_max":510,"o":"m 99 0 l 99 678 l 235 678 l 235 557 q 454 692 288 678 l 500 694 l 510 575 l 425 567 q 240 376 240 549 l 240 0 l 99 0 m 172 -379 l 115 -339 q 153 -286 142 -311 q 168 -233 165 -261 l 92 -233 l 92 -107 l 247 -107 l 247 -194 q 230 -295 247 -249 q 172 -379 213 -342 z "},"ȑ":{"ha":518,"x_min":56,"x_max":510,"o":"m 99 0 l 99 678 l 235 678 l 235 557 q 454 692 288 678 l 500 694 l 510 575 l 425 567 q 240 376 240 549 l 240 0 l 99 0 m 364 768 l 246 1049 l 369 1049 l 440 768 l 364 768 m 175 768 l 56 1049 l 178 1049 l 250 768 l 175 768 z "},"ṛ":{"ha":518,"x_min":96,"x_max":510,"o":"m 99 0 l 99 678 l 235 678 l 235 557 q 454 692 288 678 l 500 694 l 510 575 l 425 567 q 240 376 240 549 l 240 0 l 99 0 m 96 -271 l 96 -131 l 243 -131 l 243 -271 l 96 -271 z "},"ȓ":{"ha":518,"x_min":83,"x_max":528,"o":"m 99 0 l 99 678 l 235 678 l 235 557 q 454 692 288 678 l 500 694 l 510 575 l 425 567 q 240 376 240 549 l 240 0 l 99 0 m 167 764 l 83 771 q 149 966 89 894 q 306 1038 208 1038 q 463 966 403 1038 q 528 771 524 894 l 444 764 q 403 900 439 851 q 306 949 367 949 q 208 900 244 949 q 167 764 172 851 z "},"ṟ":{"ha":518,"x_min":-42,"x_max":510,"o":"m 99 0 l 99 678 l 235 678 l 235 557 q 454 692 288 678 l 500 694 l 510 575 l 425 567 q 240 376 240 549 l 240 0 l 99 0 m -42 -222 l -42 -133 l 382 -133 l 382 -222 l -42 -222 z "},"s":{"ha":672,"x_min":60,"x_max":615,"o":"m 336 -12 q 181 9 253 -12 q 60 69 108 31 l 100 164 q 213 108 151 128 q 338 89 275 89 q 449 115 411 89 q 486 186 486 142 q 461 242 486 222 q 386 274 436 263 l 254 300 q 79 481 79 336 q 156 633 79 576 q 356 690 232 690 q 491 669 426 690 q 599 607 556 649 l 558 513 q 463 568 517 549 q 356 588 408 588 q 246 560 283 588 q 208 488 208 533 q 300 399 208 418 l 432 372 q 569 311 522 354 q 615 194 615 268 q 539 42 615 97 q 336 -12 463 -12 z "},"ś":{"ha":672,"x_min":60,"x_max":615,"o":"m 336 -12 q 181 9 253 -12 q 60 69 108 31 l 100 164 q 213 108 151 128 q 338 89 275 89 q 449 115 411 89 q 486 186 486 142 q 461 242 486 222 q 386 274 436 263 l 254 300 q 79 481 79 336 q 156 633 79 576 q 356 690 232 690 q 491 669 426 690 q 599 607 556 649 l 558 513 q 463 568 517 549 q 356 588 408 588 q 246 560 283 588 q 208 488 208 533 q 300 399 208 418 l 432 372 q 569 311 522 354 q 615 194 615 268 q 539 42 615 97 q 336 -12 463 -12 m 300 768 l 443 1049 l 586 1049 l 397 768 l 300 768 z "},"ṥ":{"ha":672,"x_min":60,"x_max":615,"o":"m 336 -12 q 181 9 253 -12 q 60 69 108 31 l 100 164 q 213 108 151 128 q 338 89 275 89 q 449 115 411 89 q 486 186 486 142 q 461 242 486 222 q 386 274 436 263 l 254 300 q 79 481 79 336 q 156 633 79 576 q 356 690 232 690 q 491 669 426 690 q 599 607 556 649 l 558 513 q 463 568 517 549 q 356 588 408 588 q 246 560 283 588 q 208 488 208 533 q 300 399 208 418 l 432 372 q 569 311 522 354 q 615 194 615 268 q 539 42 615 97 q 336 -12 463 -12 m 211 1047 l 211 1158 l 350 1158 l 350 1047 l 211 1047 m 300 768 l 449 1049 l 592 1049 l 397 768 l 300 768 z "},"š":{"ha":672,"x_min":60,"x_max":615,"o":"m 336 -12 q 181 9 253 -12 q 60 69 108 31 l 100 164 q 213 108 151 128 q 338 89 275 89 q 449 115 411 89 q 486 186 486 142 q 461 242 486 222 q 386 274 436 263 l 254 300 q 79 481 79 336 q 156 633 79 576 q 356 690 232 690 q 491 669 426 690 q 599 607 556 649 l 558 513 q 463 568 517 549 q 356 588 408 588 q 246 560 283 588 q 208 488 208 533 q 300 399 208 418 l 432 372 q 569 311 522 354 q 615 194 615 268 q 539 42 615 97 q 336 -12 463 -12 m 285 768 l 132 1049 l 225 1049 l 349 853 l 472 1049 l 565 1049 l 413 768 l 285 768 z "},"ṧ":{"ha":672,"x_min":60,"x_max":615,"o":"m 336 -12 q 181 9 253 -12 q 60 69 108 31 l 100 164 q 213 108 151 128 q 338 89 275 89 q 449 115 411 89 q 486 186 486 142 q 461 242 486 222 q 386 274 436 263 l 254 300 q 79 481 79 336 q 156 633 79 576 q 356 690 232 690 q 491 669 426 690 q 599 607 556 649 l 558 513 q 463 568 517 549 q 356 588 408 588 q 246 560 283 588 q 208 488 208 533 q 300 399 208 418 l 432 372 q 569 311 522 354 q 615 194 615 268 q 539 42 615 97 q 336 -12 463 -12 m 279 1047 l 279 1158 l 418 1158 l 418 1047 l 279 1047 m 285 768 l 132 989 l 225 989 l 349 851 l 472 989 l 565 989 l 413 768 l 285 768 z "},"ş":{"ha":672,"x_min":60,"x_max":615,"o":"m 336 -12 q 181 9 253 -12 q 60 69 108 31 l 100 164 q 213 108 151 128 q 338 89 275 89 q 449 115 411 89 q 486 186 486 142 q 461 242 486 222 q 386 274 436 263 l 254 300 q 79 481 79 336 q 156 633 79 576 q 356 690 232 690 q 491 669 426 690 q 599 607 556 649 l 558 513 q 463 568 517 549 q 356 588 408 588 q 246 560 283 588 q 208 488 208 533 q 300 399 208 418 l 432 372 q 569 311 522 354 q 615 194 615 268 q 539 42 615 97 q 336 -12 463 -12 m 339 -269 q 266 -262 301 -269 q 207 -240 231 -254 l 228 -172 q 277 -189 254 -183 q 331 -194 300 -194 q 389 -183 368 -194 q 410 -149 410 -171 q 357 -112 410 -112 q 329 -115 343 -112 q 296 -122 315 -117 l 271 -100 l 290 28 l 371 28 l 357 -57 q 378 -56 368 -56 q 465 -81 432 -56 q 499 -153 499 -107 q 454 -237 499 -204 q 339 -269 410 -269 z "},"ŝ":{"ha":672,"x_min":60,"x_max":615,"o":"m 336 -12 q 181 9 253 -12 q 60 69 108 31 l 100 164 q 213 108 151 128 q 338 89 275 89 q 449 115 411 89 q 486 186 486 142 q 461 242 486 222 q 386 274 436 263 l 254 300 q 79 481 79 336 q 156 633 79 576 q 356 690 232 690 q 491 669 426 690 q 599 607 556 649 l 558 513 q 463 568 517 549 q 356 588 408 588 q 246 560 283 588 q 208 488 208 533 q 300 399 208 418 l 432 372 q 569 311 522 354 q 615 194 615 268 q 539 42 615 97 q 336 -12 463 -12 m 132 768 l 285 1049 l 413 1049 l 565 768 l 472 768 l 349 963 l 225 768 l 132 768 z "},"ș":{"ha":672,"x_min":60,"x_max":615,"o":"m 336 -12 q 181 9 253 -12 q 60 69 108 31 l 100 164 q 213 108 151 128 q 338 89 275 89 q 449 115 411 89 q 486 186 486 142 q 461 242 486 222 q 386 274 436 263 l 254 300 q 79 481 79 336 q 156 633 79 576 q 356 690 232 690 q 491 669 426 690 q 599 607 556 649 l 558 513 q 463 568 517 549 q 356 588 408 588 q 246 560 283 588 q 208 488 208 533 q 300 399 208 418 l 432 372 q 569 311 522 354 q 615 194 615 268 q 539 42 615 97 q 336 -12 463 -12 m 339 -379 l 282 -339 q 320 -286 308 -311 q 335 -233 332 -261 l 258 -233 l 258 -107 l 414 -107 l 414 -194 q 397 -295 414 -249 q 339 -379 379 -342 z "},"ṡ":{"ha":672,"x_min":60,"x_max":615,"o":"m 336 -12 q 181 9 253 -12 q 60 69 108 31 l 100 164 q 213 108 151 128 q 338 89 275 89 q 449 115 411 89 q 486 186 486 142 q 461 242 486 222 q 386 274 436 263 l 254 300 q 79 481 79 336 q 156 633 79 576 q 356 690 232 690 q 491 669 426 690 q 599 607 556 649 l 558 513 q 463 568 517 549 q 356 588 408 588 q 246 560 283 588 q 208 488 208 533 q 300 399 208 418 l 432 372 q 569 311 522 354 q 615 194 615 268 q 539 42 615 97 q 336 -12 463 -12 m 275 838 l 275 978 l 422 978 l 422 838 l 275 838 z "},"ṣ":{"ha":672,"x_min":60,"x_max":615,"o":"m 336 -12 q 181 9 253 -12 q 60 69 108 31 l 100 164 q 213 108 151 128 q 338 89 275 89 q 449 115 411 89 q 486 186 486 142 q 461 242 486 222 q 386 274 436 263 l 254 300 q 79 481 79 336 q 156 633 79 576 q 356 690 232 690 q 491 669 426 690 q 599 607 556 649 l 558 513 q 463 568 517 549 q 356 588 408 588 q 246 560 283 588 q 208 488 208 533 q 300 399 208 418 l 432 372 q 569 311 522 354 q 615 194 615 268 q 539 42 615 97 q 336 -12 463 -12 m 263 -271 l 263 -131 l 410 -131 l 410 -271 l 263 -271 z "},"ṩ":{"ha":672,"x_min":60,"x_max":615,"o":"m 336 -12 q 181 9 253 -12 q 60 69 108 31 l 100 164 q 213 108 151 128 q 338 89 275 89 q 449 115 411 89 q 486 186 486 142 q 461 242 486 222 q 386 274 436 263 l 254 300 q 79 481 79 336 q 156 633 79 576 q 356 690 232 690 q 491 669 426 690 q 599 607 556 649 l 558 513 q 463 568 517 549 q 356 588 408 588 q 246 560 283 588 q 208 488 208 533 q 300 399 208 418 l 432 372 q 569 311 522 354 q 615 194 615 268 q 539 42 615 97 q 336 -12 463 -12 m 263 -271 l 263 -131 l 410 -131 l 410 -271 l 263 -271 m 275 838 l 275 978 l 422 978 l 422 838 l 275 838 z "},"ß":{"ha":878,"x_min":99,"x_max":842,"o":"m 581 -12 q 437 10 508 -12 q 317 75 365 33 l 361 171 q 472 113 413 132 q 582 94 532 94 q 677 120 643 94 q 711 190 711 146 q 681 252 711 228 q 571 300 650 276 q 415 380 460 335 q 371 492 371 425 q 393 576 371 535 q 476 671 415 617 q 533 735 517 707 q 549 796 549 764 q 519 862 549 838 q 432 886 489 886 q 288 831 338 886 q 239 672 239 775 l 239 0 l 99 0 l 99 654 q 185 903 99 815 q 432 992 272 992 q 616 942 550 992 q 682 807 682 892 q 659 715 682 757 q 582 624 636 672 q 519 558 535 582 q 503 507 503 533 q 533 449 503 474 q 646 400 564 425 q 797 319 751 368 q 842 197 842 271 q 770 45 842 103 q 581 -12 699 -12 z "},"t":{"ha":507,"x_min":3,"x_max":515,"o":"m 388 -12 q 197 53 260 -12 q 135 242 135 118 l 135 569 l 3 569 l 3 678 l 135 678 l 135 882 l 275 882 l 275 678 l 485 678 l 485 569 l 275 569 l 275 253 q 306 142 275 179 q 408 104 338 104 q 451 109 431 104 q 493 121 472 114 l 515 15 q 458 -5 494 3 q 388 -12 421 -12 z "},"ŧ":{"ha":507,"x_min":3,"x_max":515,"o":"m 388 -12 q 197 53 260 -12 q 135 242 135 118 l 135 569 l 3 569 l 3 678 l 135 678 l 135 882 l 275 882 l 275 678 l 485 678 l 485 569 l 275 569 l 275 253 q 306 142 275 179 q 408 104 338 104 q 451 109 431 104 q 493 121 472 114 l 515 15 q 458 -5 494 3 q 388 -12 421 -12 m 38 322 l 38 411 l 439 411 l 439 322 l 38 322 z "},"ť":{"ha":507,"x_min":3,"x_max":515,"o":"m 388 -12 q 197 53 260 -12 q 135 242 135 118 l 135 569 l 3 569 l 3 678 l 135 678 l 135 882 l 275 882 l 275 678 l 485 678 l 485 569 l 275 569 l 275 253 q 306 142 275 179 q 408 104 338 104 q 451 109 431 104 q 493 121 472 114 l 515 15 q 458 -5 494 3 q 388 -12 421 -12 m 363 739 l 363 979 l 465 979 l 431 739 l 363 739 z "},"ţ":{"ha":507,"x_min":3,"x_max":515,"o":"m 388 -12 q 197 53 260 -12 q 135 242 135 118 l 135 569 l 3 569 l 3 678 l 135 678 l 135 882 l 275 882 l 275 678 l 485 678 l 485 569 l 275 569 l 275 253 q 306 142 275 179 q 408 104 338 104 q 451 109 431 104 q 493 121 472 114 l 515 15 q 458 -5 494 3 q 388 -12 421 -12 m 311 -269 q 238 -262 274 -269 q 179 -240 203 -254 l 200 -172 q 249 -189 226 -183 q 303 -194 272 -194 q 361 -183 340 -194 q 382 -149 382 -171 q 329 -112 382 -112 q 301 -115 315 -112 q 268 -122 288 -117 l 243 -100 l 263 28 l 343 28 l 329 -57 q 350 -56 340 -56 q 438 -81 404 -56 q 471 -153 471 -107 q 426 -237 471 -204 q 311 -269 382 -269 z "},"ț":{"ha":507,"x_min":3,"x_max":515,"o":"m 388 -12 q 197 53 260 -12 q 135 242 135 118 l 135 569 l 3 569 l 3 678 l 135 678 l 135 882 l 275 882 l 275 678 l 485 678 l 485 569 l 275 569 l 275 253 q 306 142 275 179 q 408 104 338 104 q 451 109 431 104 q 493 121 472 114 l 515 15 q 458 -5 494 3 q 388 -12 421 -12 m 311 -379 l 254 -339 q 292 -286 281 -311 q 307 -233 304 -261 l 231 -233 l 231 -107 l 386 -107 l 386 -194 q 369 -295 386 -249 q 311 -379 351 -342 z "},"ẗ":{"ha":507,"x_min":3,"x_max":515,"o":"m 388 -12 q 197 53 260 -12 q 135 242 135 118 l 135 569 l 3 569 l 3 678 l 135 678 l 135 882 l 275 882 l 275 678 l 485 678 l 485 569 l 275 569 l 275 253 q 306 142 275 179 q 408 104 338 104 q 451 109 431 104 q 493 121 472 114 l 515 15 q 458 -5 494 3 q 388 -12 421 -12 m 261 1013 l 261 1150 l 400 1150 l 400 1013 l 261 1013 m 11 1013 l 11 1150 l 150 1150 l 150 1013 l 11 1013 z "},"ṭ":{"ha":507,"x_min":3,"x_max":515,"o":"m 388 -12 q 197 53 260 -12 q 135 242 135 118 l 135 569 l 3 569 l 3 678 l 135 678 l 135 882 l 275 882 l 275 678 l 485 678 l 485 569 l 275 569 l 275 253 q 306 142 275 179 q 408 104 338 104 q 451 109 431 104 q 493 121 472 114 l 515 15 q 458 -5 494 3 q 388 -12 421 -12 m 235 -271 l 235 -131 l 382 -131 l 382 -271 l 235 -271 z "},"ṯ":{"ha":507,"x_min":3,"x_max":521,"o":"m 388 -12 q 197 53 260 -12 q 135 242 135 118 l 135 569 l 3 569 l 3 678 l 135 678 l 135 882 l 275 882 l 275 678 l 485 678 l 485 569 l 275 569 l 275 253 q 306 142 275 179 q 408 104 338 104 q 451 109 431 104 q 493 121 472 114 l 515 15 q 458 -5 494 3 q 388 -12 421 -12 m 97 -222 l 97 -133 l 521 -133 l 521 -222 l 97 -222 z "},"u":{"ha":790,"x_min":94,"x_max":692,"o":"m 340 -12 q 94 261 94 -12 l 94 678 l 235 678 l 235 260 q 268 139 235 178 q 374 100 301 100 q 502 153 453 100 q 551 294 551 206 l 551 678 l 692 678 l 692 0 l 556 0 l 556 108 q 467 18 522 49 q 340 -12 411 -12 z "},"ú":{"ha":790,"x_min":94,"x_max":692,"o":"m 340 -12 q 94 261 94 -12 l 94 678 l 235 678 l 235 260 q 268 139 235 178 q 374 100 301 100 q 502 153 453 100 q 551 294 551 206 l 551 678 l 692 678 l 692 0 l 556 0 l 556 108 q 467 18 522 49 q 340 -12 411 -12 m 346 769 l 489 1050 l 632 1050 l 443 769 l 346 769 z "},"ŭ":{"ha":790,"x_min":94,"x_max":692,"o":"m 340 -12 q 94 261 94 -12 l 94 678 l 235 678 l 235 260 q 268 139 235 178 q 374 100 301 100 q 502 153 453 100 q 551 294 551 206 l 551 678 l 692 678 l 692 0 l 556 0 l 556 108 q 467 18 522 49 q 340 -12 411 -12 m 394 765 q 238 836 297 765 q 172 1031 178 907 l 256 1039 q 297 902 261 950 q 394 854 333 854 q 492 902 456 854 q 533 1039 528 950 l 617 1031 q 552 836 613 907 q 394 765 492 765 z "},"ǔ":{"ha":790,"x_min":94,"x_max":692,"o":"m 340 -12 q 94 261 94 -12 l 94 678 l 235 678 l 235 260 q 268 139 235 178 q 374 100 301 100 q 502 153 453 100 q 551 294 551 206 l 551 678 l 692 678 l 692 0 l 556 0 l 556 108 q 467 18 522 49 q 340 -12 411 -12 m 331 769 l 178 1050 l 271 1050 l 394 854 l 518 1050 l 611 1050 l 458 769 l 331 769 z "},"û":{"ha":790,"x_min":94,"x_max":692,"o":"m 340 -12 q 94 261 94 -12 l 94 678 l 235 678 l 235 260 q 268 139 235 178 q 374 100 301 100 q 502 153 453 100 q 551 294 551 206 l 551 678 l 692 678 l 692 0 l 556 0 l 556 108 q 467 18 522 49 q 340 -12 411 -12 m 178 769 l 331 1050 l 458 1050 l 611 769 l 518 769 l 394 964 l 271 769 l 178 769 z "},"ȕ":{"ha":790,"x_min":94,"x_max":692,"o":"m 340 -12 q 94 261 94 -12 l 94 678 l 235 678 l 235 260 q 268 139 235 178 q 374 100 301 100 q 502 153 453 100 q 551 294 551 206 l 551 678 l 692 678 l 692 0 l 556 0 l 556 108 q 467 18 522 49 q 340 -12 411 -12 m 453 769 l 335 1050 l 458 1050 l 529 769 l 453 769 m 264 769 l 144 1050 l 267 1050 l 339 769 l 264 769 z "},"ü":{"ha":790,"x_min":94,"x_max":692,"o":"m 340 -12 q 94 261 94 -12 l 94 678 l 235 678 l 235 260 q 268 139 235 178 q 374 100 301 100 q 502 153 453 100 q 551 294 551 206 l 551 678 l 692 678 l 692 0 l 556 0 l 556 108 q 467 18 522 49 q 340 -12 411 -12 m 450 840 l 450 978 l 589 978 l 589 840 l 450 840 m 200 840 l 200 978 l 339 978 l 339 840 l 200 840 z "},"ụ":{"ha":790,"x_min":94,"x_max":692,"o":"m 340 -12 q 94 261 94 -12 l 94 678 l 235 678 l 235 260 q 268 139 235 178 q 374 100 301 100 q 502 153 453 100 q 551 294 551 206 l 551 678 l 692 678 l 692 0 l 556 0 l 556 108 q 467 18 522 49 q 340 -12 411 -12 m 321 -271 l 321 -131 l 468 -131 l 468 -271 l 321 -271 z "},"ù":{"ha":790,"x_min":94,"x_max":692,"o":"m 340 -12 q 94 261 94 -12 l 94 678 l 235 678 l 235 260 q 268 139 235 178 q 374 100 301 100 q 502 153 453 100 q 551 294 551 206 l 551 678 l 692 678 l 692 0 l 556 0 l 556 108 q 467 18 522 49 q 340 -12 411 -12 m 346 769 l 157 1050 l 300 1050 l 443 769 l 346 769 z "},"ủ":{"ha":790,"x_min":94,"x_max":692,"o":"m 340 -12 q 94 261 94 -12 l 94 678 l 235 678 l 235 260 q 268 139 235 178 q 374 100 301 100 q 502 153 453 100 q 551 294 551 206 l 551 678 l 692 678 l 692 0 l 556 0 l 556 108 q 467 18 522 49 q 340 -12 411 -12 m 350 769 l 350 797 q 363 848 350 828 q 391 883 375 868 q 419 912 407 897 q 432 946 432 926 q 372 983 432 983 q 330 978 350 983 q 286 961 310 974 l 264 1028 q 401 1060 318 1060 q 506 1034 468 1060 q 543 963 543 1008 q 527 906 543 928 q 491 869 511 885 q 455 837 471 854 q 439 790 439 819 l 439 769 l 350 769 z "},"ư":{"ha":790,"x_min":94,"x_max":851,"o":"m 340 -12 q 94 261 94 -12 l 94 678 l 235 678 l 235 260 q 268 139 235 178 q 374 100 301 100 q 502 153 453 100 q 551 294 551 206 l 551 678 l 692 678 l 692 0 l 556 0 l 556 108 q 467 18 522 49 q 340 -12 411 -12 m 661 599 l 585 649 l 585 678 q 697 713 665 678 q 729 831 729 747 l 729 856 l 851 856 l 851 811 q 801 663 851 719 q 661 599 750 606 z "},"ứ":{"ha":790,"x_min":94,"x_max":851,"o":"m 340 -12 q 94 261 94 -12 l 94 678 l 235 678 l 235 260 q 268 139 235 178 q 374 100 301 100 q 502 153 453 100 q 551 294 551 206 l 551 678 l 692 678 l 692 0 l 556 0 l 556 108 q 467 18 522 49 q 340 -12 411 -12 m 661 599 l 585 649 l 585 678 q 697 713 665 678 q 729 831 729 747 l 729 856 l 851 856 l 851 811 q 801 663 851 719 q 661 599 750 606 m 346 768 l 489 1049 l 632 1049 l 443 768 l 346 768 z "},"ự":{"ha":790,"x_min":94,"x_max":851,"o":"m 340 -12 q 94 261 94 -12 l 94 678 l 235 678 l 235 260 q 268 139 235 178 q 374 100 301 100 q 502 153 453 100 q 551 294 551 206 l 551 678 l 692 678 l 692 0 l 556 0 l 556 108 q 467 18 522 49 q 340 -12 411 -12 m 661 599 l 585 649 l 585 678 q 697 713 665 678 q 729 831 729 747 l 729 856 l 851 856 l 851 811 q 801 663 851 719 q 661 599 750 606 m 321 -271 l 321 -131 l 468 -131 l 468 -271 l 321 -271 z "},"ừ":{"ha":790,"x_min":94,"x_max":851,"o":"m 340 -12 q 94 261 94 -12 l 94 678 l 235 678 l 235 260 q 268 139 235 178 q 374 100 301 100 q 502 153 453 100 q 551 294 551 206 l 551 678 l 692 678 l 692 0 l 556 0 l 556 108 q 467 18 522 49 q 340 -12 411 -12 m 661 599 l 585 649 l 585 678 q 697 713 665 678 q 729 831 729 747 l 729 856 l 851 856 l 851 811 q 801 663 851 719 q 661 599 750 606 m 346 768 l 157 1049 l 300 1049 l 443 768 l 346 768 z "},"ử":{"ha":790,"x_min":94,"x_max":851,"o":"m 340 -12 q 94 261 94 -12 l 94 678 l 235 678 l 235 260 q 268 139 235 178 q 374 100 301 100 q 502 153 453 100 q 551 294 551 206 l 551 678 l 692 678 l 692 0 l 556 0 l 556 108 q 467 18 522 49 q 340 -12 411 -12 m 661 599 l 585 649 l 585 678 q 697 713 665 678 q 729 831 729 747 l 729 856 l 851 856 l 851 811 q 801 663 851 719 q 661 599 750 606 m 350 768 l 350 796 q 363 847 350 826 q 391 881 375 867 q 419 910 407 896 q 432 944 432 925 q 372 982 432 982 q 330 977 350 982 q 286 960 310 972 l 264 1026 q 401 1058 318 1058 q 506 1033 468 1058 q 543 961 543 1007 q 527 905 543 926 q 491 868 511 883 q 455 835 471 853 q 439 789 439 818 l 439 768 l 350 768 z "}}}
